<svg version="1.1" viewBox="0.0 0.0 960.0 540.0" fill="none" stroke="none" stroke-linecap="square" stroke-miterlimit="10" xmlns:xlink="http://www.w3.org/1999/xlink" xmlns="http://www.w3.org/2000/svg"><clipPath id="g130fbdf7414_0_0.0"><path d="m0 0l960.0 0l0 540.0l-960.0 0l0 -540.0z" clip-rule="nonzero"/></clipPath><g clip-path="url(#g130fbdf7414_0_0.0)"><path fill="none" d="m0 0l960.0 0l0 540.0l-960.0 0z" fill-rule="evenodd"/><path fill="#fff2cc" d="m658.23883 121.685036l0 0c0 -30.127785 51.173523 -54.551178 114.299255 -54.551178l0 0c63.12567 0 114.299194 24.423393 114.299194 54.551178l0 0c0 30.127785 -51.173523 54.551186 -114.299194 54.551186l0 0c-63.125732 0 -114.299255 -24.4234 -114.299255 -54.551186z" fill-rule="evenodd"/><path stroke="#0f1d3e" stroke-width="1.0" stroke-linejoin="round" stroke-linecap="butt" d="m658.23883 121.685036l0 0c0 -30.127785 51.173523 -54.551178 114.299255 -54.551178l0 0c63.12567 0 114.299194 24.423393 114.299194 54.551178l0 0c0 30.127785 -51.173523 54.551186 -114.299194 54.551186l0 0c-63.125732 0 -114.299255 -24.4234 -114.299255 -54.551186z" fill-rule="evenodd"/><path fill="#0f1d3e" d="m724.0526 117.40504q-0.96875 0 -0.96875 -0.96875l0 -21.453125q0 -0.96875 0.96875 -0.96875l6.046875 0q0.984375 0 0.984375 0.96875q0 1.015625 -0.984375 1.015625l-5.03125 0l0 7.875l4.71875 0q0.96875 0 0.96875 0.96875q0 1.015625 -0.96875 1.015625l-4.71875 0l0 9.5625l5.03125 0q0.984375 0 0.984375 0.96875q0 1.015625 -0.984375 1.015625l-6.046875 0zm8.6380005 0q-0.53125 0 -0.828125 -0.421875q-0.28125 -0.421875 -0.09375 -0.921875l2.78125 -7.46875l-2.390625 -6.390625q-0.234375 -0.46875 0.078125 -0.921875q0.3125 -0.453125 0.84375 -0.453125q0.625 0 0.9375 0.609375l1.59375 4.3125l1.59375 -4.296875q0.265625 -0.625 0.9375 -0.625q0.546875 0 0.828125 0.453125q0.28125 0.4375 0.09375 0.890625l-2.40625 6.421875l2.796875 7.46875q0.1875 0.5 -0.109375 0.921875q-0.28125 0.421875 -0.828125 0.421875q-0.65625 0 -0.921875 -0.625l-1.984375 -5.328125l-1.984375 5.328125q-0.265625 0.625 -0.9375 0.625zm12.198608 0q-1.703125 0 -2.546875 -0.828125q-0.828125 -0.84375 -0.828125 -2.703125l0 -10.734375l-1.515625 0q-0.984375 0 -0.984375 -1.015625q0 -0.96875 0.984375 -0.96875l1.515625 0l0 -3.375q0 -0.984375 1.015625 -0.984375q0.96875 0 0.96875 0.984375l0 3.375l1.515625 0q0.984375 0 0.984375 0.96875q0 1.015625 -0.984375 1.015625l-1.515625 0l0 10.703125q0 1.015625 0.25 1.296875q0.265625 0.28125 1.140625 0.28125q1.015625 0 1.015625 0.96875q0 1.015625 -1.015625 1.015625zm5.913391 0.15625q-1.375 0 -2.375 -1.171875q-1.0 -1.1875 -1.5 -3.0625q-0.484375 -1.875 -0.484375 -4.21875q0 -2.359375 0.484375 -4.234375q0.5 -1.875 1.453125 -3.03125q0.96875 -1.171875 2.359375 -1.171875q1.296875 0 2.15625 0.984375q0.875 0.96875 1.296875 2.515625q0.4375 1.546875 0.4375 3.453125q0 1.171875 -1.171875 1.171875l-5.140625 -0.140625q0.140625 -0.015625 0.140625 0.453125q0 1.96875 0.359375 3.484375q0.359375 1.5 0.90625 2.25q0.546875 0.734375 1.078125 0.734375q0.53125 0 0.984375 -0.53125q0.453125 -0.53125 0.765625 -1.578125q0.25 -0.734375 0.984375 -0.734375q0.671875 0 0.84375 0.5q0.1875 0.484375 0.0625 0.90625q-0.5 1.515625 -1.390625 2.46875q-0.875 0.953125 -2.25 0.953125zm-0.0625 -14.90625q-0.671875 0 -1.34375 1.296875q-0.671875 1.296875 -0.8125 2.859375l4.046875 0q-0.046875 -1.53125 -0.625 -2.84375q-0.5625 -1.3125 -1.265625 -1.3125zm6.432556 14.75q-0.96875 0 -0.96875 -0.96875l0 -14.625q0 -0.984375 0.96875 -0.984375q1.015625 0 1.015625 0.984375l-0.3125 0.125q-0.15625 -0.3125 0.71875 -0.78125q0.875 -0.484375 1.90625 -0.484375q3.3125 0 3.3125 4.4375q0 1.03125 -0.96875 1.03125q-1.015625 0 -1.015625 -1.03125q0 -1.515625 -0.34375 -1.984375q-0.34375 -0.46875 -0.984375 -0.46875q-0.75 0 -1.359375 0.484375q-0.609375 0.484375 -0.953125 1.109375l0 12.1875q0 0.96875 -1.015625 0.96875zm8.864014 0q-0.96875 0 -0.96875 -0.96875l0 -14.625q0 -0.984375 0.96875 -0.984375q1.015625 0 1.015625 0.984375l-0.3125 0.125q-0.15625 -0.3125 0.71875 -0.78125q0.875 -0.484375 1.90625 -0.484375q3.3125 0 3.3125 4.203125l0 11.5625q0 0.96875 -1.0 0.96875q-0.984375 0 -0.984375 -0.96875l0 -11.5625q0 -1.34375 -0.34375 -1.78125q-0.34375 -0.4375 -0.984375 -0.4375q-0.75 0 -1.359375 0.484375q-0.609375 0.484375 -0.953125 1.109375l0 12.1875q0 0.96875 -1.015625 0.96875zm11.198975 0q-1.5 0 -2.40625 -1.0625q-0.90625 -1.0625 -0.90625 -2.734375q0 -3.515625 3.53125 -5.078125l2.421875 -1.046875l0 -2.609375q0 -2.21875 -1.328125 -2.21875q-1.15625 0 -2.125 1.609375q-0.28125 0.46875 -0.8125 0.46875q-1.015625 0 -1.015625 -0.96875q0 -0.296875 0.171875 -0.5625q1.40625 -2.53125 3.78125 -2.53125q3.3125 0 3.3125 4.203125l0 10.46875q-0.078125 0.15625 -0.078125 0.078125q0.0625 0 0.078125 -0.03125q0.296875 -0.28125 0.6875 -0.28125q1.015625 0 1.015625 1.0q0 0.390625 -0.28125 0.6875q-0.625 0.609375 -1.5 0.609375q-1.90625 0 -1.90625 -2.0625l0.5 0q-0.5 1.1875 -1.375 1.625q-0.859375 0.4375 -1.765625 0.4375zm-1.296875 -3.796875q0 0.953125 0.34375 1.390625q0.34375 0.421875 0.953125 0.421875q0.5 0 1.125 -0.34375q0.640625 -0.359375 1.515625 -1.171875l0 -4.25l-1.59375 0.6875q-2.34375 1.015625 -2.34375 3.265625zm10.001892 3.796875q-0.96875 0 -0.96875 -0.96875l0 -22.1875q0 -0.96875 0.96875 -0.96875q1.015625 0 1.015625 0.96875l0 22.1875q0 0.96875 -1.015625 0.96875zm10.785828 0q-0.578125 0 -0.8125 -0.421875q-0.21875 -0.421875 -0.140625 -0.8125l5.765625 -21.4375q0.21875 -0.71875 0.953125 -0.71875q0.796875 0 0.984375 0.734375l5.78125 21.359375q0.1875 0.421875 -0.109375 0.859375q-0.296875 0.4375 -0.828125 0.4375q-0.78125 0 -0.96875 -0.734375l-2.125 -7.875l-5.4375 0l-2.09375 7.875q-0.1875 0.734375 -0.96875 0.734375zm3.609375 -10.59375l4.359375 0l-2.171875 -8.09375l-2.1875 8.09375zm11.044861 10.59375q-0.96875 0 -0.96875 -0.96875l0 -21.453125q0 -0.96875 0.96875 -0.96875l3.421875 0q2.4375 0 3.6875 1.796875q1.265625 1.796875 1.265625 4.453125q0 2.875 -1.5 4.796875q-1.5 1.90625 -4.34375 1.90625q-0.5625 0 -1.171875 -0.078125q-0.59375 -0.09375 -0.578125 -0.328125l0.234375 9.875q0 0.96875 -1.015625 0.96875zm3.421875 -21.40625l-2.40625 0l0 8.8125q0.640625 0.171875 1.515625 0.171875q1.78125 0 2.796875 -1.203125q1.03125 -1.203125 1.03125 -3.515625q0 -1.890625 -0.734375 -3.078125q-0.71875 -1.1875 -2.203125 -1.1875zm7.4901733 21.40625q-0.96875 0 -0.96875 -0.96875l0 -21.453125q0 -0.96875 0.96875 -0.96875q1.015625 0 1.015625 0.96875l0 21.453125q0 0.96875 -1.015625 0.96875z" fill-rule="nonzero"/><path fill="#0f1d3e" d="m743.7937 156.94128q-0.78125 0 -1.375 -0.5625q-0.578125 -0.546875 -0.578125 -1.375l0 -2.90625l2.515625 0.59375l0 0.796875q0 0.375 0.28125 0.65625q0.296875 0.296875 0.671875 0.296875l0.59375 0q0.421875 0 0.6875 -0.296875q0.265625 -0.28125 0.265625 -0.65625l0 -3.203125l-3.0625 0q-0.78125 0 -1.375 -0.5625q-0.578125 -0.5625 -0.578125 -1.390625l0 -9.421875q0 -0.828125 0.578125 -1.390625q0.59375 -0.5625 1.375 -0.5625l5.5625 0l0 18.046875q0 0.828125 -0.5625 1.375q-0.546875 0.5625 -1.375 0.5625l-3.625 0zm1.515625 -9.15625l0.59375 0q0.421875 0 0.6875 -0.296875q0.265625 -0.296875 0.265625 -0.671875l0 -7.359375l-1.546875 0q-0.375 0 -0.671875 0.265625q-0.28125 0.265625 -0.28125 0.703125l0 6.390625q0 0.375 0.28125 0.671875q0.296875 0.296875 0.671875 0.296875zm7.569275 2.5q-0.796875 0 -1.359375 -0.5625q-0.5625 -0.578125 -0.5625 -1.390625l0 -2.203125l2.484375 0l0 0.6875q0 0.40625 0.28125 0.6875q0.296875 0.28125 0.703125 0.28125l0.5625 0q0.390625 0 0.671875 -0.28125q0.28125 -0.28125 0.28125 -0.6875l0 -0.984375q0 -0.390625 -0.28125 -0.671875q-0.28125 -0.28125 -0.671875 -0.28125l-2.109375 0q-0.796875 0 -1.359375 -0.578125q-0.5625 -0.578125 -0.5625 -1.375l0 -4.015625q0 -0.8125 0.5625 -1.375q0.5625 -0.578125 1.359375 -0.578125l3.65625 0q0.796875 0 1.359375 0.578125q0.5625 0.5625 0.5625 1.375l0 2.203125l-2.515625 0l0 -0.6875q0 -0.40625 -0.28125 -0.6875q-0.28125 -0.28125 -0.671875 -0.28125l-0.5625 0q-0.40625 0 -0.703125 0.28125q-0.28125 0.28125 -0.28125 0.6875l0 0.984375q0 0.390625 0.28125 0.671875q0.296875 0.28125 0.703125 0.28125l2.109375 0q0.796875 0 1.359375 0.578125q0.5625 0.578125 0.5625 1.375l0 4.125q-0.03125 0.75 -0.59375 1.296875q-0.5625 0.546875 -1.328125 0.546875l-3.65625 0zm7.1676636 6.65625l0 -19.984375l5.578125 0q0.828125 0 1.375 0.5625q0.5625 0.5625 0.5625 1.390625l0 9.421875q0 0.828125 -0.5625 1.390625q-0.546875 0.5625 -1.375 0.5625l-3.0625 0l0 6.65625l-2.515625 0zm2.515625 -9.15625l1.546875 0q0.359375 0 0.65625 -0.296875q0.296875 -0.296875 0.296875 -0.671875l0 -6.375q0 -0.453125 -0.296875 -0.71875q-0.296875 -0.265625 -0.65625 -0.265625l-1.546875 0l0 8.328125zm6.3339233 2.5l0 -13.328125l5.578125 0q0.796875 0 1.359375 0.578125q0.578125 0.5625 0.578125 1.375l0 2.890625l-2.5 -0.546875l0 -0.8125q0 -0.390625 -0.28125 -0.6875q-0.28125 -0.296875 -0.671875 -0.296875l-1.546875 0l0 10.828125l-2.515625 0zm10.53595 0q-0.796875 0 -1.375 -0.5625q-0.578125 -0.578125 -0.578125 -1.390625l0 -9.453125q0 -0.796875 0.578125 -1.359375q0.578125 -0.5625 1.375 -0.5625l3.625 0q0.828125 0 1.375 0.5625q0.5625 0.5625 0.5625 1.359375l0 4.046875q0 0.796875 -0.5625 1.375q-0.546875 0.578125 -1.375 0.578125l-3.0625 0l0 1.9375q0 0.40625 0.265625 0.6875q0.28125 0.28125 0.71875 0.28125l3.46875 0l0.546875 2.5l-5.5625 0zm0.5625 -7.921875l1.546875 0q0.390625 0 0.671875 -0.28125q0.28125 -0.28125 0.28125 -0.671875l0 -0.984375q0 -0.40625 -0.28125 -0.6875q-0.28125 -0.28125 -0.671875 -0.28125l-0.5625 0q-0.4375 0 -0.71875 0.28125q-0.265625 0.28125 -0.265625 0.6875l0 1.9375zm8.287048 7.921875q-0.796875 0 -1.375 -0.5625q-0.578125 -0.5625 -0.578125 -1.390625l0 -4.015625q0 -0.796875 0.578125 -1.375q0.578125 -0.578125 1.375 -0.578125l2.078125 0q0.421875 0 0.703125 -0.28125q0.28125 -0.28125 0.28125 -0.671875l0 -0.984375q0 -0.40625 -0.28125 -0.6875q-0.28125 -0.28125 -0.703125 -0.28125l-2.875 0l0.546875 -2.5l3.875 0q0.796875 0 1.359375 0.578125q0.578125 0.5625 0.578125 1.375l0 11.375l-5.5625 0zm1.515625 -2.5l1.546875 0l0 -2.90625l-1.546875 0q-0.40625 0 -0.6875 0.28125q-0.265625 0.28125 -0.265625 0.671875l0 0.984375q0 0.40625 0.265625 0.6875q0.28125 0.28125 0.6875 0.28125zm7.8671875 2.5q-0.828125 0 -1.390625 -0.5625q-0.5625 -0.5625 -0.5625 -1.390625l0 -9.421875q0 -0.828125 0.5625 -1.390625q0.5625 -0.5625 1.390625 -0.5625l3.0625 0l0 -6.078125l2.5 -0.578125l0 19.984375l-5.5625 0zm1.515625 -2.5l1.546875 0l0 -8.328125l-1.546875 0q-0.375 0 -0.671875 0.265625q-0.28125 0.265625 -0.28125 0.703125l0 6.390625q0 0.375 0.28125 0.671875q0.296875 0.296875 0.671875 0.296875z" fill-rule="nonzero"/><path fill="#fff2cc" d="m101.125984 230.7874l0 0c0 -30.127777 51.1735 -54.551178 114.29922 -54.551178l0 0c63.1257 0 114.299194 24.4234 114.299194 54.551178l0 0c0 30.127792 -51.173492 54.551193 -114.299194 54.551193l0 0c-63.125717 0 -114.29922 -24.4234 -114.29922 -54.551193z" fill-rule="evenodd"/><path stroke="#0f1d3e" stroke-width="1.0" stroke-linejoin="round" stroke-linecap="butt" d="m101.125984 230.7874l0 0c0 -30.127777 51.1735 -54.551178 114.29922 -54.551178l0 0c63.1257 0 114.299194 24.4234 114.299194 54.551178l0 0c0 30.127792 -51.173492 54.551193 -114.299194 54.551193l0 0c-63.125717 0 -114.29922 -24.4234 -114.29922 -54.551193z" fill-rule="evenodd"/><path fill="#0f1d3e" d="m159.85992 242.5074q-0.984375 0 -0.984375 -0.96875l0 -9.5625l-5.140625 -11.453125q-0.34375 -0.703125 0.109375 -1.03125q0.453125 -0.34375 0.796875 -0.34375q0.8125 0 0.921875 0.65625l4.328125 9.578125l4.359375 -9.671875q0.28125 -0.5625 0.890625 -0.5625q0.40625 0 0.796875 0.34375q0.390625 0.34375 0.125 1.015625l-5.203125 11.53125l0 9.5q0 0.96875 -1.0 0.96875zm9.111282 0.15625q-1.390625 0 -2.359375 -1.15625q-0.953125 -1.171875 -1.453125 -3.046875q-0.484375 -1.875 -0.484375 -4.25q0 -2.390625 0.484375 -4.25q0.5 -1.859375 1.453125 -3.015625q0.96875 -1.171875 2.359375 -1.171875q1.40625 0 2.359375 1.1875q0.953125 1.171875 1.46875 3.03125q0.515625 1.84375 0.515625 4.21875q0 2.359375 -0.515625 4.234375q-0.515625 1.859375 -1.46875 3.046875q-0.953125 1.171875 -2.359375 1.171875zm0 -1.984375q0.546875 0 1.078125 -0.734375q0.53125 -0.75 0.890625 -2.25q0.359375 -1.515625 0.359375 -3.484375q0 -1.984375 -0.359375 -3.46875q-0.359375 -1.5 -0.890625 -2.234375q-0.53125 -0.75 -1.078125 -0.75q-0.5 0 -1.03125 0.75q-0.53125 0.734375 -0.890625 2.234375q-0.359375 1.484375 -0.359375 3.46875q0 1.96875 0.359375 3.484375q0.359375 1.5 0.890625 2.25q0.53125 0.734375 1.03125 0.734375zm9.216141 1.984375q-3.3125 0 -3.3125 -4.203125l0 -11.546875q0 -0.984375 1.015625 -0.984375q0.96875 0 0.96875 0.984375l0 11.546875q0 1.328125 0.34375 1.78125q0.34375 0.4375 0.984375 0.4375q0.765625 0 1.375 -0.484375q0.609375 -0.484375 0.953125 -1.109375l0 -12.171875q0 -0.984375 1.0 -0.984375q0.984375 0 0.984375 0.984375l0 14.625q0 0.96875 -0.984375 0.96875q-1.0 0 -1.0 -0.96875l0.3125 -0.140625q0.15625 0.3125 -0.71875 0.796875q-0.875 0.46875 -1.921875 0.46875zm7.8083954 -0.15625q-0.96875 0 -0.96875 -0.96875l0 -14.625q0 -0.984375 0.96875 -0.984375q1.015625 0 1.015625 0.984375l-0.3125 0.125q-0.15625 -0.3125 0.71875 -0.78125q0.875 -0.484375 1.90625 -0.484375q3.3125 0 3.3125 4.4375q0 1.03125 -0.96875 1.03125q-1.015625 0 -1.015625 -1.03125q0 -1.515625 -0.34375 -1.984375q-0.34375 -0.46875 -0.984375 -0.46875q-0.75 0 -1.359375 0.484375q-0.609375 0.484375 -0.953125 1.109375l0 12.1875q0 0.96875 -1.015625 0.96875zm19.231537 0.15625q-1.390625 0 -2.359375 -1.15625q-0.953125 -1.171875 -1.453125 -3.046875q-0.484375 -1.875 -0.484375 -4.25q0 -2.390625 0.484375 -4.25q0.5 -1.859375 1.453125 -3.015625q0.96875 -1.171875 2.359375 -1.171875q1.40625 0 2.359375 1.1875q0.953125 1.171875 1.46875 3.03125q0.515625 1.84375 0.515625 4.21875q0 2.359375 -0.515625 4.234375q-0.515625 1.859375 -1.46875 3.046875q-0.953125 1.171875 -2.359375 1.171875zm0 -1.984375q0.546875 0 1.078125 -0.734375q0.53125 -0.75 0.890625 -2.25q0.359375 -1.515625 0.359375 -3.484375q0 -1.984375 -0.359375 -3.46875q-0.359375 -1.5 -0.890625 -2.234375q-0.53125 -0.75 -1.078125 -0.75q-0.5 0 -1.03125 0.75q-0.53125 0.734375 -0.890625 2.234375q-0.359375 1.484375 -0.359375 3.46875q0 1.96875 0.359375 3.484375q0.359375 1.5 0.890625 2.25q0.53125 0.734375 1.03125 0.734375zm7.368637 1.828125q-0.828125 0 -1.015625 -0.875l-1.25 -14.625q-0.203125 -1.078125 0.984375 -1.078125q0.828125 0 1.0 0.890625l1.078125 12.25q0.109375 -0.140625 0.84375 -1.203125q0.734375 -1.0625 1.015625 -1.5625q-0.375 -0.8125 -0.5625 -1.703125q-0.1875 -0.90625 -0.1875 -1.703125q0 -1.359375 0.40625 -2.328125q0.421875 -0.984375 1.46875 -0.984375q1.03125 0 1.4375 0.984375q0.421875 0.96875 0.421875 2.328125q0 0.796875 -0.1875 1.703125q-0.1875 0.890625 -0.5625 1.703125q0.28125 0.5 1.015625 1.5625q0.734375 1.0625 0.84375 1.203125l1.078125 -12.25q0.171875 -0.890625 1.0 -0.890625q1.1875 0 0.984375 1.078125l-1.25 14.625q-0.1875 0.875 -1.015625 0.875q-0.03125 0 -0.296875 0q-0.25 0 -0.53125 -0.375q-1.25 -1.4375 -2.109375 -2.609375q-0.84375 -1.1875 -0.828125 -1.234375q0 0.046875 -0.859375 1.234375q-0.84375 1.171875 -2.09375 2.609375q-0.28125 0.375 -0.53125 0.375q-0.234375 0 -0.296875 0zm3.890625 -9.609375q0 0.5 0.09375 1.0625q0.109375 0.5625 -0.203125 0.625q-0.328125 -0.046875 -0.234375 -0.609375q0.109375 -0.578125 0.109375 -1.078125q0 -0.765625 0.0625 -1.25q0.0625 -0.484375 0.0625 -0.046875q0 -0.421875 0.046875 0.0625q0.0625 0.46875 0.0625 1.234375zm8.453278 9.609375q-0.96875 0 -0.96875 -0.96875l0 -14.625q0 -0.984375 0.96875 -0.984375q1.015625 0 1.015625 0.984375l-0.3125 0.125q-0.15625 -0.3125 0.71875 -0.78125q0.875 -0.484375 1.90625 -0.484375q3.3125 0 3.3125 4.203125l0 11.5625q0 0.96875 -1.0 0.96875q-0.984375 0 -0.984375 -0.96875l0 -11.5625q0 -1.34375 -0.34375 -1.78125q-0.34375 -0.4375 -0.984375 -0.4375q-0.75 0 -1.359375 0.484375q-0.609375 0.484375 -0.953125 1.109375l0 12.1875q0 0.96875 -1.015625 0.96875zm20.191544 0.15625q-1.390625 0 -2.359375 -1.15625q-0.953125 -1.171875 -1.453125 -3.046875q-0.484375 -1.875 -0.484375 -4.25q0 -2.390625 0.484375 -4.25q0.5 -1.859375 1.453125 -3.015625q0.96875 -1.171875 2.359375 -1.171875q1.3125 0 2.1875 0.953125q0.890625 0.953125 1.390625 2.4375q0.125 0.421875 -0.0625 0.921875q-0.171875 0.484375 -0.859375 0.484375q-0.71875 0 -0.96875 -0.734375q-0.328125 -1.015625 -0.765625 -1.546875q-0.421875 -0.53125 -0.921875 -0.53125q-0.5 0 -1.03125 0.75q-0.53125 0.734375 -0.890625 2.234375q-0.359375 1.484375 -0.359375 3.46875q0 1.96875 0.359375 3.484375q0.359375 1.5 0.890625 2.25q0.53125 0.734375 1.03125 0.734375q0.5 0 0.921875 -0.53125q0.4375 -0.53125 0.765625 -1.578125q0.25 -0.734375 0.96875 -0.734375q0.6875 0 0.859375 0.5q0.1875 0.484375 0.0625 0.90625q-0.5 1.515625 -1.390625 2.46875q-0.875 0.953125 -2.1875 0.953125zm9.120026 0q-1.390625 0 -2.359375 -1.15625q-0.953125 -1.171875 -1.453125 -3.046875q-0.484375 -1.875 -0.484375 -4.25q0 -2.390625 0.484375 -4.25q0.5 -1.859375 1.453125 -3.015625q0.96875 -1.171875 2.359375 -1.171875q1.40625 0 2.3593903 1.1875q0.953125 1.171875 1.46875 3.03125q0.515625 1.84375 0.515625 4.21875q0 2.359375 -0.515625 4.234375q-0.515625 1.859375 -1.46875 3.046875q-0.95314026 1.171875 -2.3593903 1.171875zm0 -1.984375q0.546875 0 1.078125 -0.734375q0.53125 -0.75 0.89064026 -2.25q0.359375 -1.515625 0.359375 -3.484375q0 -1.984375 -0.359375 -3.46875q-0.35939026 -1.5 -0.89064026 -2.234375q-0.53125 -0.75 -1.078125 -0.75q-0.5 0 -1.03125 0.75q-0.53125 0.734375 -0.890625 2.234375q-0.359375 1.484375 -0.359375 3.46875q0 1.96875 0.359375 3.484375q0.359375 1.5 0.890625 2.25q0.53125 0.734375 1.03125 0.734375zm12.583023 1.828125q0.96875 0 0.96875 -0.96875l0 -22.1875q0 -0.96875 -0.96875 -0.96875q-1.015625 0 -1.015625 0.96875l0.140625 6.78125q-0.09375 -0.359375 -1.78125 -0.359375q-1.453125 0 -2.34375 1.203125q-0.890625 1.1875 -1.28125 3.046875q-0.390625 1.84375 -0.390625 4.1875q0 2.328125 0.390625 4.203125q0.390625 1.859375 1.28125 3.0625q0.890625 1.1875 2.34375 1.1875q1.6875 0 2.015625 -1.125l-0.375 0q0 0.96875 1.015625 0.96875zm-2.65625 -14.75q0.390625 0 0.875 0.359375q0.484375 0.359375 0.765625 0.96875l0 10.25q-0.296875 0.625 -0.78125 0.984375q-0.46875 0.359375 -0.859375 0.359375q-0.546875 0 -1.0 -0.71875q-0.453125 -0.71875 -0.734375 -2.234375q-0.265625 -1.53125 -0.265625 -3.515625q0 -2.0 0.265625 -3.5q0.28125 -1.5 0.734375 -2.21875q0.453125 -0.734375 1.0 -0.734375zm9.879791 14.90625q-1.375 0 -2.375 -1.171875q-1.0 -1.1875 -1.5 -3.0625q-0.484375 -1.875 -0.484375 -4.21875q0 -2.359375 0.484375 -4.234375q0.5 -1.875 1.453125 -3.03125q0.96875 -1.171875 2.359375 -1.171875q1.296875 0 2.15625 0.984375q0.875 0.96875 1.296875 2.515625q0.4375 1.546875 0.4375 3.453125q0 1.171875 -1.171875 1.171875l-5.140625 -0.140625q0.140625 -0.015625 0.140625 0.453125q0 1.96875 0.359375 3.484375q0.359375 1.5 0.90625 2.25q0.546875 0.734375 1.078125 0.734375q0.53125 0 0.984375 -0.53125q0.453125 -0.53125 0.765625 -1.578125q0.25 -0.734375 0.984375 -0.734375q0.671875 0 0.84375 0.5q0.1875 0.484375 0.0625 0.90625q-0.5 1.515625 -1.390625 2.46875q-0.875 0.953125 -2.25 0.953125zm-0.0625 -14.90625q-0.671875 0 -1.34375 1.296875q-0.671875 1.296875 -0.8125 2.859375l4.046875 0q-0.046875 -1.53125 -0.625 -2.84375q-0.5625 -1.3125 -1.265625 -1.3125z" fill-rule="nonzero"/><path fill="#fff2cc" d="m377.0866 230.7874l0 0c0 -30.127777 55.446198 -54.551178 123.84253 -54.551178l0 0c68.3963 0 123.84253 24.4234 123.84253 54.551178l0 0c0 30.127792 -55.446228 54.551193 -123.84253 54.551193l0 0c-68.39633 0 -123.84253 -24.4234 -123.84253 -54.551193z" fill-rule="evenodd"/><path stroke="#0f1d3e" stroke-width="1.0" stroke-linejoin="round" stroke-linecap="butt" stroke-dasharray="1.0,3.0" d="m377.0866 230.7874l0 0c0 -30.127777 55.446198 -54.551178 123.84253 -54.551178l0 0c68.3963 0 123.84253 24.4234 123.84253 54.551178l0 0c0 30.127792 -55.446228 54.551193 -123.84253 54.551193l0 0c-68.39633 0 -123.84253 -24.4234 -123.84253 -54.551193z" fill-rule="evenodd"/><path fill="#0f1d3e" d="m430.25336 226.5074q-0.578125 0 -0.8125 -0.421875q-0.21875 -0.421875 -0.140625 -0.8125l5.765625 -21.4375q0.21875 -0.71875 0.953125 -0.71875q0.796875 0 0.984375 0.734375l5.78125 21.359375q0.1875 0.421875 -0.109375 0.859375q-0.296875 0.4375 -0.828125 0.4375q-0.78125 0 -0.96875 -0.734375l-2.125 -7.875l-5.4375 0l-2.09375 7.875q-0.1875 0.734375 -0.96875 0.734375zm3.609375 -10.59375l4.359375 0l-2.171875 -8.09375l-2.1875 8.09375zm11.044922 10.59375q-0.96875 0 -0.96875 -0.96875l0 -22.1875q0 -0.96875 0.96875 -0.96875q1.015625 0 1.015625 0.96875l-0.140625 6.78125q0.09375 -0.359375 1.78125 -0.359375q1.453125 0 2.34375 1.203125q0.890625 1.1875 1.28125 3.046875q0.390625 1.84375 0.390625 4.1875q0 2.328125 -0.390625 4.203125q-0.390625 1.859375 -1.28125 3.0625q-0.890625 1.1875 -2.34375 1.1875q-1.6875 0 -2.015625 -1.125l0.375 0q0 0.96875 -1.015625 0.96875zm2.65625 -14.75q-0.390625 0 -0.875 0.359375q-0.484375 0.359375 -0.765625 0.96875l0 10.25q0.296875 0.625 0.765625 0.984375q0.484375 0.359375 0.875 0.359375q0.546875 0 1.0 -0.71875q0.453125 -0.71875 0.71875 -2.234375q0.28125 -1.53125 0.28125 -3.515625q0 -2.0 -0.28125 -3.5q-0.265625 -1.5 -0.71875 -2.21875q-0.453125 -0.734375 -1.0 -0.734375zm8.801636 14.75q-1.53125 0 -2.65625 -1.03125q-1.125 -1.03125 -1.34375 -2.53125q-0.109375 -0.484375 0.21875 -0.8125q0.34375 -0.328125 0.78125 -0.328125q0.78125 0 0.953125 0.8125q0.125 0.828125 0.703125 1.375q0.578125 0.53125 1.34375 0.53125q0.4375 0 0.875 -0.1875q0.4375 -0.1875 0.734375 -0.640625q0.296875 -0.46875 0.296875 -1.296875q0 -0.96875 -0.453125 -1.65625q-0.4375 -0.703125 -1.28125 -1.34375l-0.703125 -0.546875q-1.5625 -1.234375 -2.28125 -2.40625q-0.71875 -1.1875 -0.71875 -2.65625q0 -1.890625 1.15625 -2.875q1.15625 -0.984375 2.46875 -0.984375q1.15625 0 2.015625 0.65625q0.875 0.640625 1.296875 1.6875q0.234375 0.390625 -0.03125 0.90625q-0.265625 0.5 -0.84375 0.5q-0.640625 0 -0.90625 -0.59375q-0.515625 -1.171875 -1.53125 -1.171875q-0.703125 0 -1.15625 0.46875q-0.453125 0.453125 -0.453125 1.40625q0 1.0 0.453125 1.71875q0.453125 0.71875 1.765625 1.765625l0.765625 0.609375q1.078125 0.828125 1.765625 1.921875q0.6875 1.09375 0.6875 2.59375q0 1.828125 -1.125 2.96875q-1.109375 1.140625 -2.796875 1.140625zm9.44278 0q-1.703125 0 -2.546875 -0.828125q-0.828125 -0.84375 -0.828125 -2.703125l0 -10.734375l-1.515625 0q-0.984375 0 -0.984375 -1.015625q0 -0.96875 0.984375 -0.96875l1.515625 0l0 -3.375q0 -0.984375 1.015625 -0.984375q0.96875 0 0.96875 0.984375l0 3.375l1.515625 0q0.984375 0 0.984375 0.96875q0 1.015625 -0.984375 1.015625l-1.515625 0l0 10.703125q0 1.015625 0.25 1.296875q0.265625 0.28125 1.140625 0.28125q1.015625 0 1.015625 0.96875q0 1.015625 -1.015625 1.015625zm3.483368 0q-0.96875 0 -0.96875 -0.96875l0 -14.625q0 -0.984375 0.96875 -0.984375q1.015625 0 1.015625 0.984375l-0.3125 0.125q-0.15625 -0.3125 0.71875 -0.78125q0.875 -0.484375 1.90625 -0.484375q3.3125 0 3.3125 4.4375q0 1.03125 -0.96875 1.03125q-1.015625 0 -1.015625 -1.03125q0 -1.515625 -0.34375 -1.984375q-0.34375 -0.46875 -0.984375 -0.46875q-0.75 0 -1.359375 0.484375q-0.609375 0.484375 -0.953125 1.109375l0 12.1875q0 0.96875 -1.015625 0.96875zm10.239014 0q-1.5 0 -2.40625 -1.0625q-0.90625 -1.0625 -0.90625 -2.734375q0 -3.515625 3.53125 -5.078125l2.421875 -1.046875l0 -2.609375q0 -2.21875 -1.328125 -2.21875q-1.15625 0 -2.125 1.609375q-0.28125 0.46875 -0.8125 0.46875q-1.015625 0 -1.015625 -0.96875q0 -0.296875 0.171875 -0.5625q1.40625 -2.53125 3.78125 -2.53125q3.3125 0 3.3125 4.203125l0 10.46875q-0.078125 0.15625 -0.078125 0.078125q0.0625 0 0.078125 -0.03125q0.296875 -0.28125 0.6875 -0.28125q1.015625 0 1.015625 1.0q0 0.390625 -0.28125 0.6875q-0.625 0.609375 -1.5 0.609375q-1.90625 0 -1.90625 -2.0625l0.5 0q-0.5 1.1875 -1.375 1.625q-0.859375 0.4375 -1.765625 0.4375zm-1.296875 -3.796875q0 0.953125 0.34375 1.390625q0.34375 0.421875 0.953125 0.421875q0.5 0 1.125 -0.34375q0.640625 -0.359375 1.515625 -1.171875l0 -4.25l-1.59375 0.6875q-2.34375 1.015625 -2.34375 3.265625zm12.689392 3.953125q-1.390625 0 -2.359375 -1.15625q-0.953125 -1.171875 -1.453125 -3.046875q-0.484375 -1.875 -0.484375 -4.25q0 -2.390625 0.484375 -4.25q0.5 -1.859375 1.453125 -3.015625q0.96875 -1.171875 2.359375 -1.171875q1.3125 0 2.1875 0.953125q0.890625 0.953125 1.390625 2.4375q0.125 0.421875 -0.0625 0.921875q-0.171875 0.484375 -0.859375 0.484375q-0.71875 0 -0.96875 -0.734375q-0.328125 -1.015625 -0.765625 -1.546875q-0.421875 -0.53125 -0.921875 -0.53125q-0.5 0 -1.03125 0.75q-0.53125 0.734375 -0.890625 2.234375q-0.359375 1.484375 -0.359375 3.46875q0 1.96875 0.359375 3.484375q0.359375 1.5 0.890625 2.25q0.53125 0.734375 1.03125 0.734375q0.5 0 0.921875 -0.53125q0.4375 -0.53125 0.765625 -1.578125q0.25 -0.734375 0.96875 -0.734375q0.6875 0 0.859375 0.5q0.1875 0.484375 0.0625 0.90625q-0.5 1.515625 -1.390625 2.46875q-0.875 0.953125 -2.1875 0.953125zm8.933136 -0.15625q-1.703125 0 -2.546875 -0.828125q-0.828125 -0.84375 -0.828125 -2.703125l0 -10.734375l-1.515625 0q-0.984375 0 -0.984375 -1.015625q0 -0.96875 0.984375 -0.96875l1.515625 0l0 -3.375q0 -0.984375 1.015625 -0.984375q0.96875 0 0.96875 0.984375l0 3.375l1.515625 0q0.984375 0 0.984375 0.96875q0 1.015625 -0.984375 1.015625l-1.515625 0l0 10.703125q0 1.015625 0.25 1.296875q0.265625 0.28125 1.140625 0.28125q1.015625 0 1.015625 0.96875q0 1.015625 -1.015625 1.015625zm3.4833984 -16.984375q-0.96875 0 -0.96875 -0.984375l0 -3.171875q0 -0.96875 0.96875 -0.96875q1.015625 0 1.015625 0.96875l0 3.171875q0 0.984375 -1.015625 0.984375zm0 16.984375q-0.96875 0 -0.96875 -0.96875l0 -14.625q0 -0.984375 0.96875 -0.984375q1.015625 0 1.015625 0.984375l0 14.625q0 0.96875 -1.015625 0.96875zm7.1994934 0.15625q-1.390625 0 -2.359375 -1.15625q-0.953125 -1.171875 -1.453125 -3.046875q-0.484375 -1.875 -0.484375 -4.25q0 -2.390625 0.484375 -4.25q0.5 -1.859375 1.453125 -3.015625q0.96875 -1.171875 2.359375 -1.171875q1.40625 0 2.359375 1.1875q0.953125 1.171875 1.46875 3.03125q0.515625 1.84375 0.515625 4.21875q0 2.359375 -0.515625 4.234375q-0.515625 1.859375 -1.46875 3.046875q-0.953125 1.171875 -2.359375 1.171875zm0 -1.984375q0.546875 0 1.078125 -0.734375q0.53125 -0.75 0.890625 -2.25q0.359375 -1.515625 0.359375 -3.484375q0 -1.984375 -0.359375 -3.46875q-0.359375 -1.5 -0.890625 -2.234375q-0.53125 -0.75 -1.078125 -0.75q-0.5 0 -1.03125 0.75q-0.53125 0.734375 -0.890625 2.234375q-0.359375 1.484375 -0.359375 3.46875q0 1.96875 0.359375 3.484375q0.359375 1.5 0.890625 2.25q0.53125 0.734375 1.03125 0.734375zm7.2005005 1.828125q-0.96875 0 -0.96875 -0.96875l0 -14.625q0 -0.984375 0.96875 -0.984375q1.015625 0 1.015625 0.984375l-0.3125 0.125q-0.15625 -0.3125 0.71875 -0.78125q0.875 -0.484375 1.90625 -0.484375q3.3125 0 3.3125 4.203125l0 11.5625q0 0.96875 -1.0 0.96875q-0.984375 0 -0.984375 -0.96875l0 -11.5625q0 -1.34375 -0.34375 -1.78125q-0.34375 -0.4375 -0.984375 -0.4375q-0.75 0 -1.359375 0.484375q-0.609375 0.484375 -0.953125 1.109375l0 12.1875q0 0.96875 -1.015625 0.96875zm17.50409 0q-0.96875 0 -0.96875 -0.96875l0 -22.1875q0 -0.96875 0.96875 -0.96875q1.015625 0 1.015625 0.96875l0 22.1875q0 0.96875 -1.015625 0.96875zm5.886963 0q-1.5 0 -2.40625 -1.0625q-0.90625 -1.0625 -0.90625 -2.734375q0 -3.515625 3.53125 -5.078125l2.421875 -1.046875l0 -2.609375q0 -2.21875 -1.328125 -2.21875q-1.15625 0 -2.125 1.609375q-0.28125 0.46875 -0.8125 0.46875q-1.015625 0 -1.015625 -0.96875q0 -0.296875 0.171875 -0.5625q1.40625 -2.53125 3.78125 -2.53125q3.3125 0 3.3125 4.203125l0 10.46875q-0.078125 0.15625 -0.078125 0.078125q0.0625 0 0.078125 -0.03125q0.296875 -0.28125 0.6875 -0.28125q1.015625 0 1.015625 1.0q0 0.390625 -0.28125 0.6875q-0.625 0.609375 -1.5 0.609375q-1.90625 0 -1.90625 -2.0625l0.5 0q-0.5 1.1875 -1.375 1.625q-0.859375 0.4375 -1.765625 0.4375zm-1.296875 -3.796875q0 0.953125 0.34375 1.390625q0.34375 0.421875 0.953125 0.421875q0.5 0 1.125 -0.34375q0.640625 -0.359375 1.515625 -1.171875l0 -4.25l-1.59375 0.6875q-2.34375 1.015625 -2.34375 3.265625zm7.416931 9.78125q-1.015625 0 -1.015625 -1.015625q0 -0.96875 1.015625 -0.96875q0.953125 0 1.4375 -0.34375q0.484375 -0.34375 0.734375 -1.390625l0.765625 -3.171875l-3.546875 -14.453125q-0.09375 -0.484375 0.1875 -0.84375q0.28125 -0.375 0.765625 -0.375q0.78125 0 0.96875 0.75l2.65625 10.8125l2.625 -10.8125q0.1875 -0.75 0.953125 -0.75q0.4375 0 0.78125 0.375q0.359375 0.375 0.171875 0.890625l-3.03125 12.34375l0 0l-1.34375 5.578125q-0.4375 1.8125 -1.453125 2.59375q-1.015625 0.78125 -2.671875 0.78125zm13.494995 -5.828125q-1.375 0 -2.375 -1.171875q-1.0 -1.1875 -1.5 -3.0625q-0.484375 -1.875 -0.484375 -4.21875q0 -2.359375 0.484375 -4.234375q0.5 -1.875 1.453125 -3.03125q0.96875 -1.171875 2.359375 -1.171875q1.296875 0 2.15625 0.984375q0.875 0.96875 1.296875 2.515625q0.4375 1.546875 0.4375 3.453125q0 1.171875 -1.171875 1.171875l-5.140625 -0.140625q0.140625 -0.015625 0.140625 0.453125q0 1.96875 0.359375 3.484375q0.359375 1.5 0.90625 2.25q0.546875 0.734375 1.078125 0.734375q0.53125 0 0.984375 -0.53125q0.453125 -0.53125 0.765625 -1.578125q0.25 -0.734375 0.984375 -0.734375q0.671875 0 0.84375 0.5q0.1875 0.484375 0.0625 0.90625q-0.5 1.515625 -1.390625 2.46875q-0.875 0.953125 -2.25 0.953125zm-0.0625 -14.90625q-0.671875 0 -1.34375 1.296875q-0.671875 1.296875 -0.8125 2.859375l4.046875 0q-0.046875 -1.53125 -0.625 -2.84375q-0.5625 -1.3125 -1.265625 -1.3125zm6.432556 14.75q-0.96875 0 -0.96875 -0.96875l0 -14.625q0 -0.984375 0.96875 -0.984375q1.015625 0 1.015625 0.984375l-0.3125 0.125q-0.15625 -0.3125 0.71875 -0.78125q0.875 -0.484375 1.90625 -0.484375q3.3125 0 3.3125 4.4375q0 1.03125 -0.96875 1.03125q-1.015625 0 -1.015625 -1.03125q0 -1.515625 -0.34375 -1.984375q-0.34375 -0.46875 -0.984375 -0.46875q-0.75 0 -1.359375 0.484375q-0.609375 0.484375 -0.953125 1.109375l0 12.1875q0 0.96875 -1.015625 0.96875z" fill-rule="nonzero"/><path fill="#0f1d3e" d="m451.384 259.41864l3.75 -18.656235l2.421875 0l3.703125 18.656235l-2.46875 0l-0.71875 -3.4999847l-3.546875 0l-0.671875 3.4999847l-2.46875 0zm3.625 -5.9531097l2.625 0l-1.265625 -6.640625l-1.359375 6.640625zm7.9662476 5.9218597l0 -18.656235l8.0 0q0.765625 0 1.328125 0.5625q0.578125 0.546875 0.578125 1.359375l0 5.71875q0 0.8125 -0.578125 1.375q-0.5625 0.546875 -1.328125 0.546875l-5.53125 0l0 9.093735l-2.46875 0zm2.46875 -11.562485l4.0 0q0.40625 0 0.6875 -0.28125q0.28125 -0.28125 0.28125 -0.6875l0 -2.71875q0 -0.375 -0.28125 -0.65625q-0.28125 -0.28125 -0.6875 -0.28125l-4.0 0l0 4.625zm10.752716 11.562485l0 -18.656235l2.46875 0l0 18.656235l-2.46875 0zm10.342377 0q-0.828125 0 -1.390625 -0.5625q-0.5625 -0.578125 -0.5625 -1.390625l0 -9.42186q0 -0.8125 0.5625 -1.375q0.5625 -0.578125 1.390625 -0.578125l3.625 0q0.796875 0 1.359375 0.578125q0.578125 0.5625 0.578125 1.375l0 2.890625l-2.5 0l0 -1.375q0 -0.40625 -0.296875 -0.6875q-0.296875 -0.28125 -0.6875 -0.28125l-0.5625 0q-0.40625 0 -0.6875 0.28125q-0.265625 0.28125 -0.265625 0.6875l0 6.390625q0 0.40623474 0.265625 0.68748474q0.28125 0.28125 0.6875 0.28125l0.5625 0q0.390625 0 0.6875 -0.28125q0.296875 -0.28125 0.296875 -0.68748474l0 -1.375l2.5 0l0 2.8906097q0 0.8125 -0.578125 1.390625q-0.5625 0.5625 -1.359375 0.5625l-3.625 0zm9.052643 0q-0.8125 0 -1.375 -0.5625q-0.5625 -0.578125 -0.5625 -1.390625l0 -9.42186q0 -0.8125 0.5625 -1.375q0.5625 -0.578125 1.375 -0.578125l3.625 0q0.8125 0 1.359375 0.578125q0.5625 0.5625 0.5625 1.375l0 9.42186q0 0.8125 -0.5625 1.390625q-0.546875 0.5625 -1.359375 0.5625l-3.625 0zm1.53125 -2.5l0.546875 0q0.40625 0 0.703125 -0.28125q0.296875 -0.28125 0.296875 -0.68748474l0 -6.390625q0 -0.40625 -0.296875 -0.6875q-0.296875 -0.28125 -0.703125 -0.28125l-0.546875 0q-0.40625 0 -0.6875 0.28125q-0.28125 0.28125 -0.28125 0.6875l0 6.390625q0 0.40623474 0.28125 0.68748474q0.28125 0.28125 0.6875 0.28125zm5.7502747 2.5l0 -13.32811l5.578125 0q0.765625 0 1.34375 0.5625q0.59375 0.5625 0.59375 1.359375l0 11.406235l-2.5 0l0 -9.85936q0 -0.4375 -0.296875 -0.703125q-0.296875 -0.265625 -0.671875 -0.265625l-1.546875 0l0 10.82811l-2.5 0zm9.220917 0l0 -19.406235l2.515625 -0.5625l0 6.640625l3.171875 0l-0.59375 2.5l-2.578125 0l0 10.82811l-2.515625 0zm6.477234 0l0 -13.32811l5.578125 0q0.796875 0 1.359375 0.578125q0.578125 0.5625 0.578125 1.375l0 2.890625l-2.5 -0.546875l0 -0.8125q0 -0.390625 -0.28125 -0.6875q-0.28125 -0.296875 -0.671875 -0.296875l-1.546875 0l0 10.82811l-2.515625 0zm9.735962 0q-0.796875 0 -1.375 -0.5625q-0.578125 -0.5625 -0.578125 -1.390625l0 -4.0156097q0 -0.796875 0.578125 -1.375q0.578125 -0.578125 1.375 -0.578125l2.078125 0q0.421875 0 0.703125 -0.28125q0.28125 -0.28125 0.28125 -0.671875l0 -0.984375q0 -0.40625 -0.28125 -0.6875q-0.28125 -0.28125 -0.703125 -0.28125l-2.875 0l0.546875 -2.5l3.875 0q0.796875 0 1.359375 0.578125q0.578125 0.5625 0.578125 1.375l0 11.374985l-5.5625 0zm1.515625 -2.5l1.546875 0l0 -2.9062347l-1.546875 0q-0.40625 0 -0.6875 0.28125q-0.265625 0.28125 -0.265625 0.671875l0 0.984375q0 0.40623474 0.265625 0.68748474q0.28125 0.28125 0.6875 0.28125zm7.600586 2.5q-0.828125 0 -1.390625 -0.5625q-0.5625 -0.578125 -0.5625 -1.390625l0 -9.42186q0 -0.8125 0.5625 -1.375q0.5625 -0.578125 1.390625 -0.578125l3.625 0q0.79681396 0 1.359314 0.578125q0.578125 0.5625 0.578125 1.375l0 2.890625l-2.499939 0l0 -1.375q0 -0.40625 -0.296875 -0.6875q-0.296875 -0.28125 -0.6875 -0.28125l-0.5625 0q-0.40625 0 -0.6875 0.28125q-0.265625 0.28125 -0.265625 0.6875l0 6.390625q0 0.40623474 0.265625 0.68748474q0.28125 0.28125 0.6875 0.28125l0.5625 0q0.390625 0 0.6875 -0.28125q0.296875 -0.28125 0.296875 -0.68748474l0 -1.375l2.499939 0l0 2.8906097q0 0.8125 -0.578125 1.390625q-0.5625 0.5625 -1.359314 0.5625l-3.625 0z" fill-rule="nonzero"/><path fill="#000000" d="m545.11993 259.3874l0 -19.406235l2.515625 -0.5625l0 6.640625l3.171875 0l-0.59375 2.5l-2.578125 0l0 10.82811l-2.515625 0z" fill-rule="nonzero"/><path fill="#000000" fill-opacity="0.0" d="m329.7244 230.7874l47.370087 0" fill-rule="evenodd"/><path stroke="#0f1d3e" stroke-width="1.0" stroke-linejoin="round" stroke-linecap="butt" d="m329.7244 230.7874l43.943024 0" fill-rule="evenodd"/><path fill="#0f1d3e" stroke="#0f1d3e" stroke-width="1.0" stroke-linecap="butt" d="m373.6674 230.7874l-1.1245728 1.124588l3.0897827 -1.124588l-3.0897827 -1.124588z" fill-rule="evenodd"/><path fill="#000000" fill-opacity="0.0" d="m691.7163 160.25854l-100.44092 33.007874" fill-rule="evenodd"/><path stroke="#0f1d3e" stroke-width="1.0" stroke-linejoin="round" stroke-linecap="butt" d="m691.7163 160.25854l-97.18518 31.937943" fill-rule="evenodd"/><path fill="#0f1d3e" stroke="#0f1d3e" stroke-width="1.0" stroke-linecap="butt" d="m594.5311 192.19647l0.71728516 -1.4194641l-2.5842285 2.0330048l3.286438 0.10374451z" fill-rule="evenodd"/></g></svg>