<svg version="1.1" viewBox="0.0 0.0 960.0 540.0" fill="none" stroke="none" stroke-linecap="square" stroke-miterlimit="10" xmlns:xlink="http://www.w3.org/1999/xlink" xmlns="http://www.w3.org/2000/svg"><clipPath id="g1316a2c980f_0_7.0"><path d="m0 0l960.0 0l0 540.0l-960.0 0l0 -540.0z" clip-rule="nonzero"/></clipPath><g clip-path="url(#g1316a2c980f_0_7.0)"><path fill="none" d="m0 0l960.0 0l0 540.0l-960.0 0z" fill-rule="evenodd"/><path fill="#fff2cc" d="m514.4444 237.6063l0 0c0 -64.4738 74.42651 -116.74015 166.23627 -116.74015l0 0c91.80969 0 166.2362 52.26635 166.2362 116.74015l0 0c0 64.473816 -74.42651 116.74017 -166.2362 116.74017l0 0c-91.80975 0 -166.23627 -52.266357 -166.23627 -116.74017z" fill-rule="evenodd"/><path stroke="#0f1d3e" stroke-width="1.0" stroke-linejoin="round" stroke-linecap="butt" d="m514.4444 237.6063l0 0c0 -64.4738 74.42651 -116.74015 166.23627 -116.74015l0 0c91.80969 0 166.2362 52.26635 166.2362 116.74015l0 0c0 64.473816 -74.42651 116.74017 -166.2362 116.74017l0 0c-91.80975 0 -166.23627 -52.266357 -166.23627 -116.74017z" fill-rule="evenodd"/><path fill="#0f1d3e" d="m612.01575 231.6263q-1.390625 0 -1.390625 -1.390625l0 -30.375q0 -1.390625 1.390625 -1.390625l8.5625 0q1.390625 0 1.390625 1.390625q0 1.4375 -1.390625 1.4375l-7.125 0l0 11.140625l6.671875 0q1.390625 0 1.390625 1.390625q0 1.4375 -1.390625 1.4375l-6.671875 0l0 13.53125l7.125 0q1.390625 0 1.390625 1.390625q0 1.4375 -1.390625 1.4375l-8.5625 0zm12.240723 0q-0.75 0 -1.1875 -0.609375q-0.421875 -0.609375 -0.140625 -1.3125l3.953125 -10.578125l-3.40625 -9.078125q-0.265625 -0.6875 0.140625 -1.296875q0.40625 -0.625 1.1875 -0.625q0.9375 0 1.328125 0.921875l2.25 6.03125l2.25 -6.03125q0.390625 -0.921875 1.328125 -0.921875q0.78125 0 1.1875 0.625q0.40625 0.609375 0.140625 1.296875l-3.40625 9.078125l3.953125 10.578125q0.28125 0.703125 -0.15625 1.3125q-0.421875 0.609375 -1.171875 0.609375q-0.921875 0 -1.328125 -0.890625l-2.796875 -7.515625l-2.796875 7.515625q-0.40625 0.890625 -1.328125 0.890625zm17.263245 0q-2.421875 0 -3.609375 -1.171875q-1.171875 -1.1875 -1.171875 -3.84375l0 -15.203125l-2.140625 0q-1.390625 0 -1.390625 -1.4375q0 -1.390625 1.390625 -1.390625l2.140625 0l0 -4.765625q0 -1.390625 1.4375 -1.390625q1.390625 0 1.390625 1.390625l0 4.765625l2.140625 0q1.390625 0 1.390625 1.390625q0 1.4375 -1.390625 1.4375l-2.140625 0l0 15.15625q0 1.4375 0.359375 1.84375q0.375 0.390625 1.59375 0.390625q1.4375 0 1.4375 1.390625q0 1.4375 -1.4375 1.4375zm8.398315 0.234375q-1.984375 0 -3.40625 -1.671875q-1.40625 -1.6875 -2.109375 -4.328125q-0.6875 -2.65625 -0.6875 -6.0q0 -3.34375 0.6875 -5.984375q0.703125 -2.65625 2.0625 -4.3125q1.375 -1.65625 3.359375 -1.65625q1.828125 0 3.046875 1.40625q1.234375 1.390625 1.84375 3.578125q0.625 2.171875 0.625 4.875q0 1.671875 -1.671875 1.671875l-7.296875 -0.21875q0.21875 -0.015625 0.21875 0.640625q0 2.78125 0.5 4.921875q0.515625 2.140625 1.28125 3.203125q0.78125 1.046875 1.546875 1.046875q0.734375 0 1.359375 -0.75q0.640625 -0.765625 1.09375 -2.21875q0.359375 -1.078125 1.390625 -1.078125q0.96875 0 1.234375 0.71875q0.265625 0.703125 0.0625 1.296875q-0.6875 2.125 -1.953125 3.5q-1.25 1.359375 -3.1875 1.359375zm-0.09375 -21.125q-0.96875 0 -1.90625 1.84375q-0.9375 1.828125 -1.140625 4.03125l5.703125 0q-0.0625 -2.171875 -0.875 -4.015625q-0.8125 -1.859375 -1.78125 -1.859375zm9.106018 20.890625q-1.390625 0 -1.390625 -1.390625l0 -20.71875q0 -1.390625 1.390625 -1.390625q1.4375 0 1.4375 1.390625l-0.4375 0.171875q-0.25 -0.4375 1.0 -1.109375q1.25 -0.671875 2.71875 -0.671875q4.703125 0 4.703125 6.28125q0 1.484375 -1.390625 1.484375q-1.4375 0 -1.4375 -1.484375q0 -2.140625 -0.5 -2.796875q-0.484375 -0.65625 -1.375 -0.65625q-1.078125 0 -1.953125 0.671875q-0.859375 0.671875 -1.328125 1.5625l0 17.265625q0 1.390625 -1.4375 1.390625zm12.555908 0q-1.390625 0 -1.390625 -1.390625l0 -20.71875q0 -1.390625 1.390625 -1.390625q1.4375 0 1.4375 1.390625l-0.4375 0.171875q-0.25 -0.4375 1.0 -1.109375q1.25 -0.671875 2.71875 -0.671875q4.703125 0 4.703125 5.96875l0 16.359375q0 1.390625 -1.4375 1.390625q-1.390625 0 -1.390625 -1.390625l0 -16.359375q0 -1.890625 -0.484375 -2.515625q-0.484375 -0.625 -1.390625 -0.625q-1.078125 0 -1.953125 0.671875q-0.859375 0.671875 -1.328125 1.5625l0 17.265625q0 1.390625 -1.4375 1.390625zm15.868835 0q-2.15625 0 -3.4375 -1.5q-1.265625 -1.5 -1.265625 -3.875q0 -5.015625 5.0 -7.203125l3.4375 -1.484375l0 -3.6875q0 -3.140625 -1.875 -3.140625q-1.640625 0 -3.015625 2.28125q-0.421875 0.65625 -1.15625 0.65625q-1.4375 0 -1.4375 -1.390625q0 -0.375 0.21875 -0.765625q2.03125 -3.609375 5.390625 -3.609375q4.703125 0 4.703125 5.96875l0 14.8125q-0.125 0.234375 -0.125 0.109375q0.0625 0 0.109375 -0.03125q0.40625 -0.421875 0.96875 -0.421875q1.4375 0 1.4375 1.4375q0 0.578125 -0.40625 0.96875q-0.859375 0.875 -2.109375 0.875q-2.703125 0 -2.703125 -2.9375l0.71875 0q-0.734375 1.6875 -1.953125 2.3125q-1.21875 0.625 -2.5 0.625zm-1.828125 -5.375q0 1.34375 0.484375 1.953125q0.484375 0.59375 1.34375 0.59375q0.703125 0 1.59375 -0.5q0.890625 -0.5 2.140625 -1.640625l0 -6.015625l-2.28125 0.984375q-3.28125 1.421875 -3.28125 4.625zm14.153381 5.375q-1.390625 0 -1.390625 -1.390625l0 -31.40625q0 -1.390625 1.390625 -1.390625q1.4375 0 1.4375 1.390625l0 31.40625q0 1.390625 -1.4375 1.390625zm15.27002 0q-0.828125 0 -1.15625 -0.59375q-0.3125 -0.59375 -0.21875 -1.140625l8.1875 -30.328125q0.21875 -1.09375 1.359375 -1.09375q1.140625 0 1.40625 1.078125l8.1875 30.25q0.25 0.578125 -0.171875 1.203125q-0.40625 0.625 -1.171875 0.625q-1.125 0 -1.359375 -1.078125l-3.03125 -11.109375l-7.671875 0l-3.0 11.109375q-0.234375 1.078125 -1.359375 1.078125zm5.125 -15.015625l6.171875 0l-3.078125 -11.421875l-3.09375 11.421875zm15.640869 15.015625q-1.390625 0 -1.390625 -1.390625l0 -30.375q0 -1.390625 1.390625 -1.390625l4.84375 0q3.4375 0 5.21875 2.546875q1.796875 2.546875 1.796875 6.328125q0 4.09375 -2.125 6.796875q-2.125 2.703125 -6.15625 2.703125q-0.78125 0 -1.65625 -0.109375q-0.859375 -0.125 -0.828125 -0.484375l0.34375 13.984375q0 1.390625 -1.4375 1.390625zm4.84375 -30.328125l-3.40625 0l0 12.484375q0.90625 0.234375 2.140625 0.234375q2.515625 0 3.953125 -1.6875q1.453125 -1.703125 1.453125 -4.984375q0 -2.6875 -1.015625 -4.359375q-1.015625 -1.6875 -3.125 -1.6875zm10.613098 30.328125q-1.390625 0 -1.390625 -1.390625l0 -30.375q0 -1.390625 1.390625 -1.390625q1.4375 0 1.4375 1.390625l0 30.375q0 1.390625 -1.4375 1.390625z" fill-rule="nonzero"/><path fill="#0f1d3e" d="m578.34686 287.2744q-1.078125 0 -1.90625 -0.78125q-0.8125 -0.78125 -0.8125 -1.9375l0 -4.078125l3.5 0.828125l0 1.125q0 0.515625 0.40625 0.921875q0.421875 0.421875 0.9375 0.421875l0.828125 0q0.59375 0 0.96875 -0.421875q0.375 -0.40625 0.375 -0.921875l0 -4.484375l-4.296875 0q-1.078125 0 -1.90625 -0.78125q-0.8125 -0.78125 -0.8125 -1.9375l0 -13.21875q0 -1.15625 0.8125 -1.9375q0.828125 -0.796875 1.90625 -0.796875l7.796875 0l0 25.28125q0 1.15625 -0.78125 1.9375q-0.78125 0.78125 -1.9375 0.78125l-5.078125 0zm2.125 -12.84375l0.828125 0q0.59375 0 0.96875 -0.40625q0.375 -0.40625 0.375 -0.9375l0 -10.296875l-2.171875 0q-0.515625 0 -0.9375 0.375q-0.40625 0.375 -0.40625 0.96875l0 8.953125q0 0.53125 0.40625 0.9375q0.421875 0.40625 0.9375 0.40625zm10.609863 3.515625q-1.125 0 -1.90625 -0.796875q-0.78125 -0.8125 -0.78125 -1.921875l0 -3.109375l3.46875 0l0 0.96875q0 0.5625 0.40625 0.953125q0.40625 0.390625 0.96875 0.390625l0.78125 0q0.5625 0 0.953125 -0.390625q0.390625 -0.390625 0.390625 -0.953125l0 -1.375q0 -0.5625 -0.390625 -0.953125q-0.390625 -0.390625 -0.953125 -0.390625l-2.9375 0q-1.125 0 -1.90625 -0.796875q-0.78125 -0.8125 -0.78125 -1.921875l0 -5.640625q0 -1.125 0.78125 -1.921875q0.78125 -0.8125 1.90625 -0.8125l5.109375 0q1.125 0 1.90625 0.8125q0.78125 0.796875 0.78125 1.921875l0 3.09375l-3.515625 0l0 -0.96875q0 -0.5625 -0.390625 -0.953125q-0.390625 -0.390625 -0.953125 -0.390625l-0.78125 0q-0.5625 0 -0.96875 0.390625q-0.40625 0.390625 -0.40625 0.953125l0 1.375q0 0.5625 0.40625 0.953125q0.40625 0.390625 0.96875 0.390625l2.953125 0q1.125 0 1.90625 0.8125q0.78125 0.796875 0.78125 1.921875l0 5.78125q-0.046875 1.046875 -0.828125 1.8125q-0.78125 0.765625 -1.859375 0.765625l-5.109375 0zm10.041321 9.328125l0 -28.0l7.796875 0q1.15625 0 1.9375 0.796875q0.78125 0.78125 0.78125 1.9375l0 13.21875q0 1.15625 -0.78125 1.9375q-0.78125 0.78125 -1.9375 0.78125l-4.296875 0l0 9.328125l-3.5 0zm3.5 -12.84375l2.171875 0q0.515625 0 0.921875 -0.40625q0.421875 -0.40625 0.421875 -0.9375l0 -8.921875q0 -0.625 -0.421875 -1.0q-0.40625 -0.375 -0.921875 -0.375l-2.171875 0l0 11.640625zm8.892822 3.515625l0 -18.671875l7.796875 0q1.125 0 1.921875 0.8125q0.796875 0.796875 0.796875 1.921875l0 4.0625l-3.5 -0.78125l0 -1.125q0 -0.546875 -0.390625 -0.953125q-0.390625 -0.421875 -0.953125 -0.421875l-2.171875 0l0 15.15625l-3.5 0zm14.738281 0q-1.125 0 -1.921875 -0.796875q-0.796875 -0.8125 -0.796875 -1.921875l0 -13.25q0 -1.125 0.796875 -1.90625q0.796875 -0.796875 1.921875 -0.796875l5.078125 0q1.15625 0 1.9375 0.796875q0.78125 0.78125 0.78125 1.90625l0 5.671875q0 1.109375 -0.78125 1.921875q-0.78125 0.796875 -1.9375 0.796875l-4.296875 0l0 2.71875q0 0.5625 0.390625 0.953125q0.390625 0.390625 1.0 0.390625l4.84375 0l0.78125 3.515625l-7.796875 0zm0.78125 -11.09375l2.171875 0q0.5625 0 0.953125 -0.390625q0.390625 -0.390625 0.390625 -0.953125l0 -1.375q0 -0.5625 -0.390625 -0.953125q-0.390625 -0.390625 -0.953125 -0.390625l-0.78125 0q-0.609375 0 -1.0 0.390625q-0.390625 0.390625 -0.390625 0.953125l0 2.71875zm11.611572 11.09375q-1.125 0 -1.921875 -0.78125q-0.796875 -0.78125 -0.796875 -1.9375l0 -5.640625q0 -1.125 0.796875 -1.921875q0.796875 -0.8125 1.921875 -0.8125l2.90625 0q0.609375 0 1.0 -0.390625q0.390625 -0.390625 0.390625 -0.953125l0 -1.375q0 -0.5625 -0.390625 -0.953125q-0.390625 -0.390625 -1.0 -0.390625l-4.03125 0l0.78125 -3.515625l5.421875 0q1.125 0 1.921875 0.8125q0.796875 0.796875 0.796875 1.921875l0 15.9375l-7.796875 0zm2.125 -3.515625l2.171875 0l0 -4.0625l-2.171875 0q-0.5625 0 -0.953125 0.390625q-0.390625 0.390625 -0.390625 0.953125l0 1.375q0 0.5625 0.390625 0.953125q0.390625 0.390625 0.953125 0.390625zm11.014465 3.515625q-1.15625 0 -1.9375 -0.78125q-0.78125 -0.78125 -0.78125 -1.9375l0 -13.21875q0 -1.15625 0.78125 -1.9375q0.78125 -0.796875 1.9375 -0.796875l4.296875 0l0 -8.5l3.5 -0.828125l0 28.0l-7.796875 0zm2.125 -3.515625l2.171875 0l0 -11.640625l-2.171875 0q-0.515625 0 -0.9375 0.375q-0.40625 0.375 -0.40625 0.96875l0 8.953125q0 0.53125 0.40625 0.9375q0.421875 0.40625 0.9375 0.40625zm8.669067 3.515625l0 -3.515625l3.5 0l0 3.515625l-3.5 0zm9.213867 0q-1.125 0 -1.921875 -0.796875q-0.796875 -0.8125 -0.796875 -1.921875l0 -15.953125l3.5 0l0 13.8125q0 0.5625 0.390625 0.953125q0.390625 0.390625 0.953125 0.390625l2.171875 0l0 -15.15625l3.5 0l0 13.8125q0 0.5625 0.390625 0.953125q0.390625 0.390625 0.953125 0.390625l2.125 0l0 -15.15625l3.515625 0l0 18.671875l-14.78125 0zm20.043396 0q-1.15625 0 -1.9375 -0.796875q-0.78125 -0.8125 -0.78125 -1.921875l0 -13.21875q0 -1.125 0.78125 -1.921875q0.78125 -0.8125 1.9375 -0.8125l5.078125 0q1.125 0 1.90625 0.8125q0.78125 0.796875 0.78125 1.921875l0 13.21875q0 1.109375 -0.78125 1.921875q-0.78125 0.796875 -1.90625 0.796875l-5.078125 0zm2.125 -3.515625l0.78125 0q0.5625 0 0.96875 -0.390625q0.421875 -0.390625 0.421875 -0.953125l0 -8.953125q0 -0.5625 -0.421875 -0.953125q-0.40625 -0.390625 -0.96875 -0.390625l-0.78125 0q-0.5625 0 -0.953125 0.390625q-0.390625 0.390625 -0.390625 0.953125l0 8.953125q0 0.5625 0.390625 0.953125q0.390625 0.390625 0.953125 0.390625zm7.5508423 3.515625l0 -18.671875l7.796875 0q1.125 0 1.921875 0.8125q0.796875 0.796875 0.796875 1.921875l0 4.0625l-3.5 -0.78125l0 -1.125q0 -0.546875 -0.390625 -0.953125q-0.390625 -0.421875 -0.953125 -0.421875l-2.171875 0l0 15.15625l-3.5 0zm12.392822 0l0 -27.21875l3.5 -0.8125l0 18.703125l3.515625 -9.34375l3.5 0l-3.5 9.34375l3.5 9.328125l-3.5 0l-1.765625 -4.703125l-1.75 4.703125l-3.5 0zm14.70697 0q-1.125 0 -1.90625 -0.796875q-0.78125 -0.8125 -0.78125 -1.921875l0 -3.109375l3.46875 0l0 0.96875q0 0.5625 0.40625 0.953125q0.40625 0.390625 0.96875 0.390625l0.78125 0q0.5625 0 0.953125 -0.390625q0.390625 -0.390625 0.390625 -0.953125l0 -1.375q0 -0.5625 -0.390625 -0.953125q-0.390625 -0.390625 -0.953125 -0.390625l-2.9375 0q-1.125 0 -1.90625 -0.796875q-0.78125 -0.8125 -0.78125 -1.921875l0 -5.640625q0 -1.125 0.78125 -1.921875q0.78125 -0.8125 1.90625 -0.8125l5.109375 0q1.125 0 1.90625 0.8125q0.78125 0.796875 0.78125 1.921875l0 3.09375l-3.515625 0l0 -0.96875q0 -0.5625 -0.390625 -0.953125q-0.390625 -0.390625 -0.953125 -0.390625l-0.78125 0q-0.5625 0 -0.96875 0.390625q-0.40625 0.390625 -0.40625 0.953125l0 1.375q0 0.5625 0.40625 0.953125q0.40625 0.390625 0.96875 0.390625l2.953125 0q1.125 0 1.90625 0.8125q0.78125 0.796875 0.78125 1.921875l0 5.78125q-0.046875 1.046875 -0.828125 1.8125q-0.78125 0.765625 -1.859375 0.765625l-5.109375 0zm10.041321 0l0 -27.21875l3.5 -0.78125l0 9.328125l4.296875 0q1.125 0 1.90625 0.8125q0.78125 0.796875 0.78125 1.921875l0 15.9375l-3.515625 0l0 -13.8125q0 -0.5625 -0.390625 -0.953125q-0.390625 -0.390625 -0.953125 -0.390625l-2.125 0l0 15.15625l-3.5 0zm15.07428 0q-1.125 0 -1.921875 -0.796875q-0.796875 -0.8125 -0.796875 -1.921875l0 -13.25q0 -1.125 0.796875 -1.90625q0.796875 -0.796875 1.921875 -0.796875l5.078125 0q1.15625 0 1.9375 0.796875q0.78125 0.78125 0.78125 1.90625l0 5.671875q0 1.109375 -0.78125 1.921875q-0.78125 0.796875 -1.9375 0.796875l-4.296875 0l0 2.71875q0 0.5625 0.390625 0.953125q0.390625 0.390625 1.0 0.390625l4.84375 0l0.78125 3.515625l-7.796875 0zm0.78125 -11.09375l2.171875 0q0.5625 0 0.953125 -0.390625q0.390625 -0.390625 0.390625 -0.953125l0 -1.375q0 -0.5625 -0.390625 -0.953125q-0.390625 -0.390625 -0.953125 -0.390625l-0.78125 0q-0.609375 0 -1.0 0.390625q-0.390625 0.390625 -0.390625 0.953125l0 2.71875zm11.611572 11.09375q-1.125 0 -1.921875 -0.796875q-0.796875 -0.8125 -0.796875 -1.921875l0 -13.25q0 -1.125 0.796875 -1.90625q0.796875 -0.796875 1.921875 -0.796875l5.078125 0q1.15625 0 1.9375 0.796875q0.78125 0.78125 0.78125 1.90625l0 5.671875q0 1.109375 -0.78125 1.921875q-0.78125 0.796875 -1.9375 0.796875l-4.296875 0l0 2.71875q0 0.5625 0.390625 0.953125q0.390625 0.390625 1.0 0.390625l4.84375 0l0.78125 3.515625l-7.796875 0zm0.78125 -11.09375l2.171875 0q0.5625 0 0.953125 -0.390625q0.390625 -0.390625 0.390625 -0.953125l0 -1.375q0 -0.5625 -0.390625 -0.953125q-0.390625 -0.390625 -0.953125 -0.390625l-0.78125 0q-0.609375 0 -1.0 0.390625q-0.390625 0.390625 -0.390625 0.953125l0 2.71875z" fill-rule="nonzero"/><path fill="#0f1d3e" d="m778.9159 277.9463l0 -27.171875l3.5 -0.78125l0 9.28125l4.4375 0l-0.8125 3.515625l-3.625 0l0 15.15625l-3.5 0z" fill-rule="nonzero"/><path fill="#fff2cc" d="m113.08137 237.6063l0 0c0 -64.4738 74.42649 -116.74015 166.23624 -116.74015l0 0c91.80972 0 166.2362 52.26635 166.2362 116.74015l0 0c0 64.473816 -74.42648 116.74017 -166.2362 116.74017l0 0c-91.80974 0 -166.23624 -52.266357 -166.23624 -116.74017z" fill-rule="evenodd"/><path stroke="#0f1d3e" stroke-width="1.0" stroke-linejoin="round" stroke-linecap="butt" d="m113.08137 237.6063l0 0c0 -64.4738 74.42649 -116.74015 166.23624 -116.74015l0 0c91.80972 0 166.2362 52.26635 166.2362 116.74015l0 0c0 64.473816 -74.42648 116.74017 -166.2362 116.74017l0 0c-91.80974 0 -166.23624 -52.266357 -166.23624 -116.74017z" fill-rule="evenodd"/><path fill="#0f1d3e" d="m200.61702 254.1263q-1.390625 0 -1.390625 -1.390625l0 -13.53125l-7.3125 -16.21875q-0.4375 -0.984375 0.171875 -1.46875q0.625 -0.5 1.140625 -0.5q1.15625 0 1.3125 0.9375l6.125 13.546875l6.171875 -13.671875q0.40625 -0.8125 1.25 -0.8125q0.59375 0 1.15625 0.515625q0.578125 0.515625 0.15625 1.453125l-7.34375 16.3125l0 13.4375q0 1.390625 -1.4375 1.390625zm12.918701 0.234375q-1.984375 0 -3.359375 -1.65625q-1.359375 -1.65625 -2.0625 -4.296875q-0.6875 -2.65625 -0.6875 -6.046875q0 -3.390625 0.6875 -6.015625q0.703125 -2.625 2.0625 -4.28125q1.375 -1.65625 3.359375 -1.65625q1.984375 0 3.34375 1.671875q1.359375 1.671875 2.078125 4.3125q0.71875 2.625 0.71875 5.96875q0 3.34375 -0.71875 6.0q-0.71875 2.640625 -2.078125 4.328125q-1.359375 1.671875 -3.34375 1.671875zm0 -2.828125q0.734375 0 1.484375 -1.046875q0.765625 -1.046875 1.28125 -3.1875q0.515625 -2.15625 0.515625 -4.9375q0 -2.796875 -0.515625 -4.90625q-0.515625 -2.125 -1.28125 -3.171875q-0.75 -1.046875 -1.484375 -1.046875q-0.703125 0 -1.46875 1.046875q-0.75 1.046875 -1.265625 3.171875q-0.5 2.109375 -0.5 4.90625q0 2.78125 0.5 4.9375q0.515625 2.140625 1.265625 3.1875q0.765625 1.046875 1.46875 1.046875zm13.053268 2.828125q-4.703125 0 -4.703125 -5.984375l0 -16.359375q0 -1.390625 1.4375 -1.390625q1.390625 0 1.390625 1.390625l0 16.359375q0 1.90625 0.484375 2.53125q0.484375 0.625 1.390625 0.625q1.078125 0 1.9375 -0.671875q0.859375 -0.6875 1.34375 -1.578125l0 -17.265625q0 -1.390625 1.4375 -1.390625q1.390625 0 1.390625 1.390625l0 20.71875q0 1.390625 -1.390625 1.390625q-1.4375 0 -1.4375 -1.390625l0.4375 -0.171875q0.25 0.4375 -1.015625 1.125q-1.25 0.671875 -2.703125 0.671875zm11.056366 -0.234375q-1.390625 0 -1.390625 -1.390625l0 -20.71875q0 -1.390625 1.390625 -1.390625q1.4375 0 1.4375 1.390625l-0.4375 0.171875q-0.25 -0.4375 1.0 -1.109375q1.25 -0.671875 2.71875 -0.671875q4.703125 0 4.703125 6.28125q0 1.484375 -1.390625 1.484375q-1.4375 0 -1.4375 -1.484375q0 -2.140625 -0.5 -2.796875q-0.484375 -0.65625 -1.375 -0.65625q-1.078125 0 -1.953125 0.671875q-0.859375 0.671875 -1.328125 1.5625l0 17.265625q0 1.390625 -1.4375 1.390625zm27.247131 0.234375q-1.984375 0 -3.359375 -1.65625q-1.359375 -1.65625 -2.0625 -4.296875q-0.6875 -2.65625 -0.6875 -6.046875q0 -3.390625 0.6875 -6.015625q0.703125 -2.625 2.0625 -4.28125q1.375 -1.65625 3.359375 -1.65625q1.984375 0 3.34375 1.671875q1.359375 1.671875 2.078125 4.3125q0.71875 2.625 0.71875 5.96875q0 3.34375 -0.71875 6.0q-0.71875 2.640625 -2.078125 4.328125q-1.359375 1.671875 -3.34375 1.671875zm0 -2.828125q0.734375 0 1.484375 -1.046875q0.765625 -1.046875 1.28125 -3.1875q0.515625 -2.15625 0.515625 -4.9375q0 -2.796875 -0.515625 -4.90625q-0.515625 -2.125 -1.28125 -3.171875q-0.75 -1.046875 -1.484375 -1.046875q-0.703125 0 -1.46875 1.046875q-0.75 1.046875 -1.265625 3.171875q-0.5 2.109375 -0.5 4.90625q0 2.78125 0.5 4.9375q0.515625 2.140625 1.265625 3.1875q0.765625 1.046875 1.46875 1.046875zm10.420349 2.59375q-1.171875 0 -1.421875 -1.25l-1.765625 -20.71875q-0.328125 -1.53125 1.375 -1.53125q1.171875 0 1.421875 1.25l1.53125 17.375q0.15625 -0.203125 1.1875 -1.703125q1.046875 -1.5 1.4375 -2.234375q-0.53125 -1.125 -0.8125 -2.40625q-0.265625 -1.28125 -0.265625 -2.40625q0 -1.921875 0.578125 -3.3125q0.59375 -1.390625 2.078125 -1.390625q1.5 0 2.078125 1.390625q0.59375 1.390625 0.59375 3.3125q0 1.125 -0.28125 2.40625q-0.265625 1.28125 -0.796875 2.40625q0.390625 0.734375 1.421875 2.234375q1.046875 1.5 1.203125 1.703125l1.53125 -17.375q0.25 -1.25 1.421875 -1.25q1.703125 0 1.375 1.53125l-1.765625 20.71875q-0.25 1.25 -1.421875 1.25q-0.046875 0 -0.4375 0q-0.390625 0 -0.765625 -0.5625q-1.75 -2.015625 -2.953125 -3.671875q-1.203125 -1.671875 -1.203125 -1.734375q0.015625 0.0625 -1.1875 1.734375q-1.203125 1.65625 -2.96875 3.703125q-0.40625 0.53125 -0.75 0.53125q-0.34375 0 -0.4375 0zm5.515625 -13.625q0 0.734375 0.140625 1.53125q0.140625 0.796875 -0.3125 0.859375q-0.453125 -0.078125 -0.3125 -0.875q0.15625 -0.796875 0.15625 -1.515625q0 -1.078125 0.078125 -1.75q0.078125 -0.6875 0.078125 -0.078125q0 -0.625 0.078125 0.0625q0.09375 0.6875 0.09375 1.765625zm11.981201 13.625q-1.390625 0 -1.390625 -1.390625l0 -20.71875q0 -1.390625 1.390625 -1.390625q1.4375 0 1.4375 1.390625l-0.4375 0.171875q-0.25 -0.4375 1.0 -1.109375q1.25 -0.671875 2.71875 -0.671875q4.703125 0 4.703125 5.96875l0 16.359375q0 1.390625 -1.4375 1.390625q-1.390625 0 -1.390625 -1.390625l0 -16.359375q0 -1.890625 -0.484375 -2.515625q-0.484375 -0.625 -1.390625 -0.625q-1.078125 0 -1.953125 0.671875q-0.859375 0.671875 -1.328125 1.5625l0 17.265625q0 1.390625 -1.4375 1.390625zm28.606995 0.234375q-1.984375 0 -3.359375 -1.65625q-1.359375 -1.65625 -2.0625 -4.296875q-0.6875 -2.65625 -0.6875 -6.046875q0 -3.390625 0.6875 -6.015625q0.703125 -2.625 2.0625 -4.28125q1.375 -1.65625 3.359375 -1.65625q1.859375 0 3.109375 1.359375q1.25 1.359375 1.953125 3.46875q0.171875 0.5625 -0.078125 1.28125q-0.234375 0.703125 -1.21875 0.703125q-1.0625 0 -1.390625 -1.0625q-0.453125 -1.421875 -1.078125 -2.171875q-0.609375 -0.75 -1.296875 -0.75q-0.703125 0 -1.46875 1.046875q-0.75 1.046875 -1.265625 3.171875q-0.5 2.109375 -0.5 4.90625q0 2.78125 0.5 4.9375q0.515625 2.140625 1.265625 3.1875q0.765625 1.046875 1.46875 1.046875q0.6875 0 1.296875 -0.75q0.625 -0.765625 1.078125 -2.203125q0.3125 -1.09375 1.390625 -1.09375q0.984375 0 1.21875 0.703125q0.25 0.703125 0.078125 1.28125q-0.703125 2.15625 -1.953125 3.53125q-1.234375 1.359375 -3.109375 1.359375zm12.918579 0q-1.984375 0 -3.359375 -1.65625q-1.359375 -1.65625 -2.0625 -4.296875q-0.6875 -2.65625 -0.6875 -6.046875q0 -3.390625 0.6875 -6.015625q0.703125 -2.625 2.0625 -4.28125q1.375 -1.65625 3.359375 -1.65625q1.984375 0 3.34375 1.671875q1.359375 1.671875 2.078125 4.3125q0.71875 2.625 0.71875 5.96875q0 3.34375 -0.71875 6.0q-0.71875 2.640625 -2.078125 4.328125q-1.359375 1.671875 -3.34375 1.671875zm0 -2.828125q0.734375 0 1.484375 -1.046875q0.765625 -1.046875 1.28125 -3.1875q0.515625 -2.15625 0.515625 -4.9375q0 -2.796875 -0.515625 -4.90625q-0.515625 -2.125 -1.28125 -3.171875q-0.75 -1.046875 -1.484375 -1.046875q-0.703125 0 -1.46875 1.046875q-0.75 1.046875 -1.265625 3.171875q-0.5 2.109375 -0.5 4.90625q0 2.78125 0.5 4.9375q0.515625 2.140625 1.265625 3.1875q0.765625 1.046875 1.46875 1.046875zm17.803497 2.59375q1.390625 0 1.390625 -1.390625l0 -31.40625q0 -1.390625 -1.390625 -1.390625q-1.4375 0 -1.4375 1.390625l0.1875 9.59375q-0.109375 -0.515625 -2.515625 -0.515625q-2.046875 0 -3.328125 1.703125q-1.265625 1.6875 -1.8125 4.3125q-0.546875 2.625 -0.546875 5.9375q0 3.3125 0.546875 5.953125q0.546875 2.640625 1.8125 4.34375q1.28125 1.703125 3.328125 1.703125q2.40625 0 2.859375 -1.625l-0.53125 0q0 1.390625 1.4375 1.390625zm-3.765625 -20.890625q0.546875 0 1.234375 0.515625q0.6875 0.515625 1.09375 1.34375l0 14.53125q-0.40625 0.875 -1.09375 1.390625q-0.6875 0.515625 -1.234375 0.515625q-0.75 0 -1.40625 -1.015625q-0.640625 -1.03125 -1.03125 -3.1875q-0.390625 -2.15625 -0.390625 -4.96875q0 -2.828125 0.390625 -4.953125q0.390625 -2.140625 1.03125 -3.15625q0.65625 -1.015625 1.40625 -1.015625zm14.023407 21.125q-1.984375 0 -3.40625 -1.671875q-1.40625 -1.6875 -2.109375 -4.328125q-0.6875 -2.65625 -0.6875 -6.0q0 -3.34375 0.6875 -5.984375q0.703125 -2.65625 2.0625 -4.3125q1.375 -1.65625 3.359375 -1.65625q1.828125 0 3.046875 1.40625q1.234375 1.390625 1.84375 3.578125q0.625 2.171875 0.625 4.875q0 1.671875 -1.671875 1.671875l-7.296875 -0.21875q0.21875 -0.015625 0.21875 0.640625q0 2.78125 0.5 4.921875q0.515625 2.140625 1.28125 3.203125q0.78125 1.046875 1.546875 1.046875q0.734375 0 1.359375 -0.75q0.640625 -0.765625 1.09375 -2.21875q0.359375 -1.078125 1.390625 -1.078125q0.96875 0 1.234375 0.71875q0.265625 0.703125 0.0625 1.296875q-0.6875 2.125 -1.953125 3.5q-1.25 1.359375 -3.1875 1.359375zm-0.09375 -21.125q-0.96875 0 -1.90625 1.84375q-0.9375 1.828125 -1.140625 4.03125l5.703125 0q-0.0625 -2.171875 -0.875 -4.015625q-0.8125 -1.859375 -1.78125 -1.859375z" fill-rule="nonzero"/><path fill="#000000" fill-opacity="0.0" d="m445.5538 237.6063l68.88187 0" fill-rule="evenodd"/><path stroke="#0f1d3e" stroke-width="1.0" stroke-linejoin="round" stroke-linecap="butt" d="m448.9809 237.6063l65.45477 0" fill-rule="evenodd"/><path fill="#0f1d3e" stroke="#0f1d3e" stroke-width="1.0" stroke-linecap="butt" d="m448.9809 237.6063l1.1245728 -1.1245728l-3.0897522 1.1245728l3.0897522 1.124588z" fill-rule="evenodd"/></g></svg>