<svg version="1.1" viewBox="0.0 0.0 960.0 540.0" fill="none" stroke="none" stroke-linecap="square" stroke-miterlimit="10" xmlns:xlink="http://www.w3.org/1999/xlink" xmlns="http://www.w3.org/2000/svg"><clipPath id="g12e1054b3e9_0_0.0"><path d="m0 0l960.0 0l0 540.0l-960.0 0l0 -540.0z" clip-rule="nonzero"/></clipPath><g clip-path="url(#g12e1054b3e9_0_0.0)"><path fill="none" d="m0 0l960.0 0l0 540.0l-960.0 0z" fill-rule="evenodd"/><path fill="#fff8e2" d="m289.43307 259.43307l0 0c0 -105.24721 85.3197 -190.56693 190.56693 -190.56693l0 0c50.541504 0 99.01294 20.07753 134.75116 55.815758c35.73822 35.738235 55.815796 84.20969 55.815796 134.75117l0 0c0 105.24719 -85.31976 190.56693 -190.56696 190.56693l0 0c-105.24722 0 -190.56693 -85.31973 -190.56693 -190.56693z" fill-rule="evenodd"/><path stroke="#0f1d3e" stroke-width="1.0" stroke-linejoin="round" stroke-linecap="butt" d="m289.43307 259.43307l0 0c0 -105.24721 85.3197 -190.56693 190.56693 -190.56693l0 0c50.541504 0 99.01294 20.07753 134.75116 55.815758c35.73822 35.738235 55.815796 84.20969 55.815796 134.75117l0 0c0 105.24719 -85.31976 190.56693 -190.56696 190.56693l0 0c-105.24722 0 -190.56693 -85.31973 -190.56693 -190.56693z" fill-rule="evenodd"/><path fill="#fff2cc" d="m370.13123 307.5223l0 0c0 -62.508194 49.19229 -113.18111 109.87402 -113.18111l0 0c29.140411 0 57.08728 11.924408 77.69269 33.14998c20.605347 21.225586 32.181335 50.01364 32.181335 80.03113l0 0c0 62.50821 -49.19226 113.18109 -109.87402 113.18109l0 0c-60.681732 0 -109.87402 -50.672882 -109.87402 -113.18109z" fill-rule="evenodd"/><path stroke="#0f1d3e" stroke-width="1.0" stroke-linejoin="round" stroke-linecap="butt" d="m370.13123 307.5223l0 0c0 -62.508194 49.19229 -113.18111 109.87402 -113.18111l0 0c29.140411 0 57.08728 11.924408 77.69269 33.14998c20.605347 21.225586 32.181335 50.01364 32.181335 80.03113l0 0c0 62.50821 -49.19226 113.18109 -109.87402 113.18109l0 0c-60.681732 0 -109.87402 -50.672882 -109.87402 -113.18109z" fill-rule="evenodd"/><path fill="#0f1d3e" d="m447.64053 251.39856q-3.234375 0 -4.90625 -3.15625q-1.671875 -3.15625 -1.671875 -8.671875q0 -5.5625 1.671875 -8.71875q1.671875 -3.15625 4.90625 -3.15625q1.0 0 1.953125 0.328125q0.96875 0.328125 1.734375 0.96875q0.359375 0.3125 0.359375 0.765625q0 1.0 -1.015625 1.0q-0.390625 0 -0.65625 -0.265625q-0.5 -0.421875 -1.125 -0.609375q-0.625 -0.203125 -1.25 -0.203125q-2.09375 0 -3.328125 2.5q-1.234375 2.5 -1.234375 7.390625q0 4.84375 1.234375 7.34375q1.234375 2.5 3.328125 2.5q0.625 0 1.25 -0.1875q0.625 -0.203125 1.125 -0.625q0.265625 -0.265625 0.65625 -0.265625q1.015625 0 1.015625 1.0q0 0.453125 -0.359375 0.765625q-0.765625 0.640625 -1.734375 0.96875q-0.953125 0.328125 -1.953125 0.328125zm9.110779 0q-1.390625 0 -2.359375 -1.15625q-0.953125 -1.171875 -1.453125 -3.046875q-0.484375 -1.875 -0.484375 -4.25q0 -2.390625 0.484375 -4.25q0.5 -1.859375 1.453125 -3.015625q0.96875 -1.171875 2.359375 -1.171875q1.40625 0 2.359375 1.1875q0.953125 1.171875 1.46875 3.03125q0.515625 1.84375 0.515625 4.21875q0 2.359375 -0.515625 4.234375q-0.515625 1.859375 -1.46875 3.046875q-0.953125 1.171875 -2.359375 1.171875zm0 -1.984375q0.546875 0 1.078125 -0.734375q0.53125 -0.75 0.890625 -2.25q0.359375 -1.515625 0.359375 -3.484375q0 -1.984375 -0.359375 -3.46875q-0.359375 -1.5 -0.890625 -2.234375q-0.53125 -0.75 -1.078125 -0.75q-0.5 0 -1.03125 0.75q-0.53125 0.734375 -0.890625 2.234375q-0.359375 1.484375 -0.359375 3.46875q0 1.96875 0.359375 3.484375q0.359375 1.5 0.890625 2.25q0.53125 0.734375 1.03125 0.734375zm12.583008 1.828125q0.96875 0 0.96875 -0.96875l0 -22.1875q0 -0.96875 -0.96875 -0.96875q-1.015625 0 -1.015625 0.96875l0.140625 6.78125q-0.09375 -0.359375 -1.78125 -0.359375q-1.453125 0 -2.34375 1.203125q-0.890625 1.1875 -1.28125 3.046875q-0.390625 1.84375 -0.390625 4.1875q0 2.328125 0.390625 4.203125q0.390625 1.859375 1.28125 3.0625q0.890625 1.1875 2.34375 1.1875q1.6875 0 2.015625 -1.125l-0.375 0q0 0.96875 1.015625 0.96875zm-2.65625 -14.75q0.390625 0 0.875 0.359375q0.484375 0.359375 0.765625 0.96875l0 10.25q-0.296875 0.625 -0.78125 0.984375q-0.46875 0.359375 -0.859375 0.359375q-0.546875 0 -1.0 -0.71875q-0.453125 -0.71875 -0.734375 -2.234375q-0.265625 -1.53125 -0.265625 -3.515625q0 -2.0 0.265625 -3.5q0.28125 -1.5 0.734375 -2.21875q0.453125 -0.734375 1.0 -0.734375zm9.879791 14.90625q-1.375 0 -2.375 -1.171875q-1.0 -1.1875 -1.5 -3.0625q-0.484375 -1.875 -0.484375 -4.21875q0 -2.359375 0.484375 -4.234375q0.5 -1.875 1.453125 -3.03125q0.96875 -1.171875 2.359375 -1.171875q1.296875 0 2.15625 0.984375q0.875 0.96875 1.296875 2.515625q0.4375 1.546875 0.4375 3.453125q0 1.171875 -1.171875 1.171875l-5.140625 -0.140625q0.140625 -0.015625 0.140625 0.453125q0 1.96875 0.359375 3.484375q0.359375 1.5 0.90625 2.25q0.546875 0.734375 1.078125 0.734375q0.53125 0 0.984375 -0.53125q0.453125 -0.53125 0.765625 -1.578125q0.25 -0.734375 0.984375 -0.734375q0.671875 0 0.84375 0.5q0.1875 0.484375 0.0625 0.90625q-0.5 1.515625 -1.390625 2.46875q-0.875 0.953125 -2.25 0.953125zm-0.0625 -14.90625q-0.671875 0 -1.34375 1.296875q-0.671875 1.296875 -0.8125 2.859375l4.046875 0q-0.046875 -1.53125 -0.625 -2.84375q-0.5625 -1.3125 -1.265625 -1.3125zm17.253174 14.75q-1.703125 0 -2.546875 -0.828125q-0.828125 -0.84375 -0.828125 -2.703125l0 -10.734375l-1.515625 0q-0.984375 0 -0.984375 -1.015625q0 -0.96875 0.984375 -0.96875l1.515625 0l0 -3.375q0 -0.984375 1.015625 -0.984375q0.96875 0 0.96875 0.984375l0 3.375l1.515625 0q0.984375 0 0.984375 0.96875q0 1.015625 -0.984375 1.015625l-1.515625 0l0 10.703125q0 1.015625 0.25 1.296875q0.265625 0.28125 1.140625 0.28125q1.015625 0 1.015625 0.96875q0 1.015625 -1.015625 1.015625zm3.483368 0q-0.96875 0 -0.96875 -0.96875l0 -22.1875q0 -0.96875 0.96875 -0.96875q1.015625 0 1.015625 0.96875l-0.3125 7.6875q-0.15625 -0.3125 0.71875 -0.78125q0.875 -0.484375 1.90625 -0.484375q3.3125 0 3.3125 4.203125l0 11.5625q0 0.96875 -1.0 0.96875q-0.984375 0 -0.984375 -0.96875l0 -11.5625q0 -1.34375 -0.34375 -1.78125q-0.34375 -0.4375 -0.984375 -0.4375q-0.75 0 -1.359375 0.484375q-0.609375 0.484375 -0.953125 1.109375l0 12.1875q0 0.96875 -1.015625 0.96875zm11.199036 0q-1.5 0 -2.40625 -1.0625q-0.90625 -1.0625 -0.90625 -2.734375q0 -3.515625 3.53125 -5.078125l2.421875 -1.046875l0 -2.609375q0 -2.21875 -1.328125 -2.21875q-1.15625 0 -2.125 1.609375q-0.28125 0.46875 -0.8125 0.46875q-1.015625 0 -1.015625 -0.96875q0 -0.296875 0.171875 -0.5625q1.40625 -2.53125 3.78125 -2.53125q3.3124695 0 3.3124695 4.203125l0 10.46875q-0.078125 0.15625 -0.078125 0.078125q0.0625 0 0.078125 -0.03125q0.296875 -0.28125 0.6875 -0.28125q1.015625 0 1.015625 1.0q0 0.390625 -0.28125 0.6875q-0.625 0.609375 -1.5 0.609375q-1.9062195 0 -1.9062195 -2.0625l0.5 0q-0.5 1.1875 -1.375 1.625q-0.859375 0.4375 -1.765625 0.4375zm-1.296875 -3.796875q0 0.953125 0.34375 1.390625q0.34375 0.421875 0.953125 0.421875q0.5 0 1.125 -0.34375q0.640625 -0.359375 1.515625 -1.171875l0 -4.25l-1.59375 0.6875q-2.34375 1.015625 -2.34375 3.265625zm12.502533 3.796875q-1.703125 0 -2.546875 -0.828125q-0.828125 -0.84375 -0.828125 -2.703125l0 -10.734375l-1.515625 0q-0.984375 0 -0.984375 -1.015625q0 -0.96875 0.984375 -0.96875l1.515625 0l0 -3.375q0 -0.984375 1.015625 -0.984375q0.96875 0 0.96875 0.984375l0 3.375l1.515625 0q0.984375 0 0.984375 0.96875q0 1.015625 -0.984375 1.015625l-1.515625 0l0 10.703125q0 1.015625 0.25 1.296875q0.265625 0.28125 1.140625 0.28125q1.015625 0 1.015625 0.96875q0 1.015625 -1.015625 1.015625z" fill-rule="nonzero"/><path fill="#0f1d3e" d="m452.65482 289.2423q-1.5 0 -2.40625 -1.0625q-0.90625 -1.0625 -0.90625 -2.734375q0 -3.515625 3.53125 -5.078125l2.421875 -1.046875l0 -2.609375q0 -2.21875 -1.328125 -2.21875q-1.15625 0 -2.125 1.609375q-0.28125 0.46875 -0.8125 0.46875q-1.015625 0 -1.015625 -0.96875q0 -0.296875 0.171875 -0.5625q1.40625 -2.53125 3.78125 -2.53125q3.3125 0 3.3125 4.203125l0 10.46875q-0.078125 0.15625 -0.078125 0.078125q0.0625 0 0.078125 -0.03125q0.296875 -0.28125 0.6875 -0.28125q1.015625 0 1.015625 1.0q0 0.390625 -0.28125 0.6875q-0.625 0.609375 -1.5 0.609375q-1.90625 0 -1.90625 -2.0625l0.5 0q-0.5 1.1875 -1.375 1.625q-0.859375 0.4375 -1.765625 0.4375zm-1.296875 -3.796875q0 0.953125 0.34375 1.390625q0.34375 0.421875 0.953125 0.421875q0.5 0 1.125 -0.34375q0.640625 -0.359375 1.515625 -1.171875l0 -4.25l-1.59375 0.6875q-2.34375 1.015625 -2.34375 3.265625zm12.689392 3.953125q-1.390625 0 -2.359375 -1.15625q-0.953125 -1.171875 -1.453125 -3.046875q-0.484375 -1.875 -0.484375 -4.25q0 -2.390625 0.484375 -4.25q0.5 -1.859375 1.453125 -3.015625q0.96875 -1.171875 2.359375 -1.171875q1.3125 0 2.1875 0.953125q0.890625 0.953125 1.390625 2.4375q0.125 0.421875 -0.0625 0.921875q-0.171875 0.484375 -0.859375 0.484375q-0.71875 0 -0.96875 -0.734375q-0.328125 -1.015625 -0.765625 -1.546875q-0.421875 -0.53125 -0.921875 -0.53125q-0.5 0 -1.03125 0.75q-0.53125 0.734375 -0.890625 2.234375q-0.359375 1.484375 -0.359375 3.46875q0 1.96875 0.359375 3.484375q0.359375 1.5 0.890625 2.25q0.53125 0.734375 1.03125 0.734375q0.5 0 0.921875 -0.53125q0.4375 -0.53125 0.765625 -1.578125q0.25 -0.734375 0.96875 -0.734375q0.6875 0 0.859375 0.5q0.1875 0.484375 0.0625 0.90625q-0.5 1.515625 -1.390625 2.46875q-0.875 0.953125 -2.1875 0.953125zm8.933136 -0.15625q-1.703125 0 -2.546875 -0.828125q-0.828125 -0.84375 -0.828125 -2.703125l0 -10.734375l-1.515625 0q-0.984375 0 -0.984375 -1.015625q0 -0.96875 0.984375 -0.96875l1.515625 0l0 -3.375q0 -0.984375 1.015625 -0.984375q0.96875 0 0.96875 0.984375l0 3.375l1.515625 0q0.984375 0 0.984375 0.96875q0 1.015625 -0.984375 1.015625l-1.515625 0l0 10.703125q0 1.015625 0.25 1.296875q0.265625 0.28125 1.140625 0.28125q1.015625 0 1.015625 0.96875q0 1.015625 -1.015625 1.015625zm5.4990234 0.15625q-3.3125 0 -3.3125 -4.203125l0 -11.546875q0 -0.984375 1.015625 -0.984375q0.96875 0 0.96875 0.984375l0 11.546875q0 1.328125 0.34375 1.78125q0.34375 0.4375 0.984375 0.4375q0.765625 0 1.375 -0.484375q0.609375 -0.484375 0.953125 -1.109375l0 -12.171875q0 -0.984375 1.0 -0.984375q0.984375 0 0.984375 0.984375l0 14.625q0 0.96875 -0.984375 0.96875q-1.0 0 -1.0 -0.96875l0.3125 -0.140625q0.15625 0.3125 -0.71875 0.796875q-0.875 0.46875 -1.921875 0.46875zm9.18338 -0.15625q-1.5 0 -2.40625 -1.0625q-0.90625 -1.0625 -0.90625 -2.734375q0 -3.515625 3.53125 -5.078125l2.421875 -1.046875l0 -2.609375q0 -2.21875 -1.328125 -2.21875q-1.15625 0 -2.125 1.609375q-0.28125 0.46875 -0.8125 0.46875q-1.015625 0 -1.015625 -0.96875q0 -0.296875 0.171875 -0.5625q1.40625 -2.53125 3.78125 -2.53125q3.3125 0 3.3125 4.203125l0 10.46875q-0.078125 0.15625 -0.078125 0.078125q0.0625 0 0.078125 -0.03125q0.296875 -0.28125 0.6875 -0.28125q1.015625 0 1.015625 1.0q0 0.390625 -0.28125 0.6875q-0.625 0.609375 -1.5 0.609375q-1.90625 0 -1.90625 -2.0625l0.5 0q-0.5 1.1875 -1.375 1.625q-0.859375 0.4375 -1.765625 0.4375zm-1.296875 -3.796875q0 0.953125 0.34375 1.390625q0.34375 0.421875 0.953125 0.421875q0.5 0 1.125 -0.34375q0.640625 -0.359375 1.515625 -1.171875l0 -4.25l-1.59375 0.6875q-2.34375 1.015625 -2.34375 3.265625zm10.001892 3.796875q-0.96875 0 -0.96875 -0.96875l0 -22.1875q0 -0.96875 0.96875 -0.96875q1.015625 0 1.015625 0.96875l0 22.1875q0 0.96875 -1.015625 0.96875zm4.512024 0q-0.96875 0 -0.96875 -0.96875l0 -22.1875q0 -0.96875 0.96875 -0.96875q1.015625 0 1.015625 0.96875l0 22.1875q0 0.96875 -1.015625 0.96875zm2.8869934 5.984375q-1.015625 0 -1.015625 -1.015625q0 -0.96875 1.015625 -0.96875q0.953125 0 1.4375 -0.34375q0.484375 -0.34375 0.734375 -1.390625l0.765625 -3.171875l-3.546875 -14.453125q-0.09375 -0.484375 0.1875 -0.84375q0.28125 -0.375 0.765625 -0.375q0.78125 0 0.96875 0.75l2.65625 10.8125l2.625 -10.8125q0.1875 -0.75 0.953125 -0.75q0.4375 0 0.78125 0.375q0.359375 0.375 0.171875 0.890625l-3.03125 12.34375l0 0l-1.34375 5.578125q-0.4375 1.8125 -1.453125 2.59375q-1.015625 0.78125 -2.671875 0.78125z" fill-rule="nonzero"/><path fill="#0f1d3e" d="m447.5423 327.2423q0.96875 0 0.96875 -0.96875l0 -22.1875q0 -0.96875 -0.96875 -0.96875q-1.015625 0 -1.015625 0.96875l0.140625 6.78125q-0.09375 -0.359375 -1.78125 -0.359375q-1.453125 0 -2.34375 1.203125q-0.890625 1.1875 -1.28125 3.046875q-0.390625 1.84375 -0.390625 4.1875q0 2.328125 0.390625 4.203125q0.390625 1.859375 1.28125 3.0625q0.890625 1.1875 2.34375 1.1875q1.6875 0 2.015625 -1.125l-0.375 0q0 0.96875 1.015625 0.96875zm-2.65625 -14.75q0.390625 0 0.875 0.359375q0.484375 0.359375 0.765625 0.96875l0 10.25q-0.296875 0.625 -0.78125 0.984375q-0.46875 0.359375 -0.859375 0.359375q-0.546875 0 -1.0 -0.71875q-0.453125 -0.71875 -0.734375 -2.234375q-0.265625 -1.53125 -0.265625 -3.515625q0 -2.0 0.265625 -3.5q0.28125 -1.5 0.734375 -2.21875q0.453125 -0.734375 1.0 -0.734375zm9.817261 14.90625q-1.390625 0 -2.359375 -1.15625q-0.953125 -1.171875 -1.453125 -3.046875q-0.484375 -1.875 -0.484375 -4.25q0 -2.390625 0.484375 -4.25q0.5 -1.859375 1.453125 -3.015625q0.96875 -1.171875 2.359375 -1.171875q1.40625 0 2.359375 1.1875q0.953125 1.171875 1.46875 3.03125q0.515625 1.84375 0.515625 4.21875q0 2.359375 -0.515625 4.234375q-0.515625 1.859375 -1.46875 3.046875q-0.953125 1.171875 -2.359375 1.171875zm0 -1.984375q0.546875 0 1.078125 -0.734375q0.53125 -0.75 0.890625 -2.25q0.359375 -1.515625 0.359375 -3.484375q0 -1.984375 -0.359375 -3.46875q-0.359375 -1.5 -0.890625 -2.234375q-0.53125 -0.75 -1.078125 -0.75q-0.5 0 -1.03125 0.75q-0.53125 0.734375 -0.890625 2.234375q-0.359375 1.484375 -0.359375 3.46875q0 1.96875 0.359375 3.484375q0.359375 1.5 0.890625 2.25q0.53125 0.734375 1.03125 0.734375zm10.270538 1.984375q-1.375 0 -2.375 -1.171875q-1.0 -1.1875 -1.5 -3.0625q-0.484375 -1.875 -0.484375 -4.21875q0 -2.359375 0.484375 -4.234375q0.5 -1.875 1.453125 -3.03125q0.96875 -1.171875 2.359375 -1.171875q1.296875 0 2.15625 0.984375q0.875 0.96875 1.296875 2.515625q0.4375 1.546875 0.4375 3.453125q0 1.171875 -1.171875 1.171875l-5.140625 -0.140625q0.140625 -0.015625 0.140625 0.453125q0 1.96875 0.359375 3.484375q0.359375 1.5 0.90625 2.25q0.546875 0.734375 1.078125 0.734375q0.53125 0 0.984375 -0.53125q0.453125 -0.53125 0.765625 -1.578125q0.25 -0.734375 0.984375 -0.734375q0.671875 0 0.84375 0.5q0.1875 0.484375 0.0625 0.90625q-0.5 1.515625 -1.390625 2.46875q-0.875 0.953125 -2.25 0.953125zm-0.0625 -14.90625q-0.671875 0 -1.34375 1.296875q-0.671875 1.296875 -0.8125 2.859375l4.046875 0q-0.046875 -1.53125 -0.625 -2.84375q-0.5625 -1.3125 -1.265625 -1.3125zm8.354401 14.75q-1.53125 0 -2.65625 -1.03125q-1.125 -1.03125 -1.34375 -2.53125q-0.109375 -0.484375 0.21875 -0.8125q0.34375 -0.328125 0.78125 -0.328125q0.78125 0 0.953125 0.8125q0.125 0.828125 0.703125 1.375q0.578125 0.53125 1.34375 0.53125q0.4375 0 0.875 -0.1875q0.4375 -0.1875 0.734375 -0.640625q0.296875 -0.46875 0.296875 -1.296875q0 -0.96875 -0.453125 -1.65625q-0.4375 -0.703125 -1.28125 -1.34375l-0.703125 -0.546875q-1.5625 -1.234375 -2.28125 -2.40625q-0.71875 -1.1875 -0.71875 -2.65625q0 -1.890625 1.15625 -2.875q1.15625 -0.984375 2.46875 -0.984375q1.15625 0 2.015625 0.65625q0.875 0.640625 1.296875 1.6875q0.234375 0.390625 -0.03125 0.90625q-0.265625 0.5 -0.84375 0.5q-0.640625 0 -0.90625 -0.59375q-0.515625 -1.171875 -1.53125 -1.171875q-0.703125 0 -1.15625 0.46875q-0.453125 0.453125 -0.453125 1.40625q0 1.0 0.453125 1.71875q0.453125 0.71875 1.765625 1.765625l0.765625 0.609375q1.078125 0.828125 1.765625 1.921875q0.6875 1.09375 0.6875 2.59375q0 1.828125 -1.125 2.96875q-1.109375 1.140625 -2.796875 1.140625zm15.904022 0q-1.53125 0 -2.65625 -1.03125q-1.125 -1.03125 -1.34375 -2.53125q-0.109375 -0.484375 0.21875 -0.8125q0.34375 -0.328125 0.78125 -0.328125q0.78125 0 0.953125 0.8125q0.125 0.828125 0.703125 1.375q0.578125 0.53125 1.34375 0.53125q0.4375 0 0.875 -0.1875q0.4375 -0.1875 0.734375 -0.640625q0.296875 -0.46875 0.296875 -1.296875q0 -0.96875 -0.453125 -1.65625q-0.4375 -0.703125 -1.28125 -1.34375l-0.703125 -0.546875q-1.5625 -1.234375 -2.28125 -2.40625q-0.71875 -1.1875 -0.71875 -2.65625q0 -1.890625 1.15625 -2.875q1.15625 -0.984375 2.46875 -0.984375q1.15625 0 2.015625 0.65625q0.875 0.640625 1.296875 1.6875q0.234375 0.390625 -0.03125 0.90625q-0.265625 0.5 -0.84375 0.5q-0.640625 0 -0.90625 -0.59375q-0.515625 -1.171875 -1.53125 -1.171875q-0.703125 0 -1.15625 0.46875q-0.453125 0.453125 -0.453125 1.40625q0 1.0 0.453125 1.71875q0.453125 0.71875 1.765625 1.765625l0.765625 0.609375q1.078125 0.828125 1.765625 1.921875q0.6875 1.09375 0.6875 2.59375q0 1.828125 -1.125 2.96875q-1.109375 1.140625 -2.796875 1.140625zm9.44278 0q-1.703125 0 -2.546875 -0.828125q-0.828125 -0.84375 -0.828125 -2.703125l0 -10.734375l-1.515625 0q-0.984375 0 -0.984375 -1.015625q0 -0.96875 0.984375 -0.96875l1.515625 0l0 -3.375q0 -0.984375 1.015625 -0.984375q0.96875 0 0.96875 0.984375l0 3.375l1.515625 0q0.984375 0 0.984375 0.96875q0 1.015625 -0.984375 1.015625l-1.515625 0l0 10.703125q0 1.015625 0.25 1.296875q0.265625 0.28125 1.140625 0.28125q1.015625 0 1.015625 0.96875q0 1.015625 -1.015625 1.015625zm5.498993 0.15625q-3.3125 0 -3.3125 -4.203125l0 -11.546875q0 -0.984375 1.015625 -0.984375q0.96875 0 0.96875 0.984375l0 11.546875q0 1.328125 0.34375 1.78125q0.34375 0.4375 0.984375 0.4375q0.765625 0 1.375 -0.484375q0.609375 -0.484375 0.953125 -1.109375l0 -12.171875q0 -0.984375 1.0 -0.984375q0.984375 0 0.984375 0.984375l0 14.625q0 0.96875 -0.984375 0.96875q-1.0 0 -1.0 -0.96875l0.3125 -0.140625q0.15625 0.3125 -0.71875 0.796875q-0.875 0.46875 -1.921875 0.46875zm8.292755 -0.15625q-0.9687195 0 -0.9687195 -0.96875l0 -13.296875l-1.4375 0q-0.96875 0 -0.96875 -1.015625q0 -0.96875 0.96875 -0.96875l1.4375 0l0 -2.296875q0 -5.578125 5.3905945 -5.578125q0.96875 0 0.96875 1.0q0 0.984375 -0.96875 0.984375q-1.828125 0 -2.625 0.828125q-0.78125 0.828125 -0.78125 2.765625l0 2.296875l1.609375 0q0.96875 0 0.96875 0.96875q0 1.015625 -0.96875 1.015625l-1.609375 0l0 13.296875q0 0.96875 -1.015625 0.96875zm5.696045 0q-0.96875 0 -0.96875 -0.96875l0 -13.296875l-1.4375 0q-0.96875 0 -0.96875 -1.015625q0 -0.96875 0.96875 -0.96875l1.4375 0l0 -2.296875q0 -5.578125 5.390625 -5.578125q0.96875 0 0.96875 1.0q0 0.984375 -0.96875 0.984375q-1.828125 0 -2.625 0.828125q-0.78125 0.828125 -0.78125 2.765625l0 2.296875l1.609375 0q0.96875 0 0.96875 0.96875q0 1.015625 -0.96875 1.015625l-1.609375 0l0 13.296875q0 0.96875 -1.015625 0.96875z" fill-rule="nonzero"/><path fill="#0f1d3e" d="m425.53302 358.84232l0 -17.734375l7.59375 0q0.734375 0 1.28125 0.53125q0.546875 0.53125 0.546875 1.296875l0 5.453125q0 0.75 -0.546875 1.28125q-0.546875 0.53125 -1.28125 0.53125l-5.25 0l0 8.640625l-2.34375 0zm2.34375 -11.0l3.796875 0q0.390625 0 0.65625 -0.265625q0.265625 -0.265625 0.265625 -0.640625l0 -2.578125q0 -0.359375 -0.265625 -0.625q-0.265625 -0.265625 -0.65625 -0.265625l-3.796875 0l0 4.375zm10.740265 11.0q-0.78125 0 -1.3125 -0.53125q-0.53125 -0.53125 -0.53125 -1.3125l0 -10.828125l2.375 0l0 9.375q0 0.359375 0.28125 0.640625q0.28125 0.28125 0.640625 0.28125l1.46875 0l0 -10.296875l2.375 0l0 12.671875l-5.296875 0zm7.3250427 0l0 -12.671875l5.296875 0q0.75 0 1.296875 0.546875q0.546875 0.546875 0.546875 1.3125l0 2.765625l-2.375 -0.546875l0 -0.75q0 -0.375 -0.265625 -0.65625q-0.265625 -0.28125 -0.65625 -0.28125l-1.46875 0l0 10.28125l-2.375 0zm9.999207 0q-0.75 0 -1.296875 -0.546875q-0.546875 -0.546875 -0.546875 -1.296875l0 -9.0q0 -0.75 0.546875 -1.28125q0.546875 -0.546875 1.296875 -0.546875l3.453125 0q0.78125 0 1.3125 0.546875q0.53125 0.53125 0.53125 1.28125l0 3.859375q0 0.75 -0.53125 1.296875q-0.53125 0.546875 -1.3125 0.546875l-2.921875 0l0 1.84375q0 0.390625 0.265625 0.65625q0.265625 0.265625 0.671875 0.265625l3.296875 0l0.53125 2.375l-5.296875 0zm0.53125 -7.515625l1.46875 0q0.390625 0 0.65625 -0.265625q0.265625 -0.265625 0.265625 -0.65625l0 -0.9375q0 -0.375 -0.265625 -0.640625q-0.265625 -0.265625 -0.65625 -0.265625l-0.53125 0q-0.40625 0 -0.671875 0.265625q-0.265625 0.265625 -0.265625 0.640625l0 1.859375zm10.339752 7.515625l0 -17.125q0 -0.75 0.53125 -1.28125q0.53125 -0.546875 1.265625 -0.546875l3.46875 0q0.765625 0 1.296875 0.546875q0.53125 0.53125 0.53125 1.28125l0 2.734375l-2.359375 -0.5l0 -0.78125q0 -0.359375 -0.265625 -0.625q-0.265625 -0.265625 -0.640625 -0.265625l-0.5625 0q-0.375 0 -0.640625 0.265625q-0.265625 0.265625 -0.265625 0.625l0 3.03125l2.984375 0l-0.53125 2.375l-2.453125 0l0 10.265625l-2.359375 0zm8.428528 0q-0.78125 0 -1.3125 -0.53125q-0.53125 -0.53125 -0.53125 -1.3125l0 -10.828125l2.375 0l0 9.375q0 0.359375 0.28125 0.640625q0.28125 0.28125 0.640625 0.28125l1.46875 0l0 -10.296875l2.375 0l0 12.671875l-5.296875 0zm6.9244385 0l0 -12.671875l5.28125 0q0.734375 0 1.296875 0.546875q0.5625 0.53125 0.5625 1.28125l0 10.84375l-2.390625 0l0 -9.375q0 -0.40625 -0.28125 -0.65625q-0.265625 -0.25 -0.625 -0.25l-1.46875 0l0 10.28125l-2.375 0zm10.602356 0q-0.78125 0 -1.3125 -0.546875q-0.53125 -0.546875 -0.53125 -1.296875l0 -8.96875q0 -0.765625 0.53125 -1.3125q0.53125 -0.546875 1.3125 -0.546875l3.453125 0q0.75 0 1.296875 0.546875q0.546875 0.546875 0.546875 1.3125l0 2.765625l-2.375 0l0 -1.328125q0 -0.375 -0.28125 -0.640625q-0.28125 -0.265625 -0.65625 -0.265625l-0.53125 0q-0.390625 0 -0.65625 0.265625q-0.265625 0.265625 -0.265625 0.640625l0 6.078125q0 0.390625 0.265625 0.65625q0.265625 0.265625 0.65625 0.265625l0.53125 0q0.375 0 0.65625 -0.265625q0.28125 -0.265625 0.28125 -0.65625l0 -1.3125l2.375 0l0 2.765625q0 0.75 -0.546875 1.296875q-0.546875 0.546875 -1.296875 0.546875l-3.453125 0zm6.8183594 0l0 -18.4375l2.375 -0.53125l0 6.296875l3.015625 0l-0.5625 2.390625l-2.453125 0l0 10.28125l-2.375 0zm6.1546326 -16.0625l0 -2.375l2.375 -0.5625l0 2.390625l-2.375 0.546875zm0.046875 16.0625l0 -12.109375l2.375 -0.5625l0 12.671875l-2.375 0zm6.4577637 0q-0.78125 0 -1.3125 -0.546875q-0.53125 -0.546875 -0.53125 -1.296875l0 -8.96875q0 -0.765625 0.53125 -1.3125q0.53125 -0.546875 1.3125 -0.546875l3.453125 0q0.75 0 1.28125 0.546875q0.53125 0.546875 0.53125 1.3125l0 8.96875q0 0.75 -0.53125 1.296875q-0.53125 0.546875 -1.28125 0.546875l-3.453125 0zm1.453125 -2.375l0.53125 0q0.375 0 0.65625 -0.265625q0.28125 -0.265625 0.28125 -0.65625l0 -6.078125q0 -0.375 -0.28125 -0.640625q-0.28125 -0.265625 -0.65625 -0.265625l-0.53125 0q-0.390625 0 -0.65625 0.265625q-0.265625 0.265625 -0.265625 0.640625l0 6.078125q0 0.390625 0.265625 0.65625q0.265625 0.265625 0.65625 0.265625zm5.470825 2.375l0 -12.671875l5.28125 0q0.734375 0 1.296875 0.546875q0.5625 0.53125 0.5625 1.28125l0 10.84375l-2.390625 0l0 -9.375q0 -0.40625 -0.28125 -0.65625q-0.265625 -0.25 -0.625 -0.25l-1.46875 0l0 10.28125l-2.375 0zm10.586731 0q-0.765625 0 -1.296875 -0.546875q-0.53125 -0.546875 -0.53125 -1.296875l0 -2.109375l2.359375 0l0 0.65625q0 0.390625 0.265625 0.65625q0.28125 0.265625 0.671875 0.265625l0.53125 0q0.375 0 0.640625 -0.265625q0.265625 -0.265625 0.265625 -0.65625l0 -0.9375q0 -0.375 -0.265625 -0.640625q-0.265625 -0.265625 -0.640625 -0.265625l-2.0 0q-0.765625 0 -1.296875 -0.546875q-0.53125 -0.546875 -0.53125 -1.296875l0 -3.828125q0 -0.765625 0.53125 -1.3125q0.53125 -0.546875 1.296875 -0.546875l3.46875 0q0.75 0 1.28125 0.546875q0.53125 0.546875 0.53125 1.3125l0 2.09375l-2.375 0l0 -0.65625q0 -0.375 -0.265625 -0.640625q-0.265625 -0.265625 -0.640625 -0.265625l-0.53125 0q-0.390625 0 -0.671875 0.265625q-0.265625 0.265625 -0.265625 0.640625l0 0.9375q0 0.390625 0.265625 0.65625q0.28125 0.265625 0.671875 0.265625l2.0 0q0.75 0 1.28125 0.546875q0.53125 0.53125 0.53125 1.296875l0 3.921875q-0.015625 0.71875 -0.546875 1.234375q-0.53125 0.515625 -1.265625 0.515625l-3.46875 0z" fill-rule="nonzero"/><path fill="#000000" fill-opacity="0.0" d="m355.65878 76.64829l248.6929 0l0 129.29135l-248.6929 0z" fill-rule="evenodd"/><path fill="#0f1d3e" d="m425.91977 116.36829q-0.96875 0 -0.96875 -0.96875l0 -21.453125q0 -0.96875 0.96875 -0.96875q1.015625 0 1.015625 0.96875l0 21.453125q0 0.96875 -1.015625 0.96875zm4.5119934 0q-0.96875 0 -0.96875 -0.96875l0 -14.625q0 -0.984375 0.96875 -0.984375q1.015625 0 1.015625 0.984375l-0.3125 0.125q-0.15625 -0.3125 0.71875 -0.78125q0.875 -0.484375 1.90625 -0.484375q3.3125 0 3.3125 4.203125l0 11.5625q0 0.96875 -1.0 0.96875q-0.984375 0 -0.984375 -0.96875l0 -11.5625q0 -1.34375 -0.34375 -1.78125q-0.34375 -0.4375 -0.984375 -0.4375q-0.75 0 -1.359375 0.484375q-0.609375 0.484375 -0.953125 1.109375l0 12.1875q0 0.96875 -1.015625 0.96875zm12.964661 0q-1.703125 0 -2.546875 -0.828125q-0.828125 -0.84375 -0.828125 -2.703125l0 -10.734375l-1.515625 0q-0.984375 0 -0.984375 -1.015625q0 -0.96875 0.984375 -0.96875l1.515625 0l0 -3.375q0 -0.984375 1.015625 -0.984375q0.96875 0 0.96875 0.984375l0 3.375l1.515625 0q0.984375 0 0.984375 0.96875q0 1.015625 -0.984375 1.015625l-1.515625 0l0 10.703125q0 1.015625 0.25 1.296875q0.265625 0.28125 1.140625 0.28125q1.015625 0 1.015625 0.96875q0 1.015625 -1.015625 1.015625zm5.9133606 0.15625q-1.375 0 -2.375 -1.171875q-1.0 -1.1875 -1.5 -3.0625q-0.484375 -1.875 -0.484375 -4.21875q0 -2.359375 0.484375 -4.234375q0.5 -1.875 1.453125 -3.03125q0.96875 -1.171875 2.359375 -1.171875q1.296875 0 2.15625 0.984375q0.875 0.96875 1.296875 2.515625q0.4375 1.546875 0.4375 3.453125q0 1.171875 -1.171875 1.171875l-5.140625 -0.140625q0.140625 -0.015625 0.140625 0.453125q0 1.96875 0.359375 3.484375q0.359375 1.5 0.90625 2.25q0.546875 0.734375 1.078125 0.734375q0.53125 0 0.984375 -0.53125q0.453125 -0.53125 0.765625 -1.578125q0.25 -0.734375 0.984375 -0.734375q0.671875 0 0.84375 0.5q0.1875 0.484375 0.0625 0.90625q-0.5 1.515625 -1.390625 2.46875q-0.875 0.953125 -2.25 0.953125zm-0.0625 -14.90625q-0.671875 0 -1.34375 1.296875q-0.671875 1.296875 -0.8125 2.859375l4.046875 0q-0.046875 -1.53125 -0.625 -2.84375q-0.5625 -1.3125 -1.265625 -1.3125zm6.4325256 14.75q-0.96875 0 -0.96875 -0.96875l0 -14.625q0 -0.984375 0.96875 -0.984375q1.015625 0 1.015625 0.984375l-0.3125 0.125q-0.15625 -0.3125 0.71875 -0.78125q0.875 -0.484375 1.90625 -0.484375q3.3125 0 3.3125 4.4375q0 1.03125 -0.96875 1.03125q-1.015625 0 -1.015625 -1.03125q0 -1.515625 -0.34375 -1.984375q-0.34375 -0.46875 -0.984375 -0.46875q-0.75 0 -1.359375 0.484375q-0.609375 0.484375 -0.953125 1.109375l0 12.1875q0 0.96875 -1.015625 0.96875zm9.348389 0q-0.96875 0 -0.96875 -0.96875l0 -13.296875l-1.4375 0q-0.96875 0 -0.96875 -1.015625q0 -0.96875 0.96875 -0.96875l1.4375 0l0 -2.296875q0 -5.578125 5.390625 -5.578125q0.96875 0 0.96875 1.0q0 0.984375 -0.96875 0.984375q-1.828125 0 -2.625 0.828125q-0.78125 0.828125 -0.78125 2.765625l0 2.296875l1.609375 0q0.96875 0 0.96875 0.96875q0 1.015625 -0.96875 1.015625l-1.609375 0l0 13.296875q0 0.96875 -1.015625 0.96875zm6.5866394 0q-1.5 0 -2.40625 -1.0625q-0.90625 -1.0625 -0.90625 -2.734375q0 -3.515625 3.53125 -5.078125l2.421875 -1.046875l0 -2.609375q0 -2.21875 -1.328125 -2.21875q-1.15625 0 -2.125 1.609375q-0.28125 0.46875 -0.8125 0.46875q-1.015625 0 -1.015625 -0.96875q0 -0.296875 0.171875 -0.5625q1.40625 -2.53125 3.78125 -2.53125q3.3125 0 3.3125 4.203125l0 10.46875q-0.078125 0.15625 -0.078125 0.078125q0.0625 0 0.078125 -0.03125q0.296875 -0.28125 0.6875 -0.28125q1.015625 0 1.015625 1.0q0 0.390625 -0.28125 0.6875q-0.625 0.609375 -1.5 0.609375q-1.90625 0 -1.90625 -2.0625l0.5 0q-0.5 1.1875 -1.375 1.625q-0.859375 0.4375 -1.765625 0.4375zm-1.296875 -3.796875q0 0.953125 0.34375 1.390625q0.34375 0.421875 0.953125 0.421875q0.5 0 1.125 -0.34375q0.640625 -0.359375 1.515625 -1.171875l0 -4.25l-1.59375 0.6875q-2.34375 1.015625 -2.34375 3.265625zm12.689392 3.953125q-1.390625 0 -2.359375 -1.15625q-0.953125 -1.171875 -1.453125 -3.046875q-0.484375 -1.875 -0.484375 -4.25q0 -2.390625 0.484375 -4.25q0.5 -1.859375 1.453125 -3.015625q0.96875 -1.171875 2.359375 -1.171875q1.3125 0 2.1875 0.953125q0.890625 0.953125 1.390625 2.4375q0.125 0.421875 -0.0625 0.921875q-0.171875 0.484375 -0.859375 0.484375q-0.71875 0 -0.96875 -0.734375q-0.328125 -1.015625 -0.765625 -1.546875q-0.421875 -0.53125 -0.921875 -0.53125q-0.5 0 -1.03125 0.75q-0.53125 0.734375 -0.890625 2.234375q-0.359375 1.484375 -0.359375 3.46875q0 1.96875 0.359375 3.484375q0.359375 1.5 0.890625 2.25q0.53125 0.734375 1.03125 0.734375q0.5 0 0.921875 -0.53125q0.4375 -0.53125 0.765625 -1.578125q0.25 -0.734375 0.96875 -0.734375q0.6875 0 0.859375 0.5q0.1875 0.484375 0.0625 0.90625q-0.5 1.515625 -1.390625 2.46875q-0.875 0.953125 -2.1875 0.953125zm9.182526 0q-1.375 0 -2.375 -1.171875q-1.0 -1.1875 -1.5 -3.0625q-0.484375 -1.875 -0.484375 -4.21875q0 -2.359375 0.484375 -4.234375q0.5 -1.875 1.453125 -3.03125q0.96875 -1.171875 2.359375 -1.171875q1.296875 0 2.15625 0.984375q0.875 0.96875 1.296875 2.515625q0.4375 1.546875 0.4375 3.453125q0 1.171875 -1.171875 1.171875l-5.140625 -0.140625q0.140625 -0.015625 0.140625 0.453125q0 1.96875 0.359375 3.484375q0.359375 1.5 0.90625 2.25q0.546875 0.734375 1.078125 0.734375q0.53125 0 0.984375 -0.53125q0.453125 -0.53125 0.765625 -1.578125q0.25 -0.734375 0.984375 -0.734375q0.671875 0 0.84375 0.5q0.1875 0.484375 0.0625 0.90625q-0.5 1.515625 -1.390625 2.46875q-0.875 0.953125 -2.25 0.953125zm-0.0625 -14.90625q-0.671875 0 -1.34375 1.296875q-0.671875 1.296875 -0.8125 2.859375l4.046875 0q-0.046875 -1.53125 -0.625 -2.84375q-0.5625 -1.3125 -1.265625 -1.3125zm14.440674 14.75q-0.828125 0 -1.015625 -0.875l-1.25 -14.625q-0.203125 -1.078125 0.984375 -1.078125q0.828125 0 1.0 0.890625l1.078125 12.25q0.109375 -0.140625 0.84375 -1.203125q0.734375 -1.0625 1.015625 -1.5625q-0.375 -0.8125 -0.5625 -1.703125q-0.1875 -0.90625 -0.1875 -1.703125q0 -1.359375 0.40625 -2.328125q0.421875 -0.984375 1.46875 -0.984375q1.03125 0 1.4375 0.984375q0.421875 0.96875 0.421875 2.328125q0 0.796875 -0.1875 1.703125q-0.1875 0.890625 -0.5625 1.703125q0.28125 0.5 1.015625 1.5625q0.734375 1.0625 0.84375 1.203125l1.078125 -12.25q0.171875 -0.890625 1.0 -0.890625q1.1875 0 0.984375 1.078125l-1.25 14.625q-0.1875 0.875 -1.015625 0.875q-0.03125 0 -0.296875 0q-0.25 0 -0.53125 -0.375q-1.25 -1.4375 -2.109375 -2.609375q-0.84375 -1.1875 -0.828125 -1.234375q0 0.046875 -0.859375 1.234375q-0.84375 1.171875 -2.09375 2.609375q-0.28125 0.375 -0.53125 0.375q-0.234375 0 -0.296875 0zm3.890625 -9.609375q0 0.5 0.09375 1.0625q0.109375 0.5625 -0.203125 0.625q-0.328125 -0.046875 -0.234375 -0.609375q0.109375 -0.578125 0.109375 -1.078125q0 -0.765625 0.0625 -1.25q0.0625 -0.484375 0.0625 -0.046875q0 -0.421875 0.046875 0.0625q0.0625 0.46875 0.0625 1.234375zm8.453308 -7.375q-0.96875 0 -0.96875 -0.984375l0 -3.171875q0 -0.96875 0.96875 -0.96875q1.015625 0 1.015625 0.96875l0 3.171875q0 0.984375 -1.015625 0.984375zm0 16.984375q-0.96875 0 -0.96875 -0.96875l0 -14.625q0 -0.984375 0.96875 -0.984375q1.015625 0 1.015625 0.984375l0 14.625q0 0.96875 -1.015625 0.96875zm7.652588 0q-1.703125 0 -2.546875 -0.828125q-0.828125 -0.84375 -0.828125 -2.703125l0 -10.734375l-1.515625 0q-0.984375 0 -0.984375 -1.015625q0 -0.96875 0.984375 -0.96875l1.515625 0l0 -3.375q0 -0.984375 1.015625 -0.984375q0.96875 0 0.96875 0.984375l0 3.375l1.515625 0q0.984375 0 0.984375 0.96875q0 1.015625 -0.984375 1.015625l-1.515625 0l0 10.703125q0 1.015625 0.25 1.296875q0.265625 0.28125 1.140625 0.28125q1.015625 0 1.015625 0.96875q0 1.015625 -1.015625 1.015625zm3.4833984 0q-0.96875 0 -0.96875 -0.96875l0 -22.1875q0 -0.96875 0.96875 -0.96875q1.015625 0 1.015625 0.96875l-0.3125 7.6875q-0.15625 -0.3125 0.71875 -0.78125q0.875 -0.484375 1.90625 -0.484375q3.3125 0 3.3125 4.203125l0 11.5625q0 0.96875 -1.0 0.96875q-0.984375 0 -0.984375 -0.96875l0 -11.5625q0 -1.34375 -0.34375 -1.78125q-0.34375 -0.4375 -0.984375 -0.4375q-0.75 0 -1.359375 0.484375q-0.609375 0.484375 -0.953125 1.109375l0 12.1875q0 0.96875 -1.015625 0.96875z" fill-rule="nonzero"/><path fill="#0f1d3e" d="m426.94836 154.7683q-1.703125 0 -2.546875 -0.828125q-0.828125 -0.84375 -0.828125 -2.703125l0 -10.734375l-1.515625 0q-0.984375 0 -0.984375 -1.015625q0 -0.96875 0.984375 -0.96875l1.515625 0l0 -3.375q0 -0.984375 1.015625 -0.984375q0.96875 0 0.96875 0.984375l0 3.375l1.515625 0q0.984375 0 0.984375 0.96875q0 1.015625 -0.984375 1.015625l-1.515625 0l0 10.703125q0 1.015625 0.25 1.296875q0.265625 0.28125 1.140625 0.28125q1.015625 0 1.015625 0.96875q0 1.015625 -1.015625 1.015625zm3.4833984 0q-0.96875 0 -0.96875 -0.96875l0 -22.1875q0 -0.96875 0.96875 -0.96875q1.015625 0 1.015625 0.96875l-0.3125 7.6875q-0.15625 -0.3125 0.71875 -0.78125q0.875 -0.484375 1.90625 -0.484375q3.3125 0 3.3125 4.203125l0 11.5625q0 0.96875 -1.0 0.96875q-0.984375 0 -0.984375 -0.96875l0 -11.5625q0 -1.34375 -0.34375 -1.78125q-0.34375 -0.4375 -0.984375 -0.4375q-0.75 0 -1.359375 0.484375q-0.609375 0.484375 -0.953125 1.109375l0 12.1875q0 0.96875 -1.015625 0.96875zm12.574005 0.15625q-1.375 0 -2.375 -1.171875q-1.0 -1.1875 -1.5 -3.0625q-0.484375 -1.875 -0.484375 -4.21875q0 -2.359375 0.484375 -4.234375q0.5 -1.875 1.453125 -3.03125q0.96875 -1.171875 2.359375 -1.171875q1.296875 0 2.15625 0.984375q0.875 0.96875 1.296875 2.515625q0.4375 1.546875 0.4375 3.453125q0 1.171875 -1.171875 1.171875l-5.140625 -0.140625q0.140625 -0.015625 0.140625 0.453125q0 1.96875 0.359375 3.484375q0.359375 1.5 0.90625 2.25q0.546875 0.734375 1.078125 0.734375q0.53125 0 0.984375 -0.53125q0.453125 -0.53125 0.765625 -1.578125q0.25 -0.734375 0.984375 -0.734375q0.671875 0 0.84375 0.5q0.1875 0.484375 0.0625 0.90625q-0.5 1.515625 -1.390625 2.46875q-0.875 0.953125 -2.25 0.953125zm-0.0625 -14.90625q-0.671875 0 -1.34375 1.296875q-0.671875 1.296875 -0.8125 2.859375l4.046875 0q-0.046875 -1.53125 -0.625 -2.84375q-0.5625 -1.3125 -1.265625 -1.3125zm14.112549 14.75q-0.96875 0 -0.96875 -0.96875l0 -14.625q0 -0.984375 0.96875 -0.984375q1.015625 0 1.015625 0.984375l-0.3125 0.125q-0.15625 -0.3125 0.71875 -0.78125q0.875 -0.484375 1.90625 -0.484375q3.3125 0 3.3125 4.4375q0 1.03125 -0.96875 1.03125q-1.015625 0 -1.015625 -1.03125q0 -1.515625 -0.34375 -1.984375q-0.34375 -0.46875 -0.984375 -0.46875q-0.75 0 -1.359375 0.484375q-0.609375 0.484375 -0.953125 1.109375l0 12.1875q0 0.96875 -1.015625 0.96875zm10.97403 0.15625q-1.375 0 -2.375 -1.171875q-1.0 -1.1875 -1.5 -3.0625q-0.484375 -1.875 -0.484375 -4.21875q0 -2.359375 0.484375 -4.234375q0.5 -1.875 1.453125 -3.03125q0.96875 -1.171875 2.359375 -1.171875q1.296875 0 2.15625 0.984375q0.875 0.96875 1.296875 2.515625q0.4375 1.546875 0.4375 3.453125q0 1.171875 -1.171875 1.171875l-5.140625 -0.140625q0.140625 -0.015625 0.140625 0.453125q0 1.96875 0.359375 3.484375q0.359375 1.5 0.90625 2.25q0.546875 0.734375 1.078125 0.734375q0.53125 0 0.984375 -0.53125q0.453125 -0.53125 0.765625 -1.578125q0.25 -0.734375 0.984375 -0.734375q0.671875 0 0.84375 0.5q0.1875 0.484375 0.0625 0.90625q-0.5 1.515625 -1.390625 2.46875q-0.875 0.953125 -2.25 0.953125zm-0.0625 -14.90625q-0.671875 0 -1.34375 1.296875q-0.671875 1.296875 -0.8125 2.859375l4.046875 0q-0.046875 -1.53125 -0.625 -2.84375q-0.5625 -1.3125 -1.265625 -1.3125zm7.8075256 14.75q-1.5 0 -2.40625 -1.0625q-0.90625 -1.0625 -0.90625 -2.734375q0 -3.515625 3.53125 -5.078125l2.421875 -1.046875l0 -2.609375q0 -2.21875 -1.328125 -2.21875q-1.15625 0 -2.125 1.609375q-0.28125 0.46875 -0.8125 0.46875q-1.015625 0 -1.015625 -0.96875q0 -0.296875 0.171875 -0.5625q1.40625 -2.53125 3.78125 -2.53125q3.3125 0 3.3125 4.203125l0 10.46875q-0.078125 0.15625 -0.078125 0.078125q0.0625 0 0.078125 -0.03125q0.296875 -0.28125 0.6875 -0.28125q1.015625 0 1.015625 1.0q0 0.390625 -0.28125 0.6875q-0.625 0.609375 -1.5 0.609375q-1.90625 0 -1.90625 -2.0625l0.5 0q-0.5 1.1875 -1.375 1.625q-0.859375 0.4375 -1.765625 0.4375zm-1.296875 -3.796875q0 0.953125 0.34375 1.390625q0.34375 0.421875 0.953125 0.421875q0.5 0 1.125 -0.34375q0.640625 -0.359375 1.515625 -1.171875l0 -4.25l-1.59375 0.6875q-2.34375 1.015625 -2.34375 3.265625zm10.001892 3.796875q-0.96875 0 -0.96875 -0.96875l0 -22.1875q0 -0.96875 0.96875 -0.96875q1.015625 0 1.015625 0.96875l0 22.1875q0 0.96875 -1.015625 0.96875zm12.520142 0q-0.828125 0 -1.015625 -0.875l-1.25 -14.625q-0.203125 -1.078125 0.984375 -1.078125q0.828125 0 1.0 0.890625l1.078125 12.25q0.109375 -0.140625 0.84375 -1.203125q0.734375 -1.0625 1.015625 -1.5625q-0.375 -0.8125 -0.5625 -1.703125q-0.1875 -0.90625 -0.1875 -1.703125q0 -1.359375 0.40625 -2.328125q0.421875 -0.984375 1.46875 -0.984375q1.03125 0 1.4375 0.984375q0.421875 0.96875 0.421875 2.328125q0 0.796875 -0.1875 1.703125q-0.1875 0.890625 -0.5625 1.703125q0.28125 0.5 1.015625 1.5625q0.734375 1.0625 0.84375 1.203125l1.078125 -12.25q0.171875 -0.890625 1.0 -0.890625q1.1875 0 0.984375 1.078125l-1.25 14.625q-0.1875 0.875 -1.015625 0.875q-0.03125 0 -0.296875 0q-0.25 0 -0.53125 -0.375q-1.25 -1.4375 -2.109375 -2.609375q-0.84375 -1.1875 -0.828125 -1.234375q0 0.046875 -0.859375 1.234375q-0.84375 1.171875 -2.09375 2.609375q-0.28125 0.375 -0.53125 0.375q-0.234375 0 -0.296875 0zm3.890625 -9.609375q0 0.5 0.09375 1.0625q0.109375 0.5625 -0.203125 0.625q-0.328125 -0.046875 -0.234375 -0.609375q0.109375 -0.578125 0.109375 -1.078125q0 -0.765625 0.0625 -1.25q0.0625 -0.484375 0.0625 -0.046875q0 -0.421875 0.046875 0.0625q0.0625 0.46875 0.0625 1.234375zm10.980774 9.765625q-1.390625 0 -2.359375 -1.15625q-0.953125 -1.171875 -1.453125 -3.046875q-0.484375 -1.875 -0.484375 -4.25q0 -2.390625 0.484375 -4.25q0.5 -1.859375 1.453125 -3.015625q0.96875 -1.171875 2.359375 -1.171875q1.4062805 0 2.3594055 1.1875q0.953125 1.171875 1.46875 3.03125q0.515625 1.84375 0.515625 4.21875q0 2.359375 -0.515625 4.234375q-0.515625 1.859375 -1.46875 3.046875q-0.953125 1.171875 -2.3594055 1.171875zm0 -1.984375q0.5469055 0 1.0781555 -0.734375q0.53125 -0.75 0.890625 -2.25q0.359375 -1.515625 0.359375 -3.484375q0 -1.984375 -0.359375 -3.46875q-0.359375 -1.5 -0.890625 -2.234375q-0.53125 -0.75 -1.0781555 -0.75q-0.5 0 -1.03125 0.75q-0.53125 0.734375 -0.890625 2.234375q-0.359375 1.484375 -0.359375 3.46875q0 1.96875 0.359375 3.484375q0.359375 1.5 0.890625 2.25q0.53125 0.734375 1.03125 0.734375zm7.200531 1.828125q-0.96875 0 -0.96875 -0.96875l0 -14.625q0 -0.984375 0.96875 -0.984375q1.015625 0 1.015625 0.984375l-0.3125 0.125q-0.15625 -0.3125 0.71875 -0.78125q0.875 -0.484375 1.90625 -0.484375q3.3125 0 3.3125 4.4375q0 1.03125 -0.96875 1.03125q-1.015625 0 -1.015625 -1.03125q0 -1.515625 -0.34375 -1.984375q-0.34375 -0.46875 -0.984375 -0.46875q-0.75 0 -1.359375 0.484375q-0.609375 0.484375 -0.953125 1.109375l0 12.1875q0 0.96875 -1.015625 0.96875zm8.864014 0q-0.96875 0 -0.96875 -0.96875l0 -22.1875q0 -0.96875 0.96875 -0.96875q1.015625 0 1.015625 0.96875l0 22.1875q0 0.96875 -1.015625 0.96875zm9.574524 0q0.96875 0 0.96875 -0.96875l0 -22.1875q0 -0.96875 -0.96875 -0.96875q-1.015625 0 -1.015625 0.96875l0.140625 6.78125q-0.09375 -0.359375 -1.78125 -0.359375q-1.453125 0 -2.34375 1.203125q-0.890625 1.1875 -1.28125 3.046875q-0.390625 1.84375 -0.390625 4.1875q0 2.328125 0.390625 4.203125q0.390625 1.859375 1.28125 3.0625q0.890625 1.1875 2.34375 1.1875q1.6875 0 2.015625 -1.125l-0.375 0q0 0.96875 1.015625 0.96875zm-2.65625 -14.75q0.390625 0 0.875 0.359375q0.484375 0.359375 0.765625 0.96875l0 10.25q-0.296875 0.625 -0.78125 0.984375q-0.46875 0.359375 -0.859375 0.359375q-0.546875 0 -1.0 -0.71875q-0.453125 -0.71875 -0.734375 -2.234375q-0.265625 -1.53125 -0.265625 -3.515625q0 -2.0 0.265625 -3.5q0.28125 -1.5 0.734375 -2.21875q0.453125 -0.734375 1.0 -0.734375z" fill-rule="nonzero"/><path fill="#0f1d3e" d="m402.72095 188.0483l0 -18.65625l9.90625 0l0 2.46875l-7.4375 0l0 4.625l4.96875 0l-0.5625 2.46875l-4.40625 0l0 9.09375l-2.46875 0zm11.381256 0q-0.828125 0 -1.390625 -0.5625q-0.5625 -0.5625 -0.5625 -1.390625l0 -11.375l2.515625 0l0 9.859375q0 0.375 0.28125 0.671875q0.296875 0.296875 0.671875 0.296875l1.546875 0l0 -10.828125l2.5 0l0 13.328125l-5.5625 0zm7.271393 0l0 -13.328125l5.578125 0q0.765625 0 1.34375 0.5625q0.59375 0.5625 0.59375 1.359375l0 11.40625l-2.5 0l0 -9.859375q0 -0.4375 -0.296875 -0.703125q-0.296875 -0.265625 -0.671875 -0.265625l-1.546875 0l0 10.828125l-2.5 0zm11.174042 0q-0.828125 0 -1.390625 -0.5625q-0.5625 -0.578125 -0.5625 -1.390625l0 -9.421875q0 -0.8125 0.5625 -1.375q0.5625 -0.578125 1.390625 -0.578125l3.625 0q0.796875 0 1.359375 0.578125q0.578125 0.5625 0.578125 1.375l0 2.890625l-2.5 0l0 -1.375q0 -0.40625 -0.296875 -0.6875q-0.296875 -0.28125 -0.6875 -0.28125l-0.5625 0q-0.40625 0 -0.6875 0.28125q-0.265625 0.28125 -0.265625 0.6875l0 6.390625q0 0.40625 0.265625 0.6875q0.28125 0.28125 0.6875 0.28125l0.5625 0q0.390625 0 0.6875 -0.28125q0.296875 -0.28125 0.296875 -0.6875l0 -1.375l2.5 0l0 2.890625q0 0.8125 -0.578125 1.390625q-0.5625 0.5625 -1.359375 0.5625l-3.625 0zm7.1630554 0l0 -19.40625l2.515625 -0.5625l0 6.640625l3.171875 0l-0.59375 2.5l-2.578125 0l0 10.828125l-2.515625 0zm6.477234 -16.90625l0 -2.5l2.515625 -0.578125l0 2.5l-2.515625 0.578125zm0.0625 16.90625l0 -12.734375l2.5 -0.59375l0 13.328125l-2.5 0zm6.7852173 0q-0.8125 0 -1.375 -0.5625q-0.5625 -0.578125 -0.5625 -1.390625l0 -9.421875q0 -0.8125 0.5625 -1.375q0.5625 -0.578125 1.375 -0.578125l3.625 0q0.8125 0 1.359375 0.578125q0.5625 0.5625 0.5625 1.375l0 9.421875q0 0.8125 -0.5625 1.390625q-0.546875 0.5625 -1.359375 0.5625l-3.625 0zm1.53125 -2.5l0.546875 0q0.40625 0 0.703125 -0.28125q0.296875 -0.28125 0.296875 -0.6875l0 -6.390625q0 -0.40625 -0.296875 -0.6875q-0.296875 -0.28125 -0.703125 -0.28125l-0.546875 0q-0.40625 0 -0.6875 0.28125q-0.28125 0.28125 -0.28125 0.6875l0 6.390625q0 0.40625 0.28125 0.6875q0.28125 0.28125 0.6875 0.28125zm5.7502747 2.5l0 -13.328125l5.578125 0q0.765625 0 1.34375 0.5625q0.59375 0.5625 0.59375 1.359375l0 11.40625l-2.5 0l0 -9.859375q0 -0.4375 -0.296875 -0.703125q-0.296875 -0.265625 -0.671875 -0.265625l-1.546875 0l0 10.828125l-2.5 0zm11.142792 0q-0.796875 0 -1.359375 -0.5625q-0.5625 -0.578125 -0.5625 -1.390625l0 -2.203125l2.484375 0l0 0.6875q0 0.40625 0.28125 0.6875q0.296875 0.28125 0.703125 0.28125l0.5625 0q0.390625 0 0.671875 -0.28125q0.28125 -0.28125 0.28125 -0.6875l0 -0.984375q0 -0.390625 -0.28125 -0.671875q-0.28125 -0.28125 -0.671875 -0.28125l-2.109375 0q-0.796875 0 -1.359375 -0.578125q-0.5625 -0.578125 -0.5625 -1.375l0 -4.015625q0 -0.8125 0.5625 -1.375q0.5625 -0.578125 1.359375 -0.578125l3.65625 0q0.796875 0 1.359375 0.578125q0.5625 0.5625 0.5625 1.375l0 2.203125l-2.515625 0l0 -0.6875q0 -0.40625 -0.28125 -0.6875q-0.28125 -0.28125 -0.671875 -0.28125l-0.5625 0q-0.40625 0 -0.703125 0.28125q-0.28125 0.28125 -0.28125 0.6875l0 0.984375q0 0.390625 0.28125 0.671875q0.296875 0.28125 0.703125 0.28125l2.109375 0q0.796875 0 1.359375 0.578125q0.5625 0.578125 0.5625 1.375l0 4.125q-0.03125 0.75 -0.59375 1.296875q-0.5625 0.546875 -1.328125 0.546875l-3.65625 0zm13.385956 0q-0.796875 0 -1.375 -0.5625q-0.578125 -0.578125 -0.578125 -1.390625l0 -11.375l2.515625 0l0 9.859375q0 0.40625 0.265625 0.6875q0.28125 0.28125 0.6875 0.28125l1.546875 0l0 -10.828125l2.5 0l0 9.859375q0 0.40625 0.28125 0.6875q0.28125 0.28125 0.6875 0.28125l1.515625 0l0 -10.828125l2.5 0l0 13.328125l-10.546875 0zm12.414459 -16.90625l0 -2.5l2.515625 -0.578125l0 2.5l-2.515625 0.578125zm0.0625 16.90625l0 -12.734375l2.5 -0.59375l0 13.328125l-2.5 0zm4.6289673 0l0 -19.40625l2.515625 -0.5625l0 6.640625l3.171875 0l-0.59375 2.5l-2.578125 0l0 10.828125l-2.515625 0zm6.2105713 0l0 -19.4375l2.515625 -0.546875l0 6.65625l3.0625 0q0.796875 0 1.359375 0.578125q0.5625 0.5625 0.5625 1.375l0 11.375l-2.515625 0l0 -9.859375q0 -0.40625 -0.28125 -0.6875q-0.28125 -0.28125 -0.671875 -0.28125l-1.515625 0l0 10.828125l-2.515625 0zm13.148499 0l0 -18.65625l2.46875 0l0 18.65625l-2.46875 0zm4.3928223 0l7.4375 -18.65625l2.484375 0l-7.4375 18.65625l-2.484375 0zm13.966675 0q-0.75 0 -1.3125 -0.5625q-0.546875 -0.5625 -0.546875 -1.390625l0 -14.765625q0 -0.828125 0.546875 -1.375q0.5625 -0.5625 1.3125 -0.5625l6.046875 0q0.859375 0 1.40625 0.5625q0.546875 0.546875 0.546875 1.375l0 14.765625q0 0.828125 -0.546875 1.390625q-0.546875 0.5625 -1.40625 0.5625l-6.046875 0zm1.515625 -2.453125l3.015625 0q0.453125 0 0.734375 -0.28125q0.28125 -0.296875 0.28125 -0.734375l0 -11.71875q0 -0.453125 -0.28125 -0.734375q-0.28125 -0.28125 -0.734375 -0.28125l-3.015625 0q-0.359375 0 -0.640625 0.28125q-0.28125 0.28125 -0.28125 0.734375l0 11.71875q0 0.4375 0.28125 0.734375q0.28125 0.28125 0.640625 0.28125zm11.121277 2.453125q-0.796875 0 -1.359375 -0.5625q-0.5625 -0.578125 -0.5625 -1.390625l0 -2.203125l2.484375 0l0 0.6875q0 0.40625 0.28125 0.6875q0.296875 0.28125 0.703125 0.28125l0.5625 0q0.390625 0 0.671875 -0.28125q0.28125 -0.28125 0.28125 -0.6875l0 -0.984375q0 -0.390625 -0.28125 -0.671875q-0.28125 -0.28125 -0.671875 -0.28125l-2.109375 0q-0.796875 0 -1.359375 -0.578125q-0.5625 -0.578125 -0.5625 -1.375l0 -4.015625q0 -0.8125 0.5625 -1.375q0.5625 -0.578125 1.359375 -0.578125l3.65625 0q0.796875 0 1.359375 0.578125q0.5625 0.5625 0.5625 1.375l0 2.203125l-2.515625 0l0 -0.6875q0 -0.40625 -0.28125 -0.6875q-0.28125 -0.28125 -0.671875 -0.28125l-0.5625 0q-0.40625 0 -0.703125 0.28125q-0.28125 0.28125 -0.28125 0.6875l0 0.984375q0 0.390625 0.28125 0.671875q0.296875 0.28125 0.703125 0.28125l2.109375 0q0.796875 0 1.359375 0.578125q0.5625 0.578125 0.5625 1.375l0 4.125q-0.03125 0.75 -0.59375 1.296875q-0.5625 0.546875 -1.328125 0.546875l-3.65625 0z" fill-rule="nonzero"/></g></svg>