<svg version="1.1" viewBox="0.0 0.0 960.0 540.0" fill="none" stroke="none" stroke-linecap="square" stroke-miterlimit="10" xmlns:xlink="http://www.w3.org/1999/xlink" xmlns="http://www.w3.org/2000/svg"><clipPath id="g131e2ef866f_0_0.0"><path d="m0 0l960.0 0l0 540.0l-960.0 0l0 -540.0z" clip-rule="nonzero"/></clipPath><g clip-path="url(#g131e2ef866f_0_0.0)"><path fill="none" d="m0 0l960.0 0l0 540.0l-960.0 0z" fill-rule="evenodd"/><path fill="#fff8e2" d="m250.94489 283.30185l0 0c0 -126.50366 102.55145 -229.05513 229.05511 -229.05513l0 0c60.749207 0 119.010254 24.132523 161.96643 67.08869c42.956177 42.95617 67.088684 101.21723 67.088684 161.96643l0 0c0 126.50363 -102.55145 229.05508 -229.05511 229.05508l0 0c-126.50366 0 -229.05511 -102.55145 -229.05511 -229.05508z" fill-rule="evenodd"/><path stroke="#0f1d3e" stroke-width="1.0" stroke-linejoin="round" stroke-linecap="butt" d="m250.94489 283.30185l0 0c0 -126.50366 102.55145 -229.05513 229.05511 -229.05513l0 0c60.749207 0 119.010254 24.132523 161.96643 67.08869c42.956177 42.95617 67.088684 101.21723 67.088684 161.96643l0 0c0 126.50363 -102.55145 229.05508 -229.05511 229.05508l0 0c-126.50366 0 -229.05511 -102.55145 -229.05511 -229.05508z" fill-rule="evenodd"/><path fill="#fff2cc" d="m347.94196 341.1117l0 0c0 -75.13681 59.126617 -136.04726 132.06299 -136.04726l0 0c35.02527 0 68.61603 14.333511 93.38263 39.84732c24.766602 25.51381 38.68036 60.117966 38.68036 96.199936l0 0c0 75.13681 -59.126587 136.04724 -132.06299 136.04724l0 0c-72.93637 0 -132.06299 -60.91043 -132.06299 -136.04724z" fill-rule="evenodd"/><path stroke="#0f1d3e" stroke-width="1.0" stroke-linejoin="round" stroke-linecap="butt" d="m347.94196 341.1117l0 0c0 -75.13681 59.126617 -136.04726 132.06299 -136.04726l0 0c35.02527 0 68.61603 14.333511 93.38263 39.84732c24.766602 25.51381 38.68036 60.117966 38.68036 96.199936l0 0c0 75.13681 -59.126587 136.04724 -132.06299 136.04724l0 0c-72.93637 0 -132.06299 -60.91043 -132.06299 -136.04724z" fill-rule="evenodd"/><path fill="#0f1d3e" d="m419.63144 421.03162q-0.96875 0 -0.96875 -0.96875l0 -21.453125q0 -0.96875 0.96875 -0.96875l6.046875 0q0.984375 0 0.984375 0.96875q0 1.015625 -0.984375 1.015625l-5.03125 0l0 7.875l4.71875 0q0.96875 0 0.96875 0.96875q0 1.015625 -0.96875 1.015625l-4.71875 0l0 10.578125q0 0.96875 -1.015625 0.96875zm10.943634 0.15625q-3.3125 0 -3.3125 -4.203125l0 -11.546875q0 -0.984375 1.015625 -0.984375q0.96875 0 0.96875 0.984375l0 11.546875q0 1.328125 0.34375 1.78125q0.34375 0.4375 0.984375 0.4375q0.765625 0 1.375 -0.484375q0.609375 -0.484375 0.953125 -1.109375l0 -12.171875q0 -0.984375 1.0 -0.984375q0.984375 0 0.984375 0.984375l0 14.625q0 0.96875 -0.984375 0.96875q-1.0 0 -1.0 -0.96875l0.3125 -0.140625q0.15625 0.3125 -0.71875 0.796875q-0.875 0.46875 -1.921875 0.46875zm7.8084106 -0.15625q-0.96875 0 -0.96875 -0.96875l0 -14.625q0 -0.984375 0.96875 -0.984375q1.015625 0 1.015625 0.984375l-0.3125 0.125q-0.15625 -0.3125 0.71875 -0.78125q0.875 -0.484375 1.90625 -0.484375q3.3125 0 3.3125 4.203125l0 11.5625q0 0.96875 -1.0 0.96875q-0.984375 0 -0.984375 -0.96875l0 -11.5625q0 -1.34375 -0.34375 -1.78125q-0.34375 -0.4375 -0.984375 -0.4375q-0.75 0 -1.359375 0.484375q-0.609375 0.484375 -0.953125 1.109375l0 12.1875q0 0.96875 -1.015625 0.96875zm12.511505 0.15625q-1.390625 0 -2.359375 -1.15625q-0.953125 -1.171875 -1.453125 -3.046875q-0.484375 -1.875 -0.484375 -4.25q0 -2.390625 0.484375 -4.25q0.5 -1.859375 1.453125 -3.015625q0.96875 -1.171875 2.359375 -1.171875q1.3125 0 2.1875 0.953125q0.890625 0.953125 1.390625 2.4375q0.125 0.421875 -0.0625 0.921875q-0.171875 0.484375 -0.859375 0.484375q-0.71875 0 -0.96875 -0.734375q-0.328125 -1.015625 -0.765625 -1.546875q-0.421875 -0.53125 -0.921875 -0.53125q-0.5 0 -1.03125 0.75q-0.53125 0.734375 -0.890625 2.234375q-0.359375 1.484375 -0.359375 3.46875q0 1.96875 0.359375 3.484375q0.359375 1.5 0.890625 2.25q0.53125 0.734375 1.03125 0.734375q0.5 0 0.921875 -0.53125q0.4375 -0.53125 0.765625 -1.578125q0.25 -0.734375 0.96875 -0.734375q0.6875 0 0.859375 0.5q0.1875 0.484375 0.0625 0.90625q-0.5 1.515625 -1.390625 2.46875q-0.875 0.953125 -2.1875 0.953125zm8.933136 -0.15625q-1.703125 0 -2.546875 -0.828125q-0.828125 -0.84375 -0.828125 -2.703125l0 -10.734375l-1.515625 0q-0.984375 0 -0.984375 -1.015625q0 -0.96875 0.984375 -0.96875l1.515625 0l0 -3.375q0 -0.984375 1.015625 -0.984375q0.96875 0 0.96875 0.984375l0 3.375l1.515625 0q0.984375 0 0.984375 0.96875q0 1.015625 -0.984375 1.015625l-1.515625 0l0 10.703125q0 1.015625 0.25 1.296875q0.265625 0.28125 1.140625 0.28125q1.015625 0 1.015625 0.96875q0 1.015625 -1.015625 1.015625zm3.4833984 -16.984375q-0.96875 0 -0.96875 -0.984375l0 -3.171875q0 -0.96875 0.96875 -0.96875q1.015625 0 1.015625 0.96875l0 3.171875q0 0.984375 -1.015625 0.984375zm0 16.984375q-0.96875 0 -0.96875 -0.96875l0 -14.625q0 -0.984375 0.96875 -0.984375q1.015625 0 1.015625 0.984375l0 14.625q0 0.96875 -1.015625 0.96875zm7.1994934 0.15625q-1.390625 0 -2.359375 -1.15625q-0.953125 -1.171875 -1.453125 -3.046875q-0.484375 -1.875 -0.484375 -4.25q0 -2.390625 0.484375 -4.25q0.5 -1.859375 1.453125 -3.015625q0.96875 -1.171875 2.359375 -1.171875q1.40625 0 2.359375 1.1875q0.953125 1.171875 1.46875 3.03125q0.515625 1.84375 0.515625 4.21875q0 2.359375 -0.515625 4.234375q-0.515625 1.859375 -1.46875 3.046875q-0.953125 1.171875 -2.359375 1.171875zm0 -1.984375q0.546875 0 1.078125 -0.734375q0.53125 -0.75 0.890625 -2.25q0.359375 -1.515625 0.359375 -3.484375q0 -1.984375 -0.359375 -3.46875q-0.359375 -1.5 -0.890625 -2.234375q-0.53125 -0.75 -1.078125 -0.75q-0.5 0 -1.03125 0.75q-0.53125 0.734375 -0.890625 2.234375q-0.359375 1.484375 -0.359375 3.46875q0 1.96875 0.359375 3.484375q0.359375 1.5 0.890625 2.25q0.53125 0.734375 1.03125 0.734375zm7.200531 1.828125q-0.96875 0 -0.96875 -0.96875l0 -14.625q0 -0.984375 0.96875 -0.984375q1.015625 0 1.015625 0.984375l-0.3125 0.125q-0.15625 -0.3125 0.71875 -0.78125q0.875 -0.484375 1.90625 -0.484375q3.3125 0 3.3125 4.203125l0 11.5625q0 0.96875 -1.0 0.96875q-0.984375 0 -0.984375 -0.96875l0 -11.5625q0 -1.34375 -0.34375 -1.78125q-0.34375 -0.4375 -0.984375 -0.4375q-0.75 0 -1.359375 0.484375q-0.609375 0.484375 -0.953125 1.109375l0 12.1875q0 0.96875 -1.015625 0.96875zm11.199005 0q-1.5 0 -2.40625 -1.0625q-0.90625 -1.0625 -0.90625 -2.734375q0 -3.515625 3.53125 -5.078125l2.421875 -1.046875l0 -2.609375q0 -2.21875 -1.328125 -2.21875q-1.15625 0 -2.125 1.609375q-0.28125 0.46875 -0.8125 0.46875q-1.015625 0 -1.015625 -0.96875q0 -0.296875 0.171875 -0.5625q1.40625 -2.53125 3.78125 -2.53125q3.3125 0 3.3125 4.203125l0 10.46875q-0.078125 0.15625 -0.078125 0.078125q0.0625 0 0.078125 -0.03125q0.296875 -0.28125 0.6875 -0.28125q1.015625 0 1.015625 1.0q0 0.390625 -0.28125 0.6875q-0.625 0.609375 -1.5 0.609375q-1.90625 0 -1.90625 -2.0625l0.5 0q-0.5 1.1875 -1.375 1.625q-0.859375 0.4375 -1.765625 0.4375zm-1.296875 -3.796875q0 0.953125 0.34375 1.390625q0.34375 0.421875 0.953125 0.421875q0.5 0 1.125 -0.34375q0.640625 -0.359375 1.515625 -1.171875l0 -4.25l-1.59375 0.6875q-2.34375 1.015625 -2.34375 3.265625zm10.001892 3.796875q-0.96875 0 -0.96875 -0.96875l0 -22.1875q0 -0.96875 0.96875 -0.96875q1.015625 0 1.015625 0.96875l0 22.1875q0 0.96875 -1.015625 0.96875zm14.879547 0.15625q-1.390625 0 -2.359375 -1.15625q-0.953125 -1.171875 -1.453125 -3.046875q-0.484375 -1.875 -0.484375 -4.25q0 -2.390625 0.484375 -4.25q0.5 -1.859375 1.453125 -3.015625q0.96875 -1.171875 2.359375 -1.171875q1.3125 0 2.1875 0.953125q0.890625 0.953125 1.390625 2.4375q0.125 0.421875 -0.0625 0.921875q-0.171875 0.484375 -0.859375 0.484375q-0.71875 0 -0.96875 -0.734375q-0.328125 -1.015625 -0.765625 -1.546875q-0.421875 -0.53125 -0.921875 -0.53125q-0.5 0 -1.03125 0.75q-0.53125 0.734375 -0.890625 2.234375q-0.359375 1.484375 -0.359375 3.46875q0 1.96875 0.359375 3.484375q0.359375 1.5 0.890625 2.25q0.53125 0.734375 1.03125 0.734375q0.5 0 0.921875 -0.53125q0.4375 -0.53125 0.765625 -1.578125q0.25 -0.734375 0.96875 -0.734375q0.6875 0 0.859375 0.5q0.1875 0.484375 0.0625 0.90625q-0.5 1.515625 -1.390625 2.46875q-0.875 0.953125 -2.1875 0.953125zm9.119995 0q-1.390625 0 -2.359375 -1.15625q-0.953125 -1.171875 -1.453125 -3.046875q-0.484375 -1.875 -0.484375 -4.25q0 -2.390625 0.484375 -4.25q0.5 -1.859375 1.453125 -3.015625q0.96875 -1.171875 2.359375 -1.171875q1.40625 0 2.359375 1.1875q0.953125 1.171875 1.46875 3.03125q0.515625 1.84375 0.515625 4.21875q0 2.359375 -0.515625 4.234375q-0.515625 1.859375 -1.46875 3.046875q-0.953125 1.171875 -2.359375 1.171875zm0 -1.984375q0.546875 0 1.078125 -0.734375q0.53125 -0.75 0.890625 -2.25q0.359375 -1.515625 0.359375 -3.484375q0 -1.984375 -0.359375 -3.46875q-0.359375 -1.5 -0.890625 -2.234375q-0.53125 -0.75 -1.078125 -0.75q-0.5 0 -1.03125 0.75q-0.53125 0.734375 -0.890625 2.234375q-0.359375 1.484375 -0.359375 3.46875q0 1.96875 0.359375 3.484375q0.359375 1.5 0.890625 2.25q0.53125 0.734375 1.03125 0.734375zm7.2005615 1.828125q-0.96875 0 -0.96875 -0.96875l0 -14.625q0 -0.984375 0.96875 -0.984375q1.015625 0 1.015625 0.984375l-0.3125 0.125q-0.15625 -0.3125 0.71875 -0.78125q0.875 -0.484375 1.90625 -0.484375q3.3125 0 3.3125 4.4375q0 1.03125 -0.96875 1.03125q-1.015625 0 -1.015625 -1.03125q0 -1.515625 -0.34375 -1.984375q-0.34375 -0.46875 -0.984375 -0.46875q-0.75 0 -1.359375 0.484375q-0.609375 0.484375 -0.953125 1.109375l0 12.1875q0 0.96875 -1.015625 0.96875zm10.973999 0.15625q-1.375 0 -2.375 -1.171875q-1.0 -1.1875 -1.5 -3.0625q-0.484375 -1.875 -0.484375 -4.21875q0 -2.359375 0.484375 -4.234375q0.5 -1.875 1.453125 -3.03125q0.96875 -1.171875 2.359375 -1.171875q1.296875 0 2.15625 0.984375q0.875 0.96875 1.296875 2.515625q0.4375 1.546875 0.4375 3.453125q0 1.171875 -1.171875 1.171875l-5.140625 -0.140625q0.140625 -0.015625 0.140625 0.453125q0 1.96875 0.359375 3.484375q0.359375 1.5 0.90625 2.25q0.546875 0.734375 1.078125 0.734375q0.53125 0 0.984375 -0.53125q0.453125 -0.53125 0.765625 -1.578125q0.25 -0.734375 0.984375 -0.734375q0.671875 0 0.84375 0.5q0.1875 0.484375 0.0625 0.90625q-0.5 1.515625 -1.390625 2.46875q-0.875 0.953125 -2.25 0.953125zm-0.0625 -14.90625q-0.671875 0 -1.34375 1.296875q-0.671875 1.296875 -0.8125 2.859375l4.046875 0q-0.046875 -1.53125 -0.625 -2.84375q-0.5625 -1.3125 -1.265625 -1.3125z" fill-rule="nonzero"/><path fill="#000000" fill-opacity="0.0" d="m330.54645 63.600662l298.92914 0l0 58.173225l-298.92914 0z" fill-rule="evenodd"/><path fill="#0f1d3e" d="m418.8535 103.32066q-0.96875 0 -0.96875 -0.96875l0 -21.453125q0 -0.96875 0.96875 -0.96875q1.015625 0 1.015625 0.96875l0 21.453125q0 0.96875 -1.015625 0.96875zm4.512024 0q-0.96875 0 -0.96875 -0.96875l0 -14.625q0 -0.984375 0.96875 -0.984375q0.28125 0 0.65625 0.21875q2.890625 1.65625 3.796875 3.015625q0.875 -1.359375 3.78125 -3.03125q0.390625 -0.203125 0.640625 -0.203125q0.96875 0 0.96875 0.984375l0 14.625q0 0.96875 -0.96875 0.96875q-1.015625 0 -1.015625 -0.96875l0 -12.84375q-1.421875 0.890625 -2.265625 2.359375q0.703125 1.390625 0.703125 3.28125q0 1.140625 -0.40625 2.203125q-0.40625 1.046875 -1.46875 1.046875q-1.03125 0 -1.4375 -1.046875q-0.40625 -1.0625 -0.40625 -2.203125q0 -1.890625 0.703125 -3.28125q-0.84375 -1.46875 -2.265625 -2.359375l0 12.84375q0 0.96875 -1.015625 0.96875zm4.5625 -8.171875q0 0.609375 -0.078125 1.15625q-0.0625 0.53125 -0.0625 0.078125q0 0.4375 -0.0625 -0.09375q-0.046875 -0.546875 -0.046875 -1.140625q0 -1.203125 0.125 -1.109375q0.125 -0.09375 0.125 1.109375zm11.149017 8.328125q-1.6875 0 -1.78125 -0.359375l0.140625 5.203125q0 0.984375 -1.015625 0.984375q-0.96875 0 -0.96875 -0.984375l0.28125 -18.921875q0.1875 0.21875 -0.25 0.5625q-0.265625 0.265625 -0.65625 0.265625q-1.015625 0 -1.015625 -1.0q0 -0.484375 0.390625 -0.78125q0.78125 -0.59375 1.25 -0.859375l0 -1.4375q0 -0.96875 0.96875 -0.96875q1.015625 0 1.015625 0.96875l0 0.5625q0.3125 -0.125 1.328125 -0.125q2.359375 0 3.34375 2.3125q0.984375 2.296875 0.984375 6.125q0 2.328125 -0.390625 4.203125q-0.390625 1.859375 -1.28125 3.0625q-0.890625 1.1875 -2.34375 1.1875zm-0.3125 -14.90625q-0.71875 0 -1.328125 0.28125l0 11.296875q0.296875 0.625 0.765625 0.984375q0.484375 0.359375 0.875 0.359375q0.546875 0 1.0 -0.71875q0.46875 -0.734375 0.734375 -2.25q0.265625 -1.515625 0.265625 -3.5q0 -3.21875 -0.59375 -4.828125q-0.578125 -1.625 -1.71875 -1.625zm10.263031 14.90625q-1.375 0 -2.375 -1.171875q-1.0 -1.1875 -1.5 -3.0625q-0.484375 -1.875 -0.484375 -4.21875q0 -2.359375 0.484375 -4.234375q0.5 -1.875 1.453125 -3.03125q0.96875 -1.171875 2.359375 -1.171875q1.296875 0 2.15625 0.984375q0.875 0.96875 1.296875 2.515625q0.4375 1.546875 0.4375 3.453125q0 1.171875 -1.171875 1.171875l-5.140625 -0.140625q0.140625 -0.015625 0.140625 0.453125q0 1.96875 0.359375 3.484375q0.359375 1.5 0.90625 2.25q0.546875 0.734375 1.078125 0.734375q0.53125 0 0.984375 -0.53125q0.453125 -0.53125 0.765625 -1.578125q0.25 -0.734375 0.984375 -0.734375q0.671875 0 0.84375 0.5q0.1875 0.484375 0.0625 0.90625q-0.5 1.515625 -1.390625 2.46875q-0.875 0.953125 -2.25 0.953125zm-0.0625 -14.90625q-0.671875 0 -1.34375 1.296875q-0.671875 1.296875 -0.8125 2.859375l4.046875 0q-0.046875 -1.53125 -0.625 -2.84375q-0.5625 -1.3125 -1.265625 -1.3125zm6.4325256 14.75q-0.96875 0 -0.96875 -0.96875l0 -14.625q0 -0.984375 0.96875 -0.984375q1.015625 0 1.015625 0.984375l-0.3125 0.125q-0.15625 -0.3125 0.71875 -0.78125q0.875 -0.484375 1.90625 -0.484375q3.3125 0 3.3125 4.4375q0 1.03125 -0.96875 1.03125q-1.015625 0 -1.015625 -1.03125q0 -1.515625 -0.34375 -1.984375q-0.34375 -0.46875 -0.984375 -0.46875q-0.75 0 -1.359375 0.484375q-0.609375 0.484375 -0.953125 1.109375l0 12.1875q0 0.96875 -1.015625 0.96875zm10.239014 0q-1.5 0 -2.40625 -1.0625q-0.90625 -1.0625 -0.90625 -2.734375q0 -3.515625 3.53125 -5.078125l2.421875 -1.046875l0 -2.609375q0 -2.21875 -1.328125 -2.21875q-1.15625 0 -2.125 1.609375q-0.28125 0.46875 -0.8125 0.46875q-1.015625 0 -1.015625 -0.96875q0 -0.296875 0.171875 -0.5625q1.40625 -2.53125 3.78125 -2.53125q3.3125 0 3.3125 4.203125l0 10.46875q-0.078125 0.15625 -0.078125 0.078125q0.0625 0 0.078125 -0.03125q0.296875 -0.28125 0.6875 -0.28125q1.015625 0 1.015625 1.0q0 0.390625 -0.28125 0.6875q-0.625 0.609375 -1.5 0.609375q-1.90625 0 -1.90625 -2.0625l0.5 0q-0.5 1.1875 -1.375 1.625q-0.859375 0.4375 -1.765625 0.4375zm-1.296875 -3.796875q0 0.953125 0.34375 1.390625q0.34375 0.421875 0.953125 0.421875q0.5 0 1.125 -0.34375q0.640625 -0.359375 1.515625 -1.171875l0 -4.25l-1.59375 0.6875q-2.34375 1.015625 -2.34375 3.265625zm12.502533 3.796875q-1.703125 0 -2.546875 -0.828125q-0.828125 -0.84375 -0.828125 -2.703125l0 -10.734375l-1.515625 0q-0.984375 0 -0.984375 -1.015625q0 -0.96875 0.984375 -0.96875l1.515625 0l0 -3.375q0 -0.984375 1.015625 -0.984375q0.96875 0 0.96875 0.984375l0 3.375l1.515625 0q0.984375 0 0.984375 0.96875q0 1.015625 -0.984375 1.015625l-1.515625 0l0 10.703125q0 1.015625 0.25 1.296875q0.265625 0.28125 1.140625 0.28125q1.015625 0 1.015625 0.96875q0 1.015625 -1.015625 1.015625zm3.483368 -16.984375q-0.96875 0 -0.96875 -0.984375l0 -3.171875q0 -0.96875 0.96875 -0.96875q1.015625 0 1.015625 0.96875l0 3.171875q0 0.984375 -1.015625 0.984375zm0 16.984375q-0.96875 0 -0.96875 -0.96875l0 -14.625q0 -0.984375 0.96875 -0.984375q1.015625 0 1.015625 0.984375l0 14.625q0 0.96875 -1.015625 0.96875zm6.824524 0q-0.78125 0 -0.96875 -0.75l-3.578125 -14.609375q-0.09375 -0.484375 0.1875 -0.84375q0.28125 -0.375 0.765625 -0.375q0.78125 0 0.96875 0.75l2.65625 10.8125l2.625 -10.8125q0.1875 -0.75 0.953125 -0.75q0.4375 0 0.78125 0.375q0.359375 0.375 0.171875 0.890625l-3.59375 14.59375q-0.265625 0.71875 -0.96875 0.71875zm9.557526 0.15625q-1.375 0 -2.375 -1.171875q-1.0 -1.1875 -1.5 -3.0625q-0.484375 -1.875 -0.484375 -4.21875q0 -2.359375 0.484375 -4.234375q0.5 -1.875 1.453125 -3.03125q0.96875 -1.171875 2.359375 -1.171875q1.296875 0 2.15625 0.984375q0.875 0.96875 1.296875 2.515625q0.4375 1.546875 0.4375 3.453125q0 1.171875 -1.171875 1.171875l-5.140625 -0.140625q0.140625 -0.015625 0.140625 0.453125q0 1.96875 0.359375 3.484375q0.359375 1.5 0.90625 2.25q0.546875 0.734375 1.078125 0.734375q0.53125 0 0.984375 -0.53125q0.453125 -0.53125 0.765625 -1.578125q0.25 -0.734375 0.984375 -0.734375q0.671875 0 0.84375 0.5q0.1875 0.484375 0.0625 0.90625q-0.5 1.515625 -1.390625 2.46875q-0.875 0.953125 -2.25 0.953125zm-0.0625 -14.90625q-0.671875 0 -1.34375 1.296875q-0.671875 1.296875 -0.8125 2.859375l4.046875 0q-0.046875 -1.53125 -0.625 -2.84375q-0.5625 -1.3125 -1.265625 -1.3125zm16.034454 14.75q-1.5312805 0 -2.6562805 -1.03125q-1.125 -1.03125 -1.34375 -2.53125q-0.109375 -0.484375 0.21875 -0.8125q0.34375 -0.328125 0.78125 -0.328125q0.78125 0 0.953125 0.8125q0.125 0.828125 0.703125 1.375q0.578125 0.53125 1.3437805 0.53125q0.4375 0 0.875 -0.1875q0.4375 -0.1875 0.734375 -0.640625q0.296875 -0.46875 0.296875 -1.296875q0 -0.96875 -0.453125 -1.65625q-0.4375 -0.703125 -1.28125 -1.34375l-0.703125 -0.546875q-1.5625305 -1.234375 -2.2812805 -2.40625q-0.71875 -1.1875 -0.71875 -2.65625q0 -1.890625 1.15625 -2.875q1.15625 -0.984375 2.4687805 -0.984375q1.15625 0 2.015625 0.65625q0.875 0.640625 1.296875 1.6875q0.234375 0.390625 -0.03125 0.90625q-0.265625 0.5 -0.84375 0.5q-0.640625 0 -0.90625 -0.59375q-0.515625 -1.171875 -1.53125 -1.171875q-0.703125 0 -1.1562805 0.46875q-0.453125 0.453125 -0.453125 1.40625q0 1.0 0.453125 1.71875q0.45315552 0.71875 1.7656555 1.765625l0.765625 0.609375q1.078125 0.828125 1.765625 1.921875q0.6875 1.09375 0.6875 2.59375q0 1.828125 -1.125 2.96875q-1.109375 1.140625 -2.796875 1.140625zm6.302124 0q-0.96875 0 -0.96875 -0.96875l0 -22.1875q0 -0.96875 0.96875 -0.96875q1.015625 0 1.015625 0.96875l-0.3125 7.6875q-0.15625 -0.3125 0.71875 -0.78125q0.875 -0.484375 1.90625 -0.484375q3.3125 0 3.3125 4.203125l0 11.5625q0 0.96875 -1.0 0.96875q-0.984375 0 -0.984375 -0.96875l0 -11.5625q0 -1.34375 -0.34375 -1.78125q-0.34375 -0.4375 -0.984375 -0.4375q-0.75 0 -1.359375 0.484375q-0.609375 0.484375 -0.953125 1.109375l0 12.1875q0 0.96875 -1.015625 0.96875zm12.574036 0.15625q-1.375 0 -2.375 -1.171875q-1.0 -1.1875 -1.5 -3.0625q-0.484375 -1.875 -0.484375 -4.21875q0 -2.359375 0.484375 -4.234375q0.5 -1.875 1.453125 -3.03125q0.96875 -1.171875 2.359375 -1.171875q1.296875 0 2.15625 0.984375q0.875 0.96875 1.296875 2.515625q0.4375 1.546875 0.4375 3.453125q0 1.171875 -1.171875 1.171875l-5.140625 -0.140625q0.140625 -0.015625 0.140625 0.453125q0 1.96875 0.359375 3.484375q0.359375 1.5 0.90625 2.25q0.546875 0.734375 1.078125 0.734375q0.53125 0 0.984375 -0.53125q0.453125 -0.53125 0.765625 -1.578125q0.25 -0.734375 0.984375 -0.734375q0.671875 0 0.84375 0.5q0.1875 0.484375 0.0625 0.90625q-0.5 1.515625 -1.390625 2.46875q-0.875 0.953125 -2.25 0.953125zm-0.0625 -14.90625q-0.671875 0 -1.34375 1.296875q-0.671875 1.296875 -0.8125 2.859375l4.046875 0q-0.046875 -1.53125 -0.625 -2.84375q-0.5625 -1.3125 -1.265625 -1.3125zm6.432495 14.75q-0.96875 0 -0.96875 -0.96875l0 -22.1875q0 -0.96875 0.96875 -0.96875q1.015625 0 1.015625 0.96875l0 22.1875q0 0.96875 -1.015625 0.96875zm4.512024 0q-0.96875 0 -0.96875 -0.96875l0 -22.1875q0 -0.96875 0.96875 -0.96875q1.015625 0 1.015625 0.96875l0 22.1875q0 0.96875 -1.015625 0.96875z" fill-rule="nonzero"/><path fill="#000000" fill-opacity="0.0" d="m356.2966 134.55917l0 0c0 -3.2297058 2.618164 -5.847885 5.84787 -5.847885l58.477448 0c1.5509644 0 3.038391 0.6161194 4.1351013 1.7127991c1.0966797 1.096695 1.7127991 2.5841217 1.7127991 4.135086l0 23.390839c0 3.2297058 -2.6181946 5.847885 -5.8479004 5.847885l-58.477448 0c-3.2297058 0 -5.84787 -2.6181793 -5.84787 -5.847885z" fill-rule="evenodd"/><path stroke="#0f1d3e" stroke-width="1.0" stroke-linejoin="round" stroke-linecap="butt" d="m356.2966 134.55917l0 0c0 -3.2297058 2.618164 -5.847885 5.84787 -5.847885l58.477448 0c1.5509644 0 3.038391 0.6161194 4.1351013 1.7127991c1.0966797 1.096695 1.7127991 2.5841217 1.7127991 4.135086l0 23.390839c0 3.2297058 -2.6181946 5.847885 -5.8479004 5.847885l-58.477448 0c-3.2297058 0 -5.84787 -2.6181793 -5.84787 -5.847885z" fill-rule="evenodd"/><path fill="#000000" d="m374.13248 155.8546l0 -13.328125l10.59375 0q0.796875 0 1.34375 0.578125q0.5625 0.5625 0.5625 1.375l0 11.375l-2.46875 0l0 -9.859375q0 -0.40625 -0.296875 -0.6875q-0.296875 -0.28125 -0.6875 -0.28125l-1.53125 0l0 10.828125l-2.5 0l0 -9.859375q0 -0.40625 -0.296875 -0.6875q-0.296875 -0.28125 -0.6875 -0.28125l-1.515625 0l0 10.828125l-2.515625 0zm15.894745 0q-0.796875 0 -1.375 -0.5625q-0.578125 -0.5625 -0.578125 -1.390625l0 -4.015625q0 -0.796875 0.578125 -1.375q0.578125 -0.578125 1.375 -0.578125l2.078125 0q0.421875 0 0.703125 -0.28125q0.28125 -0.28125 0.28125 -0.671875l0 -0.984375q0 -0.40625 -0.28125 -0.6875q-0.28125 -0.28125 -0.703125 -0.28125l-2.875 0l0.546875 -2.5l3.875 0q0.796875 0 1.359375 0.578125q0.578125 0.5625 0.578125 1.375l0 11.375l-5.5625 0zm1.515625 -2.5l1.546875 0l0 -2.90625l-1.546875 0q-0.40625 0 -0.6875 0.28125q-0.265625 0.28125 -0.265625 0.671875l0 0.984375q0 0.40625 0.265625 0.6875q0.28125 0.28125 0.6875 0.28125zm5.6474304 -14.40625l0 -2.5l2.515625 -0.578125l0 2.5l-2.515625 0.578125zm0.0625 16.90625l0 -12.734375l2.5 -0.59375l0 13.328125l-2.5 0zm4.2039795 0l0 -13.328125l5.578125 0q0.765625 0 1.34375 0.5625q0.59375 0.5625 0.59375 1.359375l0 11.40625l-2.5 0l0 -9.859375q0 -0.4375 -0.296875 -0.703125q-0.296875 -0.265625 -0.671875 -0.265625l-1.546875 0l0 10.828125l-2.5 0z" fill-rule="nonzero"/><path fill="#000000" fill-opacity="0.0" d="m445.5853 308.96863l0 0c0 -3.2297058 2.6181946 -5.8479004 5.8479004 -5.8479004l138.57193 0c1.5509644 0 3.038391 0.6161194 4.135071 1.7127991c1.0966797 1.0967102 1.7128296 2.584137 1.7128296 4.1351013l0 23.390839c0 3.2297058 -2.618225 5.84787 -5.8479004 5.84787l-138.57193 0c-3.2297058 0 -5.8479004 -2.618164 -5.8479004 -5.84787z" fill-rule="evenodd"/><path stroke="#0f1d3e" stroke-width="1.0" stroke-linejoin="round" stroke-linecap="butt" d="m445.5853 308.96863l0 0c0 -3.2297058 2.6181946 -5.8479004 5.8479004 -5.8479004l138.57193 0c1.5509644 0 3.038391 0.6161194 4.135071 1.7127991c1.0966797 1.0967102 1.7128296 2.584137 1.7128296 4.1351013l0 23.390839c0 3.2297058 -2.618225 5.84787 -5.8479004 5.84787l-138.57193 0c-3.2297058 0 -5.8479004 -2.618164 -5.8479004 -5.84787z" fill-rule="evenodd"/><path fill="#000000" d="m459.04767 330.26404l0 -19.40625l2.515625 -0.5625l0 6.640625l3.171875 0l-0.59375 2.5l-2.578125 0l0 10.828125l-2.515625 0zm6.477234 0l0 -13.328125l5.578125 0q0.796875 0 1.359375 0.578125q0.578125 0.5625 0.578125 1.375l0 2.890625l-2.5 -0.546875l0 -0.8125q0 -0.390625 -0.28125 -0.6875q-0.28125 -0.296875 -0.671875 -0.296875l-1.546875 0l0 10.828125l-2.515625 0zm9.735962 0q-0.796875 0 -1.375 -0.5625q-0.578125 -0.5625 -0.578125 -1.390625l0 -4.015625q0 -0.796875 0.578125 -1.375q0.578125 -0.578125 1.375 -0.578125l2.078125 0q0.421875 0 0.703125 -0.28125q0.28125 -0.28125 0.28125 -0.671875l0 -0.984375q0 -0.40625 -0.28125 -0.6875q-0.28125 -0.28125 -0.703125 -0.28125l-2.875 0l0.546875 -2.5l3.875 0q0.796875 0 1.359375 0.578125q0.578125 0.5625 0.578125 1.375l0 11.375l-5.5625 0zm1.515625 -2.5l1.546875 0l0 -2.90625l-1.546875 0q-0.40625 0 -0.6875 0.28125q-0.265625 0.28125 -0.265625 0.671875l0 0.984375q0 0.40625 0.265625 0.6875q0.28125 0.28125 0.6875 0.28125zm5.6474304 -14.40625l0 -2.5l2.515625 -0.578125l0 2.5l-2.515625 0.578125zm0.0625 16.90625l0 -12.734375l2.5 -0.59375l0 13.328125l-2.5 0zm4.2039795 0l0 -13.328125l5.578125 0q0.765625 0 1.34375 0.5625q0.59375 0.5625 0.59375 1.359375l0 11.40625l-2.5 0l0 -9.859375q0 -0.4375 -0.296875 -0.703125q-0.296875 -0.265625 -0.671875 -0.265625l-1.546875 0l0 10.828125l-2.5 0zm10.020905 0l0 -1.25l10.0 0l0 1.25l-10.0 0zm14.081696 0q-0.828125 0 -1.390625 -0.5625q-0.5625 -0.578125 -0.5625 -1.390625l0 -9.421875q0 -0.8125 0.5625 -1.375q0.5625 -0.578125 1.390625 -0.578125l3.6249695 0q0.796875 0 1.359375 0.578125q0.578125 0.5625 0.578125 1.375l0 2.890625l-2.5 0l0 -1.375q0 -0.40625 -0.296875 -0.6875q-0.296875 -0.28125 -0.6875 -0.28125l-0.5625 0q-0.40621948 0 -0.6874695 0.28125q-0.265625 0.28125 -0.265625 0.6875l0 6.390625q0 0.40625 0.265625 0.6875q0.28125 0.28125 0.6874695 0.28125l0.5625 0q0.390625 0 0.6875 -0.28125q0.296875 -0.28125 0.296875 -0.6875l0 -1.375l2.5 0l0 2.890625q0 0.8125 -0.578125 1.390625q-0.5625 0.5625 -1.359375 0.5625l-3.6249695 0zm7.429718 0l0 -19.375l2.515625 -0.5625l0 19.9375l-2.515625 0zm6.0579834 0q-0.796875 0 -1.375 -0.5625q-0.578125 -0.5625 -0.578125 -1.390625l0 -4.015625q0 -0.796875 0.578125 -1.375q0.578125 -0.578125 1.375 -0.578125l2.078125 0q0.421875 0 0.703125 -0.28125q0.28125 -0.28125 0.28125 -0.671875l0 -0.984375q0 -0.40625 -0.28125 -0.6875q-0.28125 -0.28125 -0.703125 -0.28125l-2.875 0l0.546875 -2.5l3.875 0q0.796875 0 1.359375 0.578125q0.578125 0.5625 0.578125 1.375l0 11.375l-5.5625 0zm1.515625 -2.5l1.546875 0l0 -2.90625l-1.546875 0q-0.40625 0 -0.6875 0.28125q-0.265625 0.28125 -0.265625 0.671875l0 0.984375q0 0.40625 0.265625 0.6875q0.28125 0.28125 0.6875 0.28125zm7.569275 2.5q-0.796875 0 -1.359375 -0.5625q-0.5625 -0.578125 -0.5625 -1.390625l0 -2.203125l2.484375 0l0 0.6875q0 0.40625 0.28125 0.6875q0.296875 0.28125 0.703125 0.28125l0.5625 0q0.390625 0 0.671875 -0.28125q0.28125 -0.28125 0.28125 -0.6875l0 -0.984375q0 -0.390625 -0.28125 -0.671875q-0.28125 -0.28125 -0.671875 -0.28125l-2.109375 0q-0.796875 0 -1.359375 -0.578125q-0.5625 -0.578125 -0.5625 -1.375l0 -4.015625q0 -0.8125 0.5625 -1.375q0.5625 -0.578125 1.359375 -0.578125l3.65625 0q0.796875 0 1.359375 0.578125q0.5625 0.5625 0.5625 1.375l0 2.203125l-2.515625 0l0 -0.6875q0 -0.40625 -0.28125 -0.6875q-0.28125 -0.28125 -0.671875 -0.28125l-0.5625 0q-0.40625 0 -0.703125 0.28125q-0.28125 0.28125 -0.28125 0.6875l0 0.984375q0 0.390625 0.28125 0.671875q0.296875 0.28125 0.703125 0.28125l2.109375 0q0.796875 0 1.359375 0.578125q0.5625 0.578125 0.5625 1.375l0 4.125q-0.03125 0.75 -0.59375 1.296875q-0.5625 0.546875 -1.328125 0.546875l-3.65625 0zm9.356201 0q-0.796875 0 -1.359375 -0.5625q-0.5625 -0.578125 -0.5625 -1.390625l0 -2.203125l2.484375 0l0 0.6875q0 0.40625 0.28125 0.6875q0.296875 0.28125 0.703125 0.28125l0.5625 0q0.390625 0 0.671875 -0.28125q0.28125 -0.28125 0.28125 -0.6875l0 -0.984375q0 -0.390625 -0.28125 -0.671875q-0.28125 -0.28125 -0.671875 -0.28125l-2.109375 0q-0.796875 0 -1.359375 -0.578125q-0.5625 -0.578125 -0.5625 -1.375l0 -4.015625q0 -0.8125 0.5625 -1.375q0.5625 -0.578125 1.359375 -0.578125l3.65625 0q0.796875 0 1.359375 0.578125q0.5625 0.5625 0.5625 1.375l0 2.203125l-2.515625 0l0 -0.6875q0 -0.40625 -0.28125 -0.6875q-0.28125 -0.28125 -0.671875 -0.28125l-0.5625 0q-0.40625 0 -0.703125 0.28125q-0.28125 0.28125 -0.28125 0.6875l0 0.984375q0 0.390625 0.28125 0.671875q0.296875 0.28125 0.703125 0.28125l2.109375 0q0.796875 0 1.359375 0.578125q0.5625 0.578125 0.5625 1.375l0 4.125q-0.03125 0.75 -0.59375 1.296875q-0.5625 0.546875 -1.328125 0.546875l-3.65625 0zm6.901001 -16.90625l0 -2.5l2.515625 -0.578125l0 2.5l-2.515625 0.578125zm0.0625 16.90625l0 -12.734375l2.5 -0.59375l0 13.328125l-2.5 0zm4.3633423 0l0 -18.015625q0 -0.796875 0.5625 -1.359375q0.5625 -0.5625 1.328125 -0.5625l3.65625 0q0.796875 0 1.359375 0.5625q0.5625 0.5625 0.5625 1.359375l0 2.875l-2.484375 -0.53125l0 -0.828125q0 -0.375 -0.28125 -0.65625q-0.28125 -0.28125 -0.671875 -0.28125l-0.59375 0q-0.390625 0 -0.671875 0.28125q-0.28125 0.28125 -0.28125 0.65625l0 3.203125l3.140625 0l-0.5625 2.5l-2.578125 0l0 10.796875l-2.484375 0zm6.796875 0l0 -12.734375l2.515625 -0.59375l0 13.328125l-2.515625 0zm6.3242188 0q-0.796875 0 -1.375 -0.5625q-0.578125 -0.578125 -0.578125 -1.390625l0 -9.453125q0 -0.796875 0.578125 -1.359375q0.578125 -0.5625 1.375 -0.5625l3.625 0q0.828125 0 1.375 0.5625q0.5625 0.5625 0.5625 1.359375l0 4.046875q0 0.796875 -0.5625 1.375q-0.546875 0.578125 -1.375 0.578125l-3.0625 0l0 1.9375q0 0.40625 0.265625 0.6875q0.28125 0.28125 0.71875 0.28125l3.46875 0l0.546875 2.5l-5.5625 0zm0.5625 -7.921875l1.546875 0q0.390625 0 0.671875 -0.28125q0.28125 -0.28125 0.28125 -0.671875l0 -0.984375q0 -0.40625 -0.28125 -0.6875q-0.28125 -0.28125 -0.671875 -0.28125l-0.5625 0q-0.4375 0 -0.71875 0.28125q-0.265625 0.28125 -0.265625 0.6875l0 1.9375z" fill-rule="nonzero"/><path fill="#000000" d="m574.86615 330.26404l0 -13.328125l5.578125 0q0.796875 0 1.359375 0.578125q0.578125 0.5625 0.578125 1.375l0 2.890625l-2.5 -0.546875l0 -0.8125q0 -0.390625 -0.28125 -0.6875q-0.28125 -0.296875 -0.671875 -0.296875l-1.546875 0l0 10.828125l-2.515625 0z" fill-rule="nonzero"/><path fill="#000000" fill-opacity="0.0" d="m356.2966 348.0736l0 0c0 -3.2297058 2.618164 -5.8479004 5.84787 -5.8479004l85.21762 0c1.5509644 0 3.038391 0.6161194 4.135071 1.7128296c1.0967102 1.0966797 1.7127991 2.5841064 1.7127991 4.135071l0 23.390839c0 3.2297058 -2.618164 5.8479004 -5.84787 5.8479004l-85.21762 0c-3.2297058 0 -5.84787 -2.6181946 -5.84787 -5.8479004z" fill-rule="evenodd"/><path stroke="#0f1d3e" stroke-width="1.0" stroke-linejoin="round" stroke-linecap="butt" d="m356.2966 348.0736l0 0c0 -3.2297058 2.618164 -5.8479004 5.84787 -5.8479004l85.21762 0c1.5509644 0 3.038391 0.6161194 4.135071 1.7128296c1.0967102 1.0966797 1.7127991 2.5841064 1.7127991 4.135071l0 23.390839c0 3.2297058 -2.618164 5.8479004 -5.84787 5.8479004l-85.21762 0c-3.2297058 0 -5.84787 -2.6181946 -5.84787 -5.8479004z" fill-rule="evenodd"/><path fill="#000000" d="m375.66232 369.36902q-0.796875 0 -1.375 -0.5625q-0.578125 -0.578125 -0.578125 -1.390625l0 -9.453125q0 -0.796875 0.578125 -1.359375q0.578125 -0.5625 1.375 -0.5625l3.625 0q0.828125 0 1.375 0.5625q0.5625 0.5625 0.5625 1.359375l0 4.046875q0 0.796875 -0.5625 1.375q-0.546875 0.578125 -1.375 0.578125l-3.0625 0l0 1.9375q0 0.40625 0.265625 0.6875q0.28125 0.28125 0.71875 0.28125l3.46875 0l0.546875 2.5l-5.5625 0zm0.5625 -7.921875l1.546875 0q0.390625 0 0.671875 -0.28125q0.28125 -0.28125 0.28125 -0.671875l0 -0.984375q0 -0.40625 -0.28125 -0.6875q-0.28125 -0.28125 -0.671875 -0.28125l-0.5625 0q-0.4375 0 -0.71875 0.28125q-0.265625 0.28125 -0.265625 0.6875l0 1.9375zm8.30368 7.921875l-2.5 -13.328125l2.5 0l1.265625 6.671875l1.25 -6.671875l2.5 0l-2.5 13.328125l-2.515625 0zm7.23349 0q-0.796875 0 -1.375 -0.5625q-0.578125 -0.5625 -0.578125 -1.390625l0 -4.015625q0 -0.796875 0.578125 -1.375q0.578125 -0.578125 1.375 -0.578125l2.078125 0q0.421875 0 0.703125 -0.28125q0.28125 -0.28125 0.28125 -0.671875l0 -0.984375q0 -0.40625 -0.28125 -0.6875q-0.28125 -0.28125 -0.703125 -0.28125l-2.875 0l0.546875 -2.5l3.875 0q0.796875 0 1.359375 0.578125q0.578125 0.5625 0.578125 1.375l0 11.375l-5.5625 0zm1.515625 -2.5l1.546875 0l0 -2.90625l-1.546875 0q-0.40625 0 -0.6875 0.28125q-0.265625 0.28125 -0.265625 0.671875l0 0.984375q0 0.40625 0.265625 0.6875q0.28125 0.28125 0.6875 0.28125zm5.9141235 2.5l0 -19.375l2.515625 -0.5625l0 19.9375l-2.515625 0zm6.591278 0q-0.828125 0 -1.390625 -0.5625q-0.5625 -0.5625 -0.5625 -1.390625l0 -11.375l2.515625 0l0 9.859375q0 0.375 0.28125 0.671875q0.296875 0.296875 0.671875 0.296875l1.546875 0l0 -10.828125l2.5 0l0 13.328125l-5.5625 0zm8.849518 0q-0.796875 0 -1.375 -0.5625q-0.578125 -0.5625 -0.578125 -1.390625l0 -4.015625q0 -0.796875 0.578125 -1.375q0.578125 -0.578125 1.375 -0.578125l2.078125 0q0.421875 0 0.703125 -0.28125q0.28125 -0.28125 0.28125 -0.671875l0 -0.984375q0 -0.40625 -0.28125 -0.6875q-0.28125 -0.28125 -0.703125 -0.28125l-2.875 0l0.546875 -2.5l3.875 0q0.796875 0 1.359375 0.578125q0.578125 0.5625 0.578125 1.375l0 11.375l-5.5625 0zm1.515625 -2.5l1.546875 0l0 -2.90625l-1.546875 0q-0.40625 0 -0.6875 0.28125q-0.265625 0.28125 -0.265625 0.671875l0 0.984375q0 0.40625 0.265625 0.6875q0.28125 0.28125 0.6875 0.28125zm5.6474304 2.5l0 -19.40625l2.515625 -0.5625l0 6.640625l3.171875 0l-0.59375 2.5l-2.578125 0l0 10.828125l-2.515625 0zm8.430359 0q-0.796875 0 -1.375 -0.5625q-0.578125 -0.578125 -0.578125 -1.390625l0 -9.453125q0 -0.796875 0.578125 -1.359375q0.578125 -0.5625 1.375 -0.5625l3.625 0q0.828125 0 1.375 0.5625q0.5625 0.5625 0.5625 1.359375l0 4.046875q0 0.796875 -0.5625 1.375q-0.546875 0.578125 -1.375 0.578125l-3.0625 0l0 1.9375q0 0.40625 0.265625 0.6875q0.28125 0.28125 0.71875 0.28125l3.46875 0l0.546875 2.5l-5.5625 0zm0.5625 -7.921875l1.546875 0q0.390625 0 0.671875 -0.28125q0.28125 -0.28125 0.28125 -0.671875l0 -0.984375q0 -0.40625 -0.28125 -0.6875q-0.28125 -0.28125 -0.671875 -0.28125l-0.5625 0q-0.4375 0 -0.71875 0.28125q-0.265625 0.28125 -0.265625 0.6875l0 1.9375z" fill-rule="nonzero"/><path fill="#000000" fill-opacity="0.0" d="m391.3832 163.7979l88.62991 70.92914" fill-rule="evenodd"/><path stroke="#595959" stroke-width="1.0" stroke-linejoin="round" stroke-linecap="butt" d="m391.3832 163.7979l85.95419 68.787796" fill-rule="evenodd"/><path fill="#595959" stroke="#595959" stroke-width="1.0" stroke-linecap="butt" d="m477.3374 232.5857l-1.580719 0.175354l3.1150513 1.0525513l-1.7097168 -2.8086243z" fill-rule="evenodd"/><path fill="#000000" fill-opacity="0.0" d="m391.3832 163.7979l13.385834 178.42519" fill-rule="evenodd"/><path stroke="#595959" stroke-width="1.0" stroke-linejoin="round" stroke-linecap="butt" d="m391.3832 163.7979l13.129425 175.0077" fill-rule="evenodd"/><path fill="#595959" stroke="#595959" stroke-width="1.0" stroke-linecap="butt" d="m404.51263 338.8056l-1.2055664 -1.0372925l1.3526001 2.9969788l0.8902893 -3.1652527z" fill-rule="evenodd"/><path fill="#000000" fill-opacity="0.0" d="m391.3832 163.7979l129.32285 139.33858" fill-rule="evenodd"/><path stroke="#595959" stroke-width="1.0" stroke-linejoin="round" stroke-linecap="butt" d="m391.3832 163.7979l126.991486 136.82668" fill-rule="evenodd"/><path fill="#595959" stroke="#595959" stroke-width="1.0" stroke-linecap="butt" d="m518.3747 300.62457l-1.5892944 -0.059265137l2.9261475 1.4996643l-1.2775879 -3.0296936z" fill-rule="evenodd"/><path fill="#fff2cc" fill-opacity="0.6592" d="m400.27823 240.81245l0 0c0 -3.3688507 2.7309875 -6.0998535 6.0998535 -6.0998535l147.26486 0c1.6177368 0 3.1693115 0.6426544 4.3132324 1.7866058c1.1439209 1.1439514 1.7866211 2.695465 1.7866211 4.3132477l0 24.398697c0 3.368866 -2.731018 6.099884 -6.0998535 6.099884l-147.26486 0c-3.368866 0 -6.0998535 -2.731018 -6.0998535 -6.099884z" fill-rule="evenodd"/><path stroke="#0f1d3e" stroke-width="1.0" stroke-linejoin="round" stroke-linecap="butt" d="m400.27823 240.81245l0 0c0 -3.3688507 2.7309875 -6.0998535 6.0998535 -6.0998535l147.26486 0c1.6177368 0 3.1693115 0.6426544 4.3132324 1.7866058c1.1439209 1.1439514 1.7866211 2.695465 1.7866211 4.3132477l0 24.398697c0 3.368866 -2.731018 6.099884 -6.0998535 6.099884l-147.26486 0c-3.368866 0 -6.0998535 -2.731018 -6.0998535 -6.099884z" fill-rule="evenodd"/><path fill="#000000" d="m414.13065 262.61182q-0.796875 0 -1.359375 -0.5625q-0.5625 -0.578125 -0.5625 -1.390625l0 -2.203125l2.484375 0l0 0.6875q0 0.40625 0.28125 0.6875q0.296875 0.28125 0.703125 0.28125l0.5625 0q0.390625 0 0.671875 -0.28125q0.28125 -0.28125 0.28125 -0.6875l0 -0.984375q0 -0.390625 -0.28125 -0.671875q-0.28125 -0.28125 -0.671875 -0.28125l-2.109375 0q-0.796875 0 -1.359375 -0.578125q-0.5625 -0.578125 -0.5625 -1.375l0 -4.015625q0 -0.8125 0.5625 -1.375q0.5625 -0.578125 1.359375 -0.578125l3.65625 0q0.796875 0 1.359375 0.578125q0.5625 0.5625 0.5625 1.375l0 2.203125l-2.515625 0l0 -0.6875q0 -0.40625 -0.28125 -0.6875q-0.28125 -0.28125 -0.671875 -0.28125l-0.5625 0q-0.40625 0 -0.703125 0.28125q-0.28125 0.28125 -0.28125 0.6875l0 0.984375q0 0.390625 0.28125 0.671875q0.296875 0.28125 0.703125 0.28125l2.109375 0q0.796875 0 1.359375 0.578125q0.5625 0.578125 0.5625 1.375l0 4.125q-0.03125 0.75 -0.59375 1.296875q-0.5625 0.546875 -1.328125 0.546875l-3.65625 0zm7.167633 0l0 -19.40625l2.515625 -0.5625l0 6.640625l3.171875 0l-0.59375 2.5l-2.578125 0l0 10.828125l-2.515625 0zm7.3637085 0q-0.796875 0 -1.375 -0.5625q-0.578125 -0.5625 -0.578125 -1.390625l0 -4.015625q0 -0.796875 0.578125 -1.375q0.578125 -0.578125 1.375 -0.578125l2.078125 0q0.421875 0 0.703125 -0.28125q0.28125 -0.28125 0.28125 -0.671875l0 -0.984375q0 -0.40625 -0.28125 -0.6875q-0.28125 -0.28125 -0.703125 -0.28125l-2.875 0l0.546875 -2.5l3.875 0q0.796875 0 1.359375 0.578125q0.578125 0.5625 0.578125 1.375l0 11.375l-5.5625 0zm1.515625 -2.5l1.546875 0l0 -2.90625l-1.546875 0q-0.40625 0 -0.6875 0.28125q-0.265625 0.28125 -0.265625 0.671875l0 0.984375q0 0.40625 0.265625 0.6875q0.28125 0.28125 0.6875 0.28125zm5.489105 2.5l0 -13.328125l5.578125 0q0.765625 0 1.34375 0.5625q0.59375 0.5625 0.59375 1.359375l0 11.40625l-2.5 0l0 -9.859375q0 -0.4375 -0.296875 -0.703125q-0.296875 -0.265625 -0.671875 -0.265625l-1.546875 0l0 10.828125l-2.5 0zm10.907349 0q-0.828125 0 -1.390625 -0.5625q-0.5625 -0.5625 -0.5625 -1.390625l0 -9.421875q0 -0.828125 0.5625 -1.390625q0.5625 -0.5625 1.390625 -0.5625l3.0625 0l0 -6.078125l2.5 -0.578125l0 19.984375l-5.5625 0zm1.515625 -2.5l1.546875 0l0 -8.328125l-1.546875 0q-0.375 0 -0.671875 0.265625q-0.28125 0.265625 -0.28125 0.703125l0 6.390625q0 0.375 0.28125 0.671875q0.296875 0.296875 0.671875 0.296875zm7.333893 2.5q-0.796875 0 -1.375 -0.5625q-0.578125 -0.5625 -0.578125 -1.390625l0 -4.015625q0 -0.796875 0.578125 -1.375q0.578125 -0.578125 1.375 -0.578125l2.078125 0q0.421875 0 0.703125 -0.28125q0.28125 -0.28125 0.28125 -0.671875l0 -0.984375q0 -0.40625 -0.28125 -0.6875q-0.28125 -0.28125 -0.703125 -0.28125l-2.875 0l0.546875 -2.5l3.875 0q0.796875 0 1.359375 0.578125q0.578125 0.5625 0.578125 1.375l0 11.375l-5.5625 0zm1.515625 -2.5l1.546875 0l0 -2.90625l-1.546875 0q-0.40625 0 -0.6875 0.28125q-0.265625 0.28125 -0.265625 0.671875l0 0.984375q0 0.40625 0.265625 0.6875q0.28125 0.28125 0.6875 0.28125zm5.6474304 2.5l0 -13.328125l5.578125 0q0.796875 0 1.359375 0.578125q0.578125 0.5625 0.578125 1.375l0 2.890625l-2.5 -0.546875l0 -0.8125q0 -0.390625 -0.28125 -0.6875q-0.28125 -0.296875 -0.671875 -0.296875l-1.546875 0l0 10.828125l-2.515625 0zm10.53598 0q-0.828125 0 -1.390625 -0.5625q-0.5625 -0.5625 -0.5625 -1.390625l0 -9.421875q0 -0.828125 0.5625 -1.390625q0.5625 -0.5625 1.390625 -0.5625l3.0625 0l0 -6.078125l2.5 -0.578125l0 19.984375l-5.5625 0zm1.515625 -2.5l1.546875 0l0 -8.328125l-1.546875 0q-0.375 0 -0.671875 0.265625q-0.28125 0.265625 -0.28125 0.703125l0 6.390625q0 0.375 0.28125 0.671875q0.296875 0.296875 0.671875 0.296875zm5.6474304 -14.40625l0 -2.5l2.515625 -0.578125l0 2.5l-2.515625 0.578125zm0.0625 16.90625l0 -12.734375l2.5 -0.59375l0 13.328125l-2.5 0zm6.28421 0q-0.796875 0 -1.359375 -0.5625q-0.5625 -0.578125 -0.5625 -1.390625l0 -2.203125l2.484375 0l0 0.6875q0 0.40625 0.28125 0.6875q0.296875 0.28125 0.703125 0.28125l0.5625 0q0.390625 0 0.671875 -0.28125q0.28125 -0.28125 0.28125 -0.6875l0 -0.984375q0 -0.390625 -0.28125 -0.671875q-0.28125 -0.28125 -0.671875 -0.28125l-2.109375 0q-0.796875 0 -1.359375 -0.578125q-0.5625 -0.578125 -0.5625 -1.375l0 -4.015625q0 -0.8125 0.5625 -1.375q0.5625 -0.578125 1.359375 -0.578125l3.65625 0q0.796875 0 1.359375 0.578125q0.5625 0.5625 0.5625 1.375l0 2.203125l-2.515625 0l0 -0.6875q0 -0.40625 -0.28125 -0.6875q-0.28125 -0.28125 -0.671875 -0.28125l-0.5625 0q-0.40625 0 -0.703125 0.28125q-0.28125 0.28125 -0.28125 0.6875l0 0.984375q0 0.390625 0.28125 0.671875q0.296875 0.28125 0.703125 0.28125l2.109375 0q0.796875 0 1.359375 0.578125q0.5625 0.578125 0.5625 1.375l0 4.125q-0.03125 0.75 -0.59375 1.296875q-0.5625 0.546875 -1.328125 0.546875l-3.65625 0zm8.854095 0q-0.796875 0 -1.375 -0.5625q-0.578125 -0.578125 -0.578125 -1.390625l0 -9.453125q0 -0.796875 0.578125 -1.359375q0.578125 -0.5625 1.375 -0.5625l3.625 0q0.828125 0 1.375 0.5625q0.5625 0.5625 0.5625 1.359375l0 4.046875q0 0.796875 -0.5625 1.375q-0.546875 0.578125 -1.375 0.578125l-3.0625 0l0 1.9375q0 0.40625 0.265625 0.6875q0.28125 0.28125 0.71875 0.28125l3.46875 0l0.546875 2.5l-5.5625 0zm0.5625 -7.921875l1.546875 0q0.390625 0 0.671875 -0.28125q0.28125 -0.28125 0.28125 -0.671875l0 -0.984375q0 -0.40625 -0.28125 -0.6875q-0.28125 -0.28125 -0.671875 -0.28125l-0.5625 0q-0.4375 0 -0.71875 0.28125q-0.265625 0.28125 -0.265625 0.6875l0 1.9375zm7.133911 7.921875l0 -1.25l9.9999695 0l0 1.25l-9.9999695 0zm14.081696 0q-0.828125 0 -1.390625 -0.5625q-0.5625 -0.5625 -0.5625 -1.390625l0 -9.421875q0 -0.828125 0.5625 -1.390625q0.5625 -0.5625 1.390625 -0.5625l3.0625 0l0 -6.078125l2.5 -0.578125l0 19.984375l-5.5625 0zm1.515625 -2.5l1.546875 0l0 -8.328125l-1.546875 0q-0.375 0 -0.671875 0.265625q-0.28125 0.265625 -0.28125 0.703125l0 6.390625q0 0.375 0.28125 0.671875q0.296875 0.296875 0.671875 0.296875zm7.3338623 2.5q-0.796875 0 -1.375 -0.5625q-0.578125 -0.5625 -0.578125 -1.390625l0 -4.015625q0 -0.796875 0.578125 -1.375q0.578125 -0.578125 1.375 -0.578125l2.078125 0q0.421875 0 0.703125 -0.28125q0.28125 -0.28125 0.28125 -0.671875l0 -0.984375q0 -0.40625 -0.28125 -0.6875q-0.28125 -0.28125 -0.703125 -0.28125l-2.875 0l0.546875 -2.5l3.875 0q0.796875 0 1.359375 0.578125q0.578125 0.5625 0.578125 1.375l0 11.375l-5.5625 0zm1.515625 -2.5l1.546875 0l0 -2.90625l-1.546875 0q-0.40625 0 -0.6875 0.28125q-0.265625 0.28125 -0.265625 0.671875l0 0.984375q0 0.40625 0.265625 0.6875q0.28125 0.28125 0.6875 0.28125zm5.647461 2.5l0 -19.40625l2.515625 -0.5625l0 6.640625l3.171875 0l-0.59375 2.5l-2.578125 0l0 10.828125l-2.515625 0z" fill-rule="nonzero"/><path fill="#000000" d="m542.24084 262.61182q-0.796875 0 -1.375 -0.5625q-0.578125 -0.5625 -0.578125 -1.390625l0 -4.015625q0 -0.796875 0.578125 -1.375q0.578125 -0.578125 1.375 -0.578125l2.078125 0q0.421875 0 0.703125 -0.28125q0.28125 -0.28125 0.28125 -0.671875l0 -0.984375q0 -0.40625 -0.28125 -0.6875q-0.28125 -0.28125 -0.703125 -0.28125l-2.875 0l0.546875 -2.5l3.875 0q0.796875 0 1.359375 0.578125q0.578125 0.5625 0.578125 1.375l0 11.375l-5.5625 0zm1.515625 -2.5l1.546875 0l0 -2.90625l-1.546875 0q-0.40625 0 -0.6875 0.28125q-0.265625 0.28125 -0.265625 0.671875l0 0.984375q0 0.40625 0.265625 0.6875q0.28125 0.28125 0.6875 0.28125z" fill-rule="nonzero"/><path fill="#000000" fill-opacity="0.0" d="m485.63254 116.59592l0 0c0 -3.2296982 2.6181946 -5.847885 5.8479004 -5.847885l92.871124 0c1.5509644 0 3.038391 0.61611176 4.135132 1.7128067c1.0966797 1.0966873 1.7127686 2.5841217 1.7127686 4.1350784l0 23.390839c0 3.2297058 -2.618164 5.847885 -5.8479004 5.847885l-92.871124 0c-3.2297058 0 -5.8479004 -2.6181793 -5.8479004 -5.847885z" fill-rule="evenodd"/><path stroke="#0f1d3e" stroke-width="1.0" stroke-linejoin="round" stroke-linecap="butt" d="m485.63254 116.59592l0 0c0 -3.2296982 2.6181946 -5.847885 5.8479004 -5.847885l92.871124 0c1.5509644 0 3.038391 0.61611176 4.135132 1.7128067c1.0966797 1.0966873 1.7127686 2.5841217 1.7127686 4.1350784l0 23.390839c0 3.2297058 -2.618164 5.847885 -5.8479004 5.847885l-92.871124 0c-3.2297058 0 -5.8479004 -2.6181793 -5.8479004 -5.847885z" fill-rule="evenodd"/><path fill="#000000" d="m500.168 137.89134l0 -19.375008l2.515625 -0.5625l0 19.937508l-2.515625 0zm6.527771 0q-0.8125 0 -1.375 -0.5625q-0.5625 -0.578125 -0.5625 -1.390625l0 -9.421883q0 -0.8125 0.5625 -1.375q0.5625 -0.578125 1.375 -0.578125l3.625 0q0.8125 0 1.359375 0.578125q0.5624695 0.5625 0.5624695 1.375l0 9.421883q0 0.8125 -0.5624695 1.390625q-0.546875 0.5625 -1.359375 0.5625l-3.625 0zm1.53125 -2.5l0.546875 0q0.40625 0 0.703125 -0.28125q0.296875 -0.28125 0.296875 -0.6875l0 -6.390625q0 -0.40625763 -0.296875 -0.6875076q-0.296875 -0.28125 -0.703125 -0.28125l-0.546875 0q-0.40625 0 -0.6875 0.28125q-0.28125 0.28125 -0.28125 0.6875076l0 6.390625q0 0.40625 0.28125 0.6875q0.28125 0.28125 0.6875 0.28125zm7.3283997 2.5q-0.796875 0 -1.375 -0.5625q-0.578125 -0.5625 -0.578125 -1.390625l0 -4.015625q0 -0.796875 0.578125 -1.375q0.578125 -0.578125 1.375 -0.578125l2.078125 0q0.421875 0 0.703125 -0.28125q0.28125 -0.28125 0.28125 -0.671875l0 -0.984375q0 -0.40625763 -0.28125 -0.6875076q-0.28125 -0.28125 -0.703125 -0.28125l-2.875 0l0.546875 -2.5l3.875 0q0.796875 0 1.359375 0.578125q0.578125 0.5625 0.578125 1.375l0 11.375008l-5.5625 0zm1.515625 -2.5l1.546875 0l0 -2.90625l-1.546875 0q-0.40625 0 -0.6875 0.28125q-0.265625 0.28125 -0.265625 0.671875l0 0.984375q0 0.40625 0.265625 0.6875q0.28125 0.28125 0.6875 0.28125zm7.8672485 2.5q-0.828125 0 -1.390625 -0.5625q-0.5625 -0.5625 -0.5625 -1.390625l0 -9.421883q0 -0.828125 0.5625 -1.390625q0.5625 -0.5625 1.390625 -0.5625l3.0625 0l0 -6.078125l2.5 -0.578125l0 19.984383l-5.5625 0zm1.515625 -2.5l1.546875 0l0 -8.328133l-1.546875 0q-0.375 0 -0.671875 0.265625q-0.28125 0.265625 -0.28125 0.7031326l0 6.390625q0 0.375 0.28125 0.671875q0.296875 0.296875 0.671875 0.296875zm6.180725 2.5l0 -1.25l10.0 0l0 1.25l-10.0 0zm14.081726 0q-0.828125 0 -1.390625 -0.5625q-0.5625 -0.5625 -0.5625 -1.390625l0 -9.421883q0 -0.828125 0.5625 -1.390625q0.5625 -0.5625 1.390625 -0.5625l3.0625 0l0 -6.078125l2.5 -0.578125l0 19.984383l-5.5625 0zm1.515625 -2.5l1.546875 0l0 -8.328133l-1.546875 0q-0.375 0 -0.671875 0.265625q-0.28125 0.265625 -0.28125 0.7031326l0 6.390625q0 0.375 0.28125 0.671875q0.296875 0.296875 0.671875 0.296875zm7.3338623 2.5q-0.796875 0 -1.375 -0.5625q-0.578125 -0.5625 -0.578125 -1.390625l0 -4.015625q0 -0.796875 0.578125 -1.375q0.578125 -0.578125 1.375 -0.578125l2.078125 0q0.421875 0 0.703125 -0.28125q0.28125 -0.28125 0.28125 -0.671875l0 -0.984375q0 -0.40625763 -0.28125 -0.6875076q-0.28125 -0.28125 -0.703125 -0.28125l-2.875 0l0.546875 -2.5l3.875 0q0.796875 0 1.359375 0.578125q0.578125 0.5625 0.578125 1.375l0 11.375008l-5.5625 0zm1.515625 -2.5l1.546875 0l0 -2.90625l-1.546875 0q-0.40625 0 -0.6875 0.28125q-0.265625 0.28125 -0.265625 0.671875l0 0.984375q0 0.40625 0.265625 0.6875q0.28125 0.28125 0.6875 0.28125zm5.647461 2.5l0 -19.406258l2.515625 -0.5625l0 6.640625l3.171875 0l-0.59375 2.5l-2.578125 0l0 10.828133l-2.515625 0zm7.3636475 0q-0.796875 0 -1.375 -0.5625q-0.578125 -0.5625 -0.578125 -1.390625l0 -4.015625q0 -0.796875 0.578125 -1.375q0.578125 -0.578125 1.375 -0.578125l2.078125 0q0.421875 0 0.703125 -0.28125q0.28125 -0.28125 0.28125 -0.671875l0 -0.984375q0 -0.40625763 -0.28125 -0.6875076q-0.28125 -0.28125 -0.703125 -0.28125l-2.875 0l0.546875 -2.5l3.875 0q0.796875 0 1.359375 0.578125q0.578125 0.5625 0.578125 1.375l0 11.375008l-5.5625 0zm1.515625 -2.5l1.546875 0l0 -2.90625l-1.546875 0q-0.40625 0 -0.6875 0.28125q-0.265625 0.28125 -0.265625 0.671875l0 0.984375q0 0.40625 0.265625 0.6875q0.28125 0.28125 0.6875 0.28125z" fill-rule="nonzero"/><path fill="#000000" fill-opacity="0.0" d="m485.63254 163.75603l0 0c0 -3.2297058 2.6181946 -5.847885 5.8479004 -5.847885l109.8475 0c1.5509644 0 3.038391 0.6161041 4.135132 1.7127991c1.0966797 1.096695 1.7127686 2.5841217 1.7127686 4.135086l0 23.390839c0 3.2296906 -2.618164 5.847885 -5.8479004 5.847885l-109.8475 0c-3.2297058 0 -5.8479004 -2.6181946 -5.8479004 -5.847885z" fill-rule="evenodd"/><path stroke="#0f1d3e" stroke-width="1.0" stroke-linejoin="round" stroke-linecap="butt" d="m485.63254 163.75603l0 0c0 -3.2297058 2.6181946 -5.847885 5.8479004 -5.847885l109.8475 0c1.5509644 0 3.038391 0.6161041 4.135132 1.7127991c1.0966797 1.096695 1.7127686 2.5841217 1.7127686 4.135086l0 23.390839c0 3.2296906 -2.618164 5.847885 -5.8479004 5.847885l-109.8475 0c-3.2297058 0 -5.8479004 -2.6181946 -5.8479004 -5.847885z" fill-rule="evenodd"/><path fill="#000000" d="m500.07288 185.05144l0 -19.375l2.515625 -0.5625l0 19.9375l-2.515625 0zm6.5277405 0q-0.8125 0 -1.375 -0.5625q-0.5625 -0.578125 -0.5625 -1.390625l0 -9.421875q0 -0.8125 0.5625 -1.375q0.5625 -0.578125 1.375 -0.578125l3.625 0q0.8125 0 1.359375 0.578125q0.5625305 0.5625 0.5625305 1.375l0 9.421875q0 0.8125 -0.5625305 1.390625q-0.546875 0.5625 -1.359375 0.5625l-3.625 0zm1.53125 -2.5l0.546875 0q0.40625 0 0.703125 -0.28125q0.296875 -0.28125 0.296875 -0.6875l0 -6.390625q0 -0.40625 -0.296875 -0.6875q-0.296875 -0.28125 -0.703125 -0.28125l-0.546875 0q-0.40625 0 -0.6875 0.28125q-0.28125 0.28125 -0.28125 0.6875l0 6.390625q0 0.40625 0.28125 0.6875q0.28125 0.28125 0.6875 0.28125zm7.3283997 2.5q-0.796875 0 -1.375 -0.5625q-0.578125 -0.5625 -0.578125 -1.390625l0 -4.015625q0 -0.796875 0.578125 -1.375q0.578125 -0.578125 1.375 -0.578125l2.078125 0q0.421875 0 0.703125 -0.28125q0.28125 -0.28125 0.28125 -0.671875l0 -0.984375q0 -0.40625 -0.28125 -0.6875q-0.28125 -0.28125 -0.703125 -0.28125l-2.875 0l0.546875 -2.5l3.875 0q0.796875 0 1.359375 0.578125q0.578125 0.5625 0.578125 1.375l0 11.375l-5.5625 0zm1.515625 -2.5l1.546875 0l0 -2.90625l-1.546875 0q-0.40625 0 -0.6875 0.28125q-0.265625 0.28125 -0.265625 0.671875l0 0.984375q0 0.40625 0.265625 0.6875q0.28125 0.28125 0.6875 0.28125zm7.8672485 2.5q-0.828125 0 -1.390625 -0.5625q-0.5625 -0.5625 -0.5625 -1.390625l0 -9.421875q0 -0.828125 0.5625 -1.390625q0.5625 -0.5625 1.390625 -0.5625l3.0625 0l0 -6.078125l2.5 -0.578125l0 19.984375l-5.5625 0zm1.515625 -2.5l1.546875 0l0 -8.328125l-1.546875 0q-0.375 0 -0.671875 0.265625q-0.28125 0.265625 -0.28125 0.703125l0 6.390625q0 0.375 0.28125 0.671875q0.296875 0.296875 0.671875 0.296875zm6.180786 2.5l0 -1.25l10.0 0l0 1.25l-10.0 0zm14.050415 0q-0.796875 0 -1.359375 -0.5625q-0.5625 -0.578125 -0.5625 -1.390625l0 -2.203125l2.484375 0l0 0.6875q0 0.40625 0.28125 0.6875q0.296875 0.28125 0.703125 0.28125l0.5625 0q0.390625 0 0.671875 -0.28125q0.28125 -0.28125 0.28125 -0.6875l0 -0.984375q0 -0.390625 -0.28125 -0.671875q-0.28125 -0.28125 -0.671875 -0.28125l-2.109375 0q-0.796875 0 -1.359375 -0.578125q-0.5625 -0.578125 -0.5625 -1.375l0 -4.015625q0 -0.8125 0.5625 -1.375q0.5625 -0.578125 1.359375 -0.578125l3.65625 0q0.796875 0 1.359375 0.578125q0.5625 0.5625 0.5625 1.375l0 2.203125l-2.515625 0l0 -0.6875q0 -0.40625 -0.28125 -0.6875q-0.28125 -0.28125 -0.671875 -0.28125l-0.5625 0q-0.40625 0 -0.703125 0.28125q-0.28125 0.28125 -0.28125 0.6875l0 0.984375q0 0.390625 0.28125 0.671875q0.296875 0.28125 0.703125 0.28125l2.109375 0q0.796875 0 1.359375 0.578125q0.5625 0.578125 0.5625 1.375l0 4.125q-0.03125 0.75 -0.59375 1.296875q-0.5625 0.546875 -1.328125 0.546875l-3.65625 0zm9.120789 0q-0.828125 0 -1.390625 -0.5625q-0.5625 -0.578125 -0.5625 -1.390625l0 -9.421875q0 -0.8125 0.5625 -1.375q0.5625 -0.578125 1.390625 -0.578125l3.625 0q0.796875 0 1.359375 0.578125q0.578125 0.5625 0.578125 1.375l0 2.890625l-2.5 0l0 -1.375q0 -0.40625 -0.296875 -0.6875q-0.296875 -0.28125 -0.6875 -0.28125l-0.5625 0q-0.40625 0 -0.6875 0.28125q-0.265625 0.28125 -0.265625 0.6875l0 6.390625q0 0.40625 0.265625 0.6875q0.28125 0.28125 0.6875 0.28125l0.5625 0q0.390625 0 0.6875 -0.28125q0.296875 -0.28125 0.296875 -0.6875l0 -1.375l2.5 0l0 2.890625q0 0.8125 -0.578125 1.390625q-0.5625 0.5625 -1.359375 0.5625l-3.625 0zm8.849487 0q-0.796875 0 -1.375 -0.5625q-0.578125 -0.5625 -0.578125 -1.390625l0 -4.015625q0 -0.796875 0.578125 -1.375q0.578125 -0.578125 1.375 -0.578125l2.078125 0q0.421875 0 0.703125 -0.28125q0.28125 -0.28125 0.28125 -0.671875l0 -0.984375q0 -0.40625 -0.28125 -0.6875q-0.28125 -0.28125 -0.703125 -0.28125l-2.875 0l0.546875 -2.5l3.875 0q0.796875 0 1.359375 0.578125q0.578125 0.5625 0.578125 1.375l0 11.375l-5.5625 0zm1.515625 -2.5l1.546875 0l0 -2.90625l-1.546875 0q-0.40625 0 -0.6875 0.28125q-0.265625 0.28125 -0.265625 0.671875l0 0.984375q0 0.40625 0.265625 0.6875q0.28125 0.28125 0.6875 0.28125zm5.9141235 2.5l0 -19.375l2.515625 -0.5625l0 19.9375l-2.515625 0zm6.324646 0q-0.796875 0 -1.375 -0.5625q-0.578125 -0.578125 -0.578125 -1.390625l0 -9.453125q0 -0.796875 0.578125 -1.359375q0.578125 -0.5625 1.375 -0.5625l3.625 0q0.828125 0 1.375 0.5625q0.5625 0.5625 0.5625 1.359375l0 4.046875q0 0.796875 -0.5625 1.375q-0.546875 0.578125 -1.375 0.578125l-3.0625 0l0 1.9375q0 0.40625 0.265625 0.6875q0.28125 0.28125 0.71875 0.28125l3.46875 0l0.546875 2.5l-5.5625 0zm0.5625 -7.921875l1.546875 0q0.390625 0 0.671875 -0.28125q0.28125 -0.28125 0.28125 -0.671875l0 -0.984375q0 -0.40625 -0.28125 -0.6875q-0.28125 -0.28125 -0.671875 -0.28125l-0.5625 0q-0.4375 0 -0.71875 0.28125q-0.265625 0.28125 -0.265625 0.6875l0 1.9375zm6.3338623 7.921875l0 -13.328125l5.578125 0q0.796875 0 1.359375 0.578125q0.578125 0.5625 0.578125 1.375l0 2.890625l-2.5 -0.546875l0 -0.8125q0 -0.390625 -0.28125 -0.6875q-0.28125 -0.296875 -0.671875 -0.296875l-1.546875 0l0 10.828125l-2.515625 0z" fill-rule="nonzero"/><path fill="#000000" fill-opacity="0.0" d="m426.46982 146.2546l59.149597 -17.952759" fill-rule="evenodd"/><path stroke="#595959" stroke-width="1.0" stroke-linejoin="round" stroke-linecap="butt" d="m426.46982 146.2546l55.87024 -16.957428" fill-rule="evenodd"/><path fill="#595959" stroke="#595959" stroke-width="1.0" stroke-linecap="butt" d="m482.34006 129.29716l-0.7494812 1.4027252l2.6299438 -1.973465l-3.2831726 -0.17874146z" fill-rule="evenodd"/><path fill="#000000" fill-opacity="0.0" d="m426.46982 146.2546l59.149597 29.196854" fill-rule="evenodd"/><path stroke="#595959" stroke-width="1.0" stroke-linejoin="round" stroke-linecap="butt" d="m426.46982 146.2546l56.076538 27.679932" fill-rule="evenodd"/><path fill="#595959" stroke="#595959" stroke-width="1.0" stroke-linecap="butt" d="m482.54633 173.93454l-1.5061951 0.51065063l3.268402 0.35917664l-2.2728577 -2.3760223z" fill-rule="evenodd"/></g></svg>